<svg id="Capa_1" data-name="Capa 1" xmlns="http://www.w3.org/2000/svg" viewBox="0 0 1920 918.92"><defs><style>.cls-1{fill:#2a96b2;}.cls-2{fill:#2d94b3;}.cls-3{fill:#fbfcfc;}.cls-4{fill:#3289cc;}.cls-5{fill:#3c3b3f;}.cls-6{fill:#cdf5fc;}.cls-7{fill:#132765;}.cls-8{fill:#fbc5a1;}.cls-9{fill:#bcdde9;}.cls-10{fill:#95d9e5;}.cls-11{fill:#68becf;}.cls-12{fill:#64bace;}.cls-13{fill:#5bb5c8;}.cls-14{fill:#71bfd2;}.cls-15{fill:#3e4174;}.cls-16{fill:#facfad;}.cls-17{fill:#faaf88;}.cls-18{fill:#f39d74;}.cls-19{fill:#55b1c4;}.cls-20{fill:#e0503c;}.cls-21{fill:#77c7db;}.cls-22{fill:#4dabc2;}.cls-23{fill:#9e3e74;}.cls-24{fill:#fff;opacity:0.39;}.cls-25{fill:#f36188;}.cls-26{fill:#f7be68;}.cls-27{fill:#58b2c6;}.cls-28{fill:#6268ca;}.cls-29{fill:#60b8cb;}</style></defs><title>vectores</title><path class="cls-1" d="M3814.44,753.29c-3.16,9.6-4.83,19.72-9.72,29.21l-35.52-16.37c-10.49,14.26-17.76,30.39-27.71,45.15,5.74,4.72,11.1,8.89,17.47,11.59l14,11L3736,881.07c-5.49-4.39-10.52-8.33-15.46-12.37-3.38-2.76-6.78-5.53-9.92-8.56-2.42-2.34-4.48-2.43-7.07-.36-7,5.57-14.11,11-21.12,16.54-4.08,3.22-8.07,6.57-12.11,9.83-1.92,1.55-3.61,3.36-1.88,5.8,3.81,5.4,6,12,11.6,16.09l9.67,15.84c-1.48,1.06-3.2,2.46-5.07,3.62-10.6,6.57-21.19,13.18-31.93,19.53-2.21,1.31-5,1.57-7.57,2.32-.4-3.93-1-7.85-1.15-11.79-.63-16.63-1.11-33.27-1.66-49.9-.08-2.29-.37-4.57-.42-6.85-.16-6.86-.25-13.71-.36-20.57a34,34,0,0,1,16.15-.34v16.62l52.63-40.7-54.24-50.23-1.4.62-1.29,15.38H3639c-.49-7.41-.79-14.84-1.49-22.23-.9-9.52-2.4-18.9-9.11-26.46.41-.83.82-1.67,1.24-2.5a1,1,0,0,0,.55-.43q45.27.78,90.55,1.57,44,.72,88.07,1.37C3810.71,752.94,3812.57,753.15,3814.44,753.29Z" transform="translate(-2197.95 -80.54)"/><path class="cls-2" d="M3746.34,390.78c6.84,8.54,13.74,17,20.48,25.66a85.51,85.51,0,0,1,4.88,7.74c-2.42.44-4.84,1.21-7.27,1.24-15.84.2-31.69.17-47.53.32q-52.84.51-105.68,1.12c-2.5,0-5-.14-7.5-.21l1.23-22.58c3.87-1.31,5-3.88,5-8-.15-21.44.07-42.89.16-64.34l19.15,8.11c5.85-10,11.8-20.24,18-30.93a25.82,25.82,0,0,1,4.71,2q21.72,14.79,43.32,29.77a28.45,28.45,0,0,1,3.52,3.43c-4.42,5.48-8.92,10.9-13.23,16.45-3.13,4-6,8.25-9.16,12.57l19.79,17.8,17.9,19.61c5.95-5.27,11.24-9.89,16.43-14.62a18.46,18.46,0,0,0,2.39-3.54l8.46-5.8Z" transform="translate(-2197.95 -80.54)"/><path class="cls-3" d="M3511.21,450.54q.64,29.71,1.29,59.42,1.45,67.57,2.86,135.15c.36,18.77.39,37.54.56,56.31l-49.35,1.9c-.15-3-.32-5.21-.36-7.44q-.27-16.17-.49-32.32c.1-1.46.3-2.91.3-4.37q0-41.61-.1-83.23c0-3.08-.09-6.17.07-9.24.2-3.64.64-7.27,1-10.9,2.11.46,4.25,1.41,6.33,1.3,8.71-.46,17.4-1.24,26.1-1.92,3.43-.26,6.85-.56,10-.83,0-3.51.05-6.41,0-9.31,0-2.33-1-4-3.59-4.2l-2.17-8.31c3.73-1,2.26-4,2.23-6.2-.26-22-.54-44.07-1.13-66.1C3504.64,455.12,3506.18,451.87,3511.21,450.54Z" transform="translate(-2197.95 -80.54)"/><path class="cls-4" d="M3597.61,427q0-10.2,0-20.4l7.38-2.53-1.23,22.58Z" transform="translate(-2197.95 -80.54)"/><path class="cls-5" d="M3646.38,732.62c.49.77,1,1.55,1.45,2.32C3647.35,734.17,3646.87,733.39,3646.38,732.62Z" transform="translate(-2197.95 -80.54)"/><path class="cls-6" d="M3778.18,476.93a1.21,1.21,0,0,1,1,.1Z" transform="translate(-2197.95 -80.54)"/><path class="cls-5" d="M3650.16,737.54a1.37,1.37,0,0,1,1.11.45Z" transform="translate(-2197.95 -80.54)"/><path class="cls-5" d="M3648.88,736.29l1.26,1.23Z" transform="translate(-2197.95 -80.54)"/><path class="cls-5" d="M3647.77,734.86l1.12,1.45Z" transform="translate(-2197.95 -80.54)"/><path class="cls-1" d="M3589.28,933.8l-17,7.21c1.4,5,2.67,9.34,3.81,13.71,1.91,7.25,3.67,14.54,5.63,21.78.71,2.63.51,4.58-2.49,5.28q-26.74,6.21-53.51,12.36c-.17,0-.39-.13-1.48-.51-3.74-11.7-4.24-24.47-5.11-37.47l-53.62,4a10.43,10.43,0,0,0-.7,2.35c-.5,10-1,19.94-1.38,29.92-.25,6.42-1.56,7.52-8,6.88-13-1.29-26.06-2.39-39.08-3.67-4.09-.41-8.15-1.16-13-1.85,1.83-12.62,3.62-24.87,5.48-37.64-14.74-8.89-31.52-11.76-48.22-15.68-5.35,12.24-10.51,24-15.89,36.35a25.65,25.65,0,0,1-4.79-1q-24.77-10.41-49.47-21a15.27,15.27,0,0,1-2.55-1.76c6.05-10.13,10.93-20.84,16.43-31.44-5.6-4.57-10.68-8.54-15.56-12.74-2.61-2.26-4.88-4.93-7.31-7.41l22.83-26.1c-4.36-3.77-8.3-7.16-12.21-10.58s-7.71-6.8-11.43-10.08c2-5.91,3.79-11.19,5.67-16.73,1.57-.18,3.19-.42,4.82-.56q13.36-1.1,26.74-2.16c.09-.82.17-1.63.26-2.45s-.07-1.7-.1-2.55l-.11-2.48q-.46-8.81-.94-17.61c1.29-3,1.88-5.9-.42-8.69l-.75-8.78c5.15-.27,8.11-3.23,9.7-7.88l7.5-.56c1.51,4.86,1.82,5.17,5.73,3.7,1.63-.62,3-2,4.44-3.07,4.36,3.14,8.53,6.57,13.1,9.36,9.71,6,19.62,11.56,29.46,17.31l-5.83,6.31,18.67,20.55,3.32-2a50.51,50.51,0,0,1,1.26,7.13c.2,4.92.06,9.85.06,15.53H3571c4.59,0,9.17-.06,13.76-.1.86,11.41,1.88,22.81,2.56,34.23C3588.14,906.76,3588.65,920.28,3589.28,933.8Z" transform="translate(-2197.95 -80.54)"/><path class="cls-7" d="M2998.31,928.88a51.38,51.38,0,0,0,2.4,5.59c3.93,6.87,8,13.65,12,20.51a39.09,39.09,0,0,1,1.91,4.51l-8.46,3.66c-2.93.46-4.64-1.37-6.17-3.39-.87-1.14-1.43-2.54-2.37-3.61q-14.71-16.8-29.51-33.52c-8.11-9.13-16.32-18.18-24.49-27.27-1.22-2.63-2.63-5.2-3.63-7.92-3.53-9.58-6.88-19.24-10.38-28.83-1.6-4.4-3.4-8.72-5.1-13.08a265.27,265.27,0,0,0-3.43,29.35c-.49,6.43-.83,12.89-1.23,19.33q-.52,6.28-1,12.55c-.4,3.91-.88,7.8-1.2,11.71q-1.43,17.29-2.76,34.6-.67,8.82-1.33,17.64L2902.32,972a2,2,0,0,1-1,.18q-.74-9.51-1.45-19-.72-17.58-1.43-35.15-1.8-13.87-3.59-27.74l-1.68-25.75q.18-15.76.35-31.52a65.17,65.17,0,0,0,.8-6.76c.16-9,.18-17.89.25-26.84,3.92-.12,5.21-2.18,5.31-6,.15-5.81.95-11.6,1.48-17.39l18.86-.22c.21,7.84.43,15.68.65,23.76h29.79c.28,2.7.4,5.42.87,8.09,2.78,15.6,5.64,31.18,8.46,46.78a91.59,91.59,0,0,0,16,37.55c6.39,11.09,12.76,22.19,19.22,33.24A28.49,28.49,0,0,0,2998.31,928.88Z" transform="translate(-2197.95 -80.54)"/><path class="cls-2" d="M3600.48,929.39q1.5-24.51,3-49c.43-7,.9-14.07,1.35-21.1l13,.34c1.88,10.38,3.82,20.76,5.62,31.15q3.26,18.71,6.29,37.43a53.19,53.19,0,0,1,.3,6.2c-3.33-.53-4.61-3.09-5.84-5.77-2.74-6-3.6-6.4-9.89-4.28C3609.67,925.89,3605.09,927.69,3600.48,929.39Z" transform="translate(-2197.95 -80.54)"/><path class="cls-7" d="M3002.11,984.39c2.5-5.15,5.63-10.09,5.55-16.13,6,2.31,6.84,1.93,8.61-3.81a5.93,5.93,0,0,1,1-1.44l6.17,2.18,1.36,1.41q-11.09,11.7-22.18,23.41C2999.86,988.35,3002.7,986.23,3002.11,984.39Z" transform="translate(-2197.95 -80.54)"/><path class="cls-7" d="M2912.92,980c.58,2.55,1.17,5.09,1.74,7.64l-30.07,4.69c.31-1,.3-2.53,1-3a36.39,36.39,0,0,1,8.16-4.39c4.35-1.41,6.51-4.11,6.83-8.52,1.9,2.77,2.9,6.31,7,8Z" transform="translate(-2197.95 -80.54)"/><path class="cls-8" d="M2912.92,980l-5.39,4.45c-4.06-1.7-5.06-5.24-7-8l.72-4.28a2,2,0,0,0,1-.18l10.66.16Z" transform="translate(-2197.95 -80.54)"/><path class="cls-9" d="M3002.58,990q11.09-11.71,22.18-23.41c.14,1.27.89,3.09.32,3.72-6.18,6.75-12.53,13.35-19,19.87C3005.29,991,3003.63,992.28,3002.58,990Z" transform="translate(-2197.95 -80.54)"/><path class="cls-6" d="M2884.59,992.33l30.07-4.69c1.66,1.82.68,3.47-1.06,3.73-8.92,1.34-17.87,2.42-26.84,3.38C2886.13,994.82,2885.32,993.17,2884.59,992.33Z" transform="translate(-2197.95 -80.54)"/><path class="cls-5" d="M2913,972.14l-10.66-.16,11.18-1.27C2913.33,971.18,2913.15,971.66,2913,972.14Z" transform="translate(-2197.95 -80.54)"/><path class="cls-2" d="M3407.1,265.26c16.21-.46,32.43-.88,48.64-1.43,4.77-.16,9.52-.75,14.28-1a47.79,47.79,0,0,1,5.76.45v31.51l50.89,8c.73-2.35,1.41-4.26,1.91-6.21,2-7.85,4-15.72,6-23.56.69-2.64,1.47-5.39,5.1-5.28,1.16,1.32,2.31,2.64,3.47,4a72.15,72.15,0,0,0,1.69,7,26.49,26.49,0,0,0,2.46,4.39c.78,5.89,5.48,7.09,10.08,8.41-3.72,2.68-7.51,5.24-11.13,8.05-5,3.86-7.79,8.56-7.8,15.37,0,17.7-.72,35.4-1.15,53.1-1.08.93-2.23,1.79-3.21,2.81-4.05,4.18-8.05,8.4-12.07,12.61l-9.18-23.67-55.81,5.52a15,15,0,0,0,.45,2.77c6.66,16.82,13.31,33.65,20.13,50.4.39,1,2.19,1.32,3.33,2,1.7,2.64.78,5.22-.22,7.76-1.14,2.9-2.4,5.75-3.6,8.62-8.53.41-17,.94-25.59,1.19-14.5.43-28.47,3.55-42.24,7.88l-4.57-10.18,24-20.66-32.18-36.75c-6.95,6-13.56,11.69-20.16,17.4-3.67,3.16-3.65,3.14-8,.66a53.23,53.23,0,0,0-6.11-3.12c-2.48-1-3.49-2.52-3.27-5.26.54-6.85.88-13.72,1.23-20.59.11-2.22,0-4.45,0-6.85l-47.91-3.64c-.25,2.37-.49,4.19-.62,6-.48,6.65-.92,13.3-1.36,19.95-.17,2.41-.67,4.44-3.45,5.27-4.55,1.36-9,3-13.76,4.54L3273,369.55l-31.66,28.19c-7.85-2.25-15.68-3.39-23.82-1.14-2,.56-4.43-.47-6.66-.77-2.39-5.25-6.75-8.64-11.25-11.89-7.18-7.17-7.19-7.17-15.35-1.59a23,23,0,0,0-2.06,1.72c1.11,5.3,2.12,10.17,3.14,15.05-3.66-.37-7.4-.37-11-1.2-6.39-1.5-12.65-3.51-19-5.31a.41.41,0,0,0-.7-.05l-3.3-.85c-7.48-4.47-10.4-3.94-13.91,2.53l.18-.05-1.76,1.08a117.42,117.42,0,0,0-33.44,15.24l.06,0-1.89,1.26a21.38,21.38,0,0,0-3.81,2.05c-6.57,5.47-14.36,8.3-22.36,10.85-19.28,6.13-38.5,12.47-57.73,18.75-7.59,2.48-14.87,5.7-21,10.86a12,12,0,0,1-9.14,3c-9.78-.7-19.56-1.34-29.34-2-.29-9.7,2.48-19.33,1-29.42l-38.77-2.57-7.36-20,30-26.37-40.64-46.4c-10.36,9-20.23,17.55-29.9,25.95-5.42-2.73-10.21-5.2-15.06-7.55-2.26-1.1-2.79-3-2.65-5.18.51-8.5,1.08-17,1.63-25.46l5.41-1.36,2.52-.19,7.72-.53,55.78-6.13,9.24-1.19,26.77-2.3c.23,2.21.35,3.84.56,5.46q2.52,19.82,5.07,39.63l1.36,5.08c-1,7.11,0,14,1.61,20.24,9.7,2.71,18.74,5.19,27.75,7.78,3.55,1,7.51,3.83,10.43,3s4.89-5.31,7.26-8.18c2.51-3,5.42-5.86,5.77-10.13.79-.2,1.88-.13,2.32-.64,5.4-6.15,12.13-11.31,15-19.44q7-7.72,14-15.44a9.6,9.6,0,0,1,1.87.82c7.83,6.06,14.89,13.22,24.41,16.85.69.27,1.14,1.17,1.71,1.78l1,2.21.86-.44-1.18-2.28c-.38-5.94-.75-11.88-1.15-18.27,4.7-1,9.11-2.15,13.6-2.66,3.69-.42,5.79-1.94,6.16-5.64s2.68-7.67-2.35-10.39c-4.33-2.33-8.33-5.25-13-8.24,1.59-2.42,3.13-4.58,4.46-6.86,1.76-3,3.35-6.14,5-9.21a13,13,0,0,0,6-9.78l7,.56a84.24,84.24,0,0,0,6.48,5.51c1.11.77,2.76.77,4.16,1.11,5.08,5.05,10.19,10.07,15.23,15.16a22.72,22.72,0,0,1,2.13,3,38.2,38.2,0,0,1-2.92,3.17c-8,6.9-10.8,16.1-10.75,26.11,0,7.15,2.27,13.85,8.18,18.68,5.77,8.44,13.58,13.3,24,13,10.87-.35,20-4.47,26.57-13.48,6.75-6.68,7.92-15.08,7.38-24q-.71-3.39-1.42-6.78a121.3,121.3,0,0,0,39-8.52c1.67,6.3,3.34,12.59,5.24,19.72l-15.3,3.17c-6.06,1.86-8,5.93-6.58,14.45l4.18.3c4.24,5.09,5.26,5.22,9.78.84,5.21-5,10.34-10.16,16.05-15.78L3261,363.7c.6,0,.86.08,1,0,13.86-8,27.69-16.13,41.58-24.1,2.82-1.61,3.51-3.89,3.17-6.81,2.77,1.34,5.67,2.48,8.3,4.05,7.48,4.48,14.8,9.23,22.29,13.69,10.29,6.14,20.2,3,26.3-3.14,8-8,8.84-18.37,2.79-27.87-1.11-1.74-2.28-3.45-3.42-5.17,1.49-1.28,2.79-3.3,4.49-3.71,10.1-2.44,20.28-4.6,30.47-6.64,4.41-.89,8.91-1.27,13.71-1.93-.57-4.36-1.37-8.25-1.53-12.15C3409.83,281.59,3406,273.73,3407.1,265.26ZM3107.49,362c-4.45,0-8.68,1.45-13.71,3.84,6.36,3,10.07,8.41,17.14,10.69.15-2.48.73-4.45.26-6.12C3110.45,367.77,3109,365.34,3107.49,362Z" transform="translate(-2197.95 -80.54)"/><path class="cls-7" d="M3136.46,307.06a22.72,22.72,0,0,0-2.13-3c-5-5.09-10.15-10.11-15.23-15.16l-6.22-8.84a27.66,27.66,0,0,0-1.31-3.5c-9.36-17.86-11.29-36.81-8.32-56.48.34-2.37.67-4.74,1-7.11l4.46-12.66,4-7.09a33.6,33.6,0,0,0,2.77-3.34c7.29-11.49,17-20.42,28.5-27.58l5-3.11,22.59-7.95.57.2.59-.13c4.12-.36,8.22-.92,12.34-1a88.84,88.84,0,0,1,29.25,4.38,83.69,83.69,0,0,1,35.15,21.3c1.17,1.17,2.42,2.26,3.63,3.38l11,14.72c1.18,2.66,2.39,5.3,3.54,8,7.1,16.44,9.66,33.39,5.66,51.07-.89,3.94-.41,4.71,3.81,7.39,13.13,8.32,26.2,16.72,39.36,25,4.16,2.61,8.53,4.88,12.81,7.3,6.57,4.5,13.09,9.08,19.75,13.44,2,1.31,4.42,2,6.64,3l7.41,5.09c1.14,1.72,2.31,3.43,3.42,5.17,6.05,9.5,5.16,19.88-2.79,27.87-6.1,6.14-16,9.28-26.3,3.14-7.49-4.46-14.81-9.21-22.29-13.69-2.63-1.57-5.53-2.71-8.3-4.05-3.28-2.55-6.4-5.33-9.86-7.6-9.38-6.16-18.9-12.13-28.38-18.14-5.57-3.53-11.17-7-15.92-10l-26.12,18.13a121.3,121.3,0,0,1-39,8.52l-7.16.37c-1.59-.74-3.12-1.94-4.78-2.14-13.07-1.58-24.79-6.55-35.71-13.71A14.76,14.76,0,0,0,3136.46,307.06Zm2.34-41.41a8.82,8.82,0,0,0,.68,2.34c12.11,19.29,37.15,32.44,61.94,26.4a47.3,47.3,0,0,0,6.66-1.17c11.82-3.86,21.3-11.08,29.08-20.68,5.13-6.33,10.64-12.75,11.61-21,3-25.32-4-47.07-25.22-62.61-8.62-6.3-18.32-10.6-29.46-10.13-10.13-1.15-19.86,0-28.89,5.07l-3.79,1.67c-8.35,4.26-15.33,10-20.17,18.19l-6.09,11.35c-4.12,7.81-5.13,16.36-4.58,24.88C3131.16,249,3132.69,258.16,3138.8,265.65Z" transform="translate(-2197.95 -80.54)"/><path class="cls-10" d="M3746.34,390.78l-4.93-4.28-8.46,5.8c-1.68-.59-3.36-1.68-5-1.69-10.56-.05-21.12.13-31.68.24l-19.79-17.8c3.13-4.32,6-8.53,9.16-12.57,4.31-5.55,8.81-11,13.23-16.45l68.23,1.69c1.15-4.93,2.12-9.05,3.25-13.92l54.11,39.68-17.76,12.67L3776,403.23c-1.21.75-2.39,1.54-3.79,2.45-2.78-2.81-3.5-6.26-4.43-9.59-1.86-6.66-3.06-7.42-9.62-6.54C3754.2,390.07,3750.26,390.38,3746.34,390.78Z" transform="translate(-2197.95 -80.54)"/><path class="cls-2" d="M3575.08,286.41q-1.3-5-2.6-9.92l20.72,5.07c-.88,3.69-1.69,7.05-2.5,10.42Z" transform="translate(-2197.95 -80.54)"/><path class="cls-5" d="M3529.82,250.44l1,.92Z" transform="translate(-2197.95 -80.54)"/><path class="cls-11" d="M3431.32,206.73l-1-.15a2.19,2.19,0,0,1,.13-.53,6.66,6.66,0,0,1,1,.11Z" transform="translate(-2197.95 -80.54)"/><path class="cls-6" d="M3104.26,213c-9.3.43-18.61.83-27.91,1.3-2.9.15-5.78.6-8.68.74-9.75.45-19.5.83-29.25,1.2-2.05.08-4.09,0-7,0-.19-17-.37-33.51-.55-50V150.64l49.3-6.12,2.48-.77a2.86,2.86,0,0,0,1.13,0A252.75,252.75,0,0,1,3105,194.36c.7,2.3.67,5.1,3.7,6Z" transform="translate(-2197.95 -80.54)"/><path class="cls-6" d="M3020.51,165c-.07,4.58-.27,9.16-.2,13.73.16,10.62.55,21.24.65,31.87.05,5.29-.46,5.86-5.72,5.71-18.11-.52-36.23-.68-54.23-3.21-5.52-.78-11.13-.9-17.08-1.35-.14-2.17-.24-3.76-.34-5.35l1.17-4.88.69-1.26,8.28-27.41c.44-1.26.87-2.53,1.3-3.79l-.18-.14,1.12-1.38c2.92-6.2,5.73-12.44,8.8-18.56,2.27-4.53,2.81-4.34,7.88-3.73,11.92,1.44,23.89,2.56,35.84,3.8l11.15,1.45C3019.92,155.24,3020.22,160.11,3020.51,165Z" transform="translate(-2197.95 -80.54)"/><path class="cls-6" d="M2940,188.81q-3,10.13-6.06,20.29c-4.7,1.23-23.1-1.55-47.64-7.29.82-1.69,1.5-3.28,2.33-4.79,5.1-9.3,9.63-19,15.52-27.76,6.36-9.46,14-18,21.07-27,1.75-2.25,3.23-4.73,4.83-7.1l9.7,2.23,18.22,6A257.61,257.61,0,0,0,2940,188.81Z" transform="translate(-2197.95 -80.54)"/><path class="cls-6" d="M2924.46,133.64c-7.69,4.91-13,12.17-18.62,19.07a182.4,182.4,0,0,0-26.51,44.91,25.11,25.11,0,0,1-1.62,2.65c-4.73-1-9.55-2-14.35-3.05a92.69,92.69,0,0,1-9-2.33c-1-.32-1.64-1.53-2.45-2.33l15.62-24,18.63-21c6.65-5.69,13.35-11.3,19.91-17.08,3.75-3.31,7.46-4.15,11.73-1C2919.88,131,2922.22,132.27,2924.46,133.64Z" transform="translate(-2197.95 -80.54)"/><path class="cls-6" d="M3079.62,138.51c-4.08.68-8.18,1.3-12.25,2.07a173.59,173.59,0,0,1-35.07,3.14c-1.68-5-1.93-43.87-.42-51.92,3.82-1.57,7,1.3,10.56,1.78,5.83,5.32,12,10.26,17.36,16,5.87,6.4,10.89,13.57,16.28,20.41Z" transform="translate(-2197.95 -80.54)"/><path class="cls-6" d="M3008.7,93.76l10.78-2.86v52.51l-10.86.38c-12.6-1.71-25.5-1.85-38.07-6.55C2981.33,120.4,2993.54,105.79,3008.7,93.76Z" transform="translate(-2197.95 -80.54)"/><path class="cls-6" d="M2993.5,97.43a34,34,0,0,1-3,3.8c-9.87,9.33-18.88,19.4-25.68,31.22-1.89,3.29-3.89,3.59-7.14,2.44-5.08-1.79-10.31-3.18-15.47-4.74l-3.46-1.86c2.69-2.14,4.77-4,7-5.57,7.23-5,14.53-10,21.8-15A126.65,126.65,0,0,1,2993.5,97.43Z" transform="translate(-2197.95 -80.54)"/><path class="cls-6" d="M3149,159.23c-1.3-2.53-2.2-5.38-4-7.51-4-4.79-8.38-9.21-12.59-13.8-1.22-1.32-2.39-2.68-3.86-4.35l13.33-5.87a37.28,37.28,0,0,1,4.25,2.1c2.25,1.47,4.38,3.14,6.56,4.73l18.87,16.75Z" transform="translate(-2197.95 -80.54)"/><path class="cls-6" d="M3131.25,121.12c-3.84,1.5-7.83,4.45-11.48,4.08s-6.91-4.14-10.4-6.32c-1.73-1.08-3.61-1.94-5.42-2.89-4.15-2.26-8.44-4.3-12.42-6.83a102.93,102.93,0,0,0-33.66-13.71l-3.94-.73c-.09-.82-.17-1.65-.26-2.47L3065,93.5l18.76,4.93a4.18,4.18,0,0,0,1.14.4l2.62.82,4.87,1.73,2.65.85c10.38,4.87,20.8,9.66,31.11,14.68C3128.08,117.85,3129.56,119.69,3131.25,121.12Z" transform="translate(-2197.95 -80.54)"/><path class="cls-6" d="M3002.22,92.45l-7.41,3.24c-10.48,1.3-20,5.37-29.33,10.06-10.84,3.07-19.55,10-28.2,16.6-4.26,3.28-7.56,3.37-11.7,1-1.39-.8-2.82-1.55-5.09-2.78,4-2.37,7.28-4.49,10.71-6.25,19.73-10.11,40.29-17.85,62.33-21.18C2996.4,92.7,2999.32,92.67,3002.22,92.45Z" transform="translate(-2197.95 -80.54)"/><path class="cls-12" d="M3082.64,143.75l-2.48.77Z" transform="translate(-2197.95 -80.54)"/><path class="cls-13" d="M3262.38,81l.34-.47a7.85,7.85,0,0,1,.74.67s-.2.29-.32.45Z" transform="translate(-2197.95 -80.54)"/><path class="cls-14" d="M2214.91,420.57l1.85,1.3-1.23.49a2,2,0,0,0-1-.29Z" transform="translate(-2197.95 -80.54)"/><path class="cls-15" d="M2214.49,422.07a2,2,0,0,1,1,.29,1.23,1.23,0,0,1-.86.77A1,1,0,0,1,2214.49,422.07Z" transform="translate(-2197.95 -80.54)"/><path class="cls-16" d="M3151.43,391.71l3.29.85h.35l.36.06c6.31,1.8,12.57,3.81,19,5.31,3.55.83,7.29.83,11,1.2l5.11-.23c5.52-.44,11-.78,16.54-1.37,1.34-.15,2.58-1.11,3.87-1.69,2.23.3,4.67,1.33,6.66.77,8.14-2.25,16-1.11,23.82,1.14,5.79,4,11.46,8.14,17.42,11.86,10,6.27,20.18,12.33,30.4,18.28,2.24,1.31,5,1.81,7.45,2.68a11.09,11.09,0,0,0,2.12,2.15q29.52,17,59.12,33.84a33.63,33.63,0,0,0,4,1.66c4.84,3.54,9.47,7.79,16.25,4.84a31.77,31.77,0,0,0,4.36.06c14.67-1.68,29.34-3.37,44-5.18,5.14-.63,10.24-1.6,15.36-2.42l19.36-.77-.24,6.05.05-.09-1.24,2.48c-2.06,4.47-4,9-6.19,13.4-4.08,8.32-8.37,16.54-12.36,24.91-.91,1.93-.92,4.3-1.35,6.47l-5.2,5.28-2.74-.49-1.85-.42c-4.09.71-7.1-1.8-10.31-3.58-3-1.69-6-3.59-8.86-5.33l-7.38,4.33c3.79,5.47,5.91,11.5,10.68,15.57,6.12,5.22,12.7,9.91,19.38,15,2.59-2.88,5.2-5.51,7.45-8.42.77-1,.66-2.66.95-4l7.58-7.44c1.95-2.56,3.88-5.13,5.87-7.66,1.37-1.75,2.83-3.43,4.26-5.13l1.27-2.06.2-.29c3.49-.46,4.92,1.12,4.88,4.59-.08,8.73-.12,17.46,0,26.19,0,2.39.84,4.77,1.29,7.15l-.38,4.55c-.34,3.63-.78,7.26-1,10.9-.16,3.07,0,6.16-.07,9.24-3.3.2-6.68,0-9.9.66q-33.81,6.89-67.56,14.07a66.33,66.33,0,0,1-31.41-.61c-4.18-1.12-8.5-1.77-12.75-2.63-2-1-4.24-1.77-6-3.11-5.75-4.34-11.23-9-17-13.33-4.25-3.16-8.79-5.92-13.2-8.86v0l-1.27-1.27h0l-1.26-1.25h0l-2.48-1.24,0,0c-.83-.82-1.65-1.64-2.47-2.47l0,0-3.71-2.47-.06,0-2.45-1.22,0,0c-1.47-1.65-2.72-3.6-4.45-4.91q-18.4-14-37-27.72c-15.89-11.79-32.13-23.15-47.6-35.47-5.61-4.47-10.88-4.93-17.27-4.08-7.21,1-14.48,1.61-21.75,1.91a18,18,0,0,0-10.95,3.77c-12.27,9.66-24.67,19.16-36.92,28.85-13.54,10.7-28.69,16.88-46.12,16.25-5.34-.19-10.65-1.55-16-2.38h0l-2.49-1.2c-2.95-3.17-6.73-5.9-8.68-9.6-5.94-11.29-4.53-18.72,5-24,6.83-3.78,12.16-9.26,18.56-13.43,4.93-3.22,9.06-7.2,9.89-13.6.2-1.55,1.38-3,2.24-4.42q13.78-22.62,27.59-45.2c2.45-4,1.76-5.58-2.73-6.26a26.78,26.78,0,0,0-3.11-.11,117.12,117.12,0,0,1,33.44-15.23l1.76-1.09-.18.05Z" transform="translate(-2197.95 -80.54)"/><path class="cls-17" d="M3344.3,587.45c4.25.86,8.57,1.51,12.75,2.63a66.33,66.33,0,0,0,31.41.61q33.75-7.19,67.56-14.07c3.22-.65,6.6-.46,9.9-.66q.06,41.61.1,83.23c0,1.46-.2,2.91-.3,4.37l-49.51,4.12c-.62-1.28-1.19-2.59-1.84-3.84-2.68-5.13-4.49-11.09-8.28-15.2-8-8.66-17-16.39-25.65-24.43-3.8-3.53-7.79-6.85-11.66-10.31-7-6.23-14.05-12.33-20.72-18.86C3346.15,593.18,3345.52,590,3344.3,587.45Z" transform="translate(-2197.95 -80.54)"/><path class="cls-3" d="M3495.94,532.43c-.48,1.8-1,3.59-1.43,5.38-7.5,7.61-17.75,9.68-27.16,13.46-.45-2.38-1.25-4.76-1.29-7.15-.16-8.73-.12-17.46,0-26.19,0-3.47-1.39-5-4.88-4.59l21.33-33.53,1.36.3c2.13,17.1,4.27,34.19,6.43,51.5Z" transform="translate(-2197.95 -80.54)"/><path class="cls-4" d="M3478,438l-.88-1.18c1.2-2.88,2.46-5.73,3.6-8.63,1-2.54,1.92-5.12.22-7.76l8.62-1.06c0,7.59-4.73,12.81-9.24,18.09C3479.93,437.94,3478.81,437.82,3478,438Z" transform="translate(-2197.95 -80.54)"/><path class="cls-3" d="M3464.66,463.26c.48-5.08,1-10.17,1.46-15.55l7.94-2.09Z" transform="translate(-2197.95 -80.54)"/><path class="cls-3" d="M3461.17,464.74l3.56-1.56c-1.27,2.53-2.53,5.07-3.8,7.61Z" transform="translate(-2197.95 -80.54)"/><path class="cls-3" d="M3459.74,473.18l1.24-2.48C3460.56,471.52,3460.15,472.35,3459.74,473.18Z" transform="translate(-2197.95 -80.54)"/><path class="cls-3" d="M3460.94,513.63l-1.27,2.06Z" transform="translate(-2197.95 -80.54)"/><path class="cls-18" d="M3344.3,587.45c1.22,2.57,1.85,5.73,3.76,7.59,6.67,6.53,13.77,12.63,20.72,18.86,3.87,3.46,7.86,6.78,11.66,10.31,8.66,8,17.66,15.77,25.65,24.43,3.79,4.11,5.6,10.07,8.28,15.2.65,1.25,1.22,2.56,1.84,3.84l-1.62,11.72a31,31,0,0,1-10.89,19.79c-2.68,2.31-5.29,4.7-7.94,7a25.29,25.29,0,0,0-3.6.91c-11,4.67-21.85,3.83-32.58-1a14.76,14.76,0,0,0-3.11-.37c1.33,1.62,1.89,2.38,2.52,3.07,11.94,13,12.67,31.17-1.1,43.85-2.42,2.23-4.6,4.74-6.89,7.12l-10.3,5.56a18.49,18.49,0,0,0-2.47,0c-16.52,2.44-32-2.38-43.8-13.62-.16-.15-.69.09-.75.1-.54,5.4-1.08,10.71-1.62,16l-10.71,14.43c-2,1-4.06,2.12-6.1,3.15-7.47,3.75-15.38,4.7-22.91,1.13-5.93-2.82-11.28-6.95-16.69-10.77-3.28-2.31-6.19-5.13-9.27-7.73l-1.18,1,3,5.09c-.12,2.49-.17,5-.37,7.47-.93,12.15-7.53,20.47-18.1,25.72-10,5-18.89,2.13-27.06-4.72-5.25-4.41-10.74-8.54-16.21-12.69-3.3-2.5-3.94-2.24-6.38,1.87-2.84,0-2.77,2.52-3.66,4.21l-3.75,3.24a59.17,59.17,0,0,1-22.6,12.54c1-1,1.86-2.31,3.06-2.93,6.1-3.13,9.68-8.32,12.09-14.46,1.89-4.83,3-10,5.45-14.55,6.82-12.48,7-24.83.66-37.42,8,.56,12,7.19,18,12.86.45-3,.76-4.71,1-6.48.94-7.9-1.27-15.26-3.84-22.56l.09-.1a58.71,58.71,0,0,1,7.14,3.7,45.88,45.88,0,0,0,16.59,7c14.25,3.11,32-6.69,36.95-20.48a38.53,38.53,0,0,0,.35-24.54c-.62-2.07-1.18-4.16-1.9-6.71,2.59,0,4.29-.31,5.83,0,10.77,2.55,20.24-.64,29-6.62,10.61-7.27,16.14-17.87,15.78-30.35-.29-10.19-3.25-20.2-11.59-27.52a65.91,65.91,0,0,1-5.42-6l0,0c3.53,0,7.06.15,10.58,0,3.71-.14,7.63.15,11.08-.94,18.44-5.83,31.34-24,28-45-.36-2.24-.51-4.51-.76-6.77,4.41,2.94,9,5.7,13.2,8.86,5.78,4.3,11.26,9,17,13.33C3340.06,585.68,3342.28,586.43,3344.3,587.45Z" transform="translate(-2197.95 -80.54)"/><path class="cls-3" d="M3351,759.85c2.29-2.38,4.47-4.89,6.89-7.12,13.77-12.68,13-30.87,1.1-43.85-.63-.69-1.19-1.45-2.52-3.07a14.76,14.76,0,0,1,3.11.37c10.73,4.8,21.56,5.64,32.58,1a25.29,25.29,0,0,1,3.6-.91v15.17c-3.65.34-7.7.88-11.76,1.07-8.12.38-8.12.31-10.72,7.64-.2.59-.55,1.13-.75,1.72a14.69,14.69,0,0,0-.31,2l11.35,10.75,22.9-19.82c3.24,3.55,6.35,6.82,9.29,10.24,1.78,2.08,3.55,3.54,6.39,2.05s6.49-1.81,6.52-6.41c0-4.12.69-8.24,1.11-12.65,9.52-1.47,18.45,1.07,28.39.89-.27,4.87-.44,9.14-.76,13.4-.26,3.4.55,6,3.85,7.76,2.75,1.48,5,1.68,7.35-.57,3.44-3.32,6.94-6.59,10.72-10.17l2.83,2.15c1.73,2.28,3.35,4.66,5.21,6.83,3.64,4.22,7.4,8.33,11.43,12.85l-14,12.7c.48,1.51,1,2.85,1.33,4.22.93,3.57,3.15,4.81,6.85,4.81,4.3,0,8.6.74,13.61,1.23-.58,8.47-1.13,16.67-1.68,24.87-.26,2.37-1.31,3.79-4,3.7-3.72-.13-7.45-.07-11.17-.14-2.33,0-4.69-.14-5.61,2.67-1,3-3,6,.12,9.15,3.51,3.48,6.8,7.18,10.18,10.79L3471.53,844c-2.4-2.74-4.81-5.55-7.28-8.3-5.68-6.31-5.69-6.3-13.58-2.44-.17.08-.28.28-.68.71-.35,5.42-.73,11.13-1.13,17.36L3420,849.81c0-2.87-.12-5.3,0-7.71s.52-5,.89-7.43c.45-3-1.2-4.52-3.7-5.69s-4.59-2.05-6.9,0c-2.74,2.5-5.53,5-8.29,7.42l-3.32,2L3380,817.89l5.83-6.31c1.55-1.36,3.07-2.77,4.68-4.06,2.29-1.82,2.84-3.82,1.47-6.55s-2-5.94-6.26-5.82-8.67-.27-13.56-.46V781.93q1.44-7.78,2.87-15.58c2.68,0,4.52,0,6.36,0,2.07.06,4.15.37,6.21.28,4.8-.19,10-7.5,7.68-11-2.25-3.31-4.72-6.67-8-8.71l-5.08,6.1-13,15.74-3.57,2.48Zm111.48,40.74c5.07-4.36,6.08-10.34,6.08-16.46,0-14.18-11.26-27.37-24.53-29.17-15.43-2.09-29.69,6.32-33.59,20.8-2.18,8.1-2.49,16.59,4,23.57,5.24,9.63,13.91,14.4,24.3,14.35C3448.48,813.63,3457.3,809.91,3462.48,800.59Z" transform="translate(-2197.95 -80.54)"/><path class="cls-9" d="M3764.1,465.69l-.19.4.22-.38Z" transform="translate(-2197.95 -80.54)"/><path class="cls-3" d="M3130,811.89a59.13,59.13,0,0,0,22.61-12.54l3.75-3.23c0,1,.06,1.91.08,2.87a45.3,45.3,0,0,0-2.57,28.84,59,59,0,0,0,1.52,6.63c7.36,20.76,27,34.57,51.2,34.39,1.42-.26,2.84-.58,4.27-.75,18.16-2.18,38.67-17.71,42.52-42.28,2.51-15.94-3.54-39.61-25.24-51.57l-3-5.09,1.18-1c3.08,2.6,6,5.42,9.27,7.73,5.41,3.82,10.76,8,16.69,10.77,7.53,3.57,15.44,2.62,22.91-1.13,2-1,4.07-2.1,6.1-3.15,1.19,6.38,1.35,6.52,7.44,6.07,1.23-.09,2.46-.34,3.69-.34,7.35,0,14.7,0,22.38,0,.34,1.49.69,3.07,1,4.64l.75,8.77.42,8.7q.48,8.8.94,17.61c0,.83.07,1.66.11,2.48s.06,1.7.1,2.55-.17,1.63-.26,2.45q-13.36,1.08-26.74,2.16c-1.63.14-3.25.38-4.82.56-1.88,5.54-3.66,10.82-5.67,16.73,3.72,3.28,7.56,6.7,11.43,10.08s7.85,6.81,12.21,10.58l-22.83,26.1-9.89,10.87-15.28-13.07c-2.05-2-4.13-4.07-6.14-6.17-1.75-1.83-3.66-1.67-5.7-.65l-12.49,6.24c.76,6.46,1.51,12.86,2.25,19.25q.21,4.41.41,8.81c-.2,3-2.24,3.38-4.73,3.52-7,.39-13.94,1-20.91,1.49l-2.47.1c-4.78.2-9.57.52-14.35.56a62.58,62.58,0,0,1-7.19-.74q-.69-15.37-1.38-30.68l-14.67-4.2-1.43,1.07-4.81,5.25-1.77,2.14q-2.88,3.3-5.75,6.59l-1.8,2.06-4.65,5.28c-4.18.88-4.68-3.77-7.48-5l-1.19-1.1-.11-.09-2.34-1.37-7.06-5.16c-2.94-3.18-5.74-6.5-8.85-9.5-3.66-3.54-7.59-6.79-11.14-9.93l20.79-23.24c-3-5.46-5.68-10.53-8.25-15.3l-29.72,1.94-2-7.92-44.94,36.08c-1.41-1.52-2.44-2.51-3.33-3.62q-14.16-17.5-28.29-35c-3.46-4.28-3.63-4.14-8.94-2.46-6.35,2-12.76,3.84-19.23,5.41-3.24.79-5.09,2.07-5.39,5.67-.7,8.1-1.67,16.18-2.67,24.24-.78,6.37-1.77,12.71-2.67,19.07a91.59,91.59,0,0,1-16-37.55c-2.82-15.6-5.68-31.18-8.46-46.78-.47-2.67-.59-5.39-.87-8.09l6.66-.78c-.18-4.2-.34-7.91-.51-11.61l19.42-3.19c.85,3.26,1.69,6.54,2.57,9.8.6,2.23-.46,5.08,2.39,6.49-.45,3.41-.91,6.82-1.35,10.15,3.48.92,3.48.92,6.16,5.66,2.1,3.73,5,4,6.86.3a11.24,11.24,0,0,0,.78-7.09c-.78-3.15-2.63-6-4-9,0-5.09-.07-10.17,0-15.25,0-1.77.21-3.54.32-5.31,8.28-3.65,16.16-7.91,22.71-14.29l1.27-1.18.06-.06c1.71-1.39,3.5-2.72,5.13-4.21,2.07-1.89,4-3.91,6-5.87l2.31,3c3.56,4.8,6.68,10,10.78,14.3,6.69,7,20.09,12.2,32.89,5.72a31.31,31.31,0,0,0,12.23-10.43c1.42-2.12,2.32-5.14,5.76-5.12-1,2.79-2,5.57-3,8.36l-8.61,11.88,9.82,11.42c2,2.88,3.87,5.93,6.14,8.6C3102.71,812.66,3116.33,816.36,3130,811.89Z" transform="translate(-2197.95 -80.54)"/><path class="cls-3" d="M3340.7,765.41q.43,9.06.86,18.11l-8.45.76-7.5.56h-16.23c-.33-5.93-.76-11.12-.85-16.31-.05-3-1.56-4.61-4.07-5.63-4.67-1.91-6.2-1.48-9.71,2.51-.81.92-1.79,1.69-2.69,2.53.54-5.31,1.08-10.62,1.62-16,.06,0,.59-.25.75-.1,11.78,11.24,27.28,16.06,43.8,13.62A18.49,18.49,0,0,1,3340.7,765.41Z" transform="translate(-2197.95 -80.54)"/><path class="cls-2" d="M3292.06,767.94c.9-.84,1.88-1.61,2.69-2.53,3.51-4,5-4.42,9.71-2.51,2.51,1,4,2.63,4.07,5.63.09,5.19.52,10.38.85,16.31h16.23c-1.59,4.65-4.55,7.61-9.7,7.88-.36-1.57-.71-3.15-1-4.64-7.68,0-15,0-22.38,0-1.23,0-2.46.25-3.69.34-6.09.45-6.25.31-7.44-6.07Z" transform="translate(-2197.95 -80.54)"/><path class="cls-2" d="M3333.11,784.28l8.45-.76,1.72,1.4c-1.47,1-2.81,2.44-4.44,3.06C3334.93,789.45,3334.62,789.14,3333.11,784.28Z" transform="translate(-2197.95 -80.54)"/><path class="cls-2" d="M3317.08,810.19l-.42-8.7C3319,804.29,3318.37,807.22,3317.08,810.19Z" transform="translate(-2197.95 -80.54)"/><path class="cls-2" d="M3318.13,830.28c0-.82-.07-1.65-.11-2.48C3318.06,828.63,3318.09,829.46,3318.13,830.28Z" transform="translate(-2197.95 -80.54)"/><path class="cls-2" d="M3318,835.28c.09-.82.17-1.63.26-2.45C3318.14,833.65,3318.06,834.46,3318,835.28Z" transform="translate(-2197.95 -80.54)"/><path class="cls-10" d="M2487.43,810.14l-3.89-4.27c4.78-4.64,9.48-9.25,14.26-13.79,2.11-2,4.43-3.79,6.56-5.77,7.75-7.26,15.54-14.49,23.13-21.92,1.67-1.63,2.57-4,3.82-6.11l5-.67,29.53.1a27,27,0,0,1,3.15,2.66c3.24,3.63,6.39,7.36,9.9,11.42l7.71-7.43c1.85-1.79,4.34-2.52,6.24-1.11,1.61,1.19,2.62,3.52,3.27,5.55.39,1.21-.55,2.8-.64,4.24-.13,2.15,0,4.32,0,6.87,7.86.24,14.79.84,21.64-.14.67-4.16.94-7.69,1.85-11.06s4.29-4.71,7.3-2.74a19.3,19.3,0,0,1,3.88,4c1.44,1.71,2.73,3.54,4.47,5.83,5.53-4.86,10.7-9.25,15.65-13.88.91-.85.94-2.63,1.38-4l53.82-.24a46.08,46.08,0,0,1,.73,6q-.17,20.88-.54,41.75c-.06,3.38,1.54,4.78,4.67,5.38a41.78,41.78,0,0,1,6.33,2.22l-4.17,42.34-5.76.18c-38.54.27-77.07-2.51-115.45-1.3-1.37,6.3-1.3,9.57.13,16.08v20.57l-15.14-11.76c-3-2.56-5.78-5.27-8.86-7.67q-35.1-27.37-70.29-54.62C2493.93,814.5,2490.63,812.38,2487.43,810.14Z" transform="translate(-2197.95 -80.54)"/><path class="cls-2" d="M3234.3,918c-.74-6.39-1.49-12.79-2.25-19.25l12.49-6.24c2-1,3.95-1.18,5.7.65,2,2.1,4.09,4.12,6.14,6.17-3.68,4.32-7.3,8.68-11.07,12.92a64.45,64.45,0,0,1-4.91,4.56Z" transform="translate(-2197.95 -80.54)"/><path class="cls-16" d="M3017.23,963a5.93,5.93,0,0,0-1,1.44c-1.77,5.74-2.6,6.12-8.61,3.81-.51-1.7-1-3.41-1.52-5.11l8.46-3.66Z" transform="translate(-2197.95 -80.54)"/><path class="cls-19" d="M3148.8,919.21l4.65-5.28,1.73.24C3154.62,917.83,3152.34,919.32,3148.8,919.21Z" transform="translate(-2197.95 -80.54)"/><path class="cls-14" d="M3137.68,911.69l2.34,1.37Z" transform="translate(-2197.95 -80.54)"/><path class="cls-14" d="M3155.18,914.17l-1.73-.24,1.8-2.06C3155.22,912.64,3155.2,913.4,3155.18,914.17Z" transform="translate(-2197.95 -80.54)"/><path class="cls-12" d="M3206.6,931.88l2.47-.1Z" transform="translate(-2197.95 -80.54)"/><path class="cls-14" d="M3161,905.28l1.77-2.14Z" transform="translate(-2197.95 -80.54)"/><path class="cls-14" d="M3140.13,913.15l1.19,1.1Z" transform="translate(-2197.95 -80.54)"/><path class="cls-3" d="M2800.55,646.09c.33-12.09.76-24.17,1-36.26.62-37.74,1.12-75.48,1.75-113.22.34-20.43.87-40.86,1.31-61.28l42.69,1.34c.33,4.71.61,8.82.9,12.93-.33,7.69-.86,15.38-.92,23.07,0,6,.72,12.05.74,18.08q.22,87.86.32,175.71c0,2.71-.07,5.43.06,8.13.22,4.51.68,5,5.16,5.17,5.2.22,10.4.32,15.6.47-1.8,11.12-2.45,22.26-.55,33.44-2.7-3.4-5.34-6.85-8.13-10.17s-5.71-6.45-8.57-9.66c-.07-1.45,0-2.93-.21-4.36-.89-5.81-4.31-9.33-10-10.48s-9.31,2.76-7.63,8.39a8.56,8.56,0,0,0,1.84,3.22c2.26,2.43,4.67,4.71,7,7.06-1.79,2.82.4,4.78,1.67,6.74q14.64,22.53,29.46,44.92c2.58,3.9,2.82,3.88,7.05,2.3,1.28-.48,2.64-.75,4.72-1.33.37,3.38.9,6.2.94,9,.16,10.83.14,21.66.22,32.49,0,2.23.21,4.46.32,6.77l7.31.81c-.07,9-.09,17.89-.25,26.84a65.17,65.17,0,0,1-.8,6.76l-22.59-12.32-7.8,7c-9.87,7.68-19.78,15.3-29.55,23.1-1.34,1.07-1.94,3-2.89,4.61l-2.51.15c-1.54-2.2-2.95-4.51-4.64-6.58q-15.67-19.23-31.49-38.33c-1.37-1.65-3.38-2.78-5.09-4.15a23.14,23.14,0,0,1-1.2-4.64c-.3-5.41.05-10.89-.69-16.23-.5-3.58.35-6,3-8l29.65-23.4-8.09-26.84h-9.84c.09-2,.18-4,.26-6.05q2.92-6.87,5.84-13.73c3-3.86,5.77-7.78,6.35-12.82,0-1.07,0-2.15.05-3.22,3.76-3.19,5.61-6.88,3.13-11.73.15-1.16.31-2.31.56-4.23l-11.8.73c-.4,2.47-.4,4.4-1.06,6.07-.59,1.49-1.91,2.69-2.9,4,0-2.13.09-4.26.13-6.39Q2800.45,663,2800.55,646.09Z" transform="translate(-2197.95 -80.54)"/><path class="cls-20" d="M2989.88,779.64c-.11,1.77-.31,3.54-.32,5.31,0,5.08,0,10.16,0,15.25l-8.43,0c-2.85-1.41-1.79-4.26-2.39-6.49-.88-3.26-1.72-6.54-2.57-9.8-1.56-10-3-19.94-4.74-29.87-.73-4.23-2-8.36-3.08-12.53-.09-1,.17-2.24-.32-3-6-9-12.16-18-18.26-27l-1.13.64q1.68,5,3.35,10c-.53,3.25-1.5,6.51-1.51,9.76a127.66,127.66,0,0,0,.9,16.82c1.61,12.79,3.56,25.53,5.37,38.29.17,3.7.33,7.41.51,11.61l-6.66.78h-29.79c-.22-8.08-.44-15.92-.64-23.76.13-2.28.35-4.56.37-6.84.21-24.42.11-48.85.68-73.27.36-15.48,2.26-30.83,9.07-45.09,16.28,4.64,29.7,12.78,36.3,29.39.84,2.12,1.89,4.16,2.86,6.23q4.35,9.27,8.71,18.53a28.25,28.25,0,0,0,1.13,4.13c5,11.27,8.32,22.9,8.31,35.34a16.56,16.56,0,0,0,.79,3.58C2987.12,758.46,2988.54,769.05,2989.88,779.64Z" transform="translate(-2197.95 -80.54)"/><path class="cls-20" d="M2851.87,693.84c2.86,3.21,5.8,6.37,8.57,9.66s5.43,6.77,8.13,10.17c1.48,2.13,3,4.25,4.62,6.61,3.91-2.83,5.07-6.4,6-10,2.05-8.06,3.86-16.16,5.77-24.25,1.2-4.39,2.06-8.92,3.67-13.15,3.86-10.08,8.8-19.39,20.13-23-.22,5-.36,10-.68,15-.68,10.82-1.49,21.62-2.19,32.44q-1.71,26.52-3.33,53c-.51,8.52-.8,17.05-1.19,25.58-.53,5.79-1.33,11.58-1.48,17.39-.1,3.85-1.39,5.91-5.31,6l-7.31-.81c-.11-2.31-.3-4.54-.32-6.77-.08-10.83-.06-21.66-.22-32.49,0-2.82-.57-5.64-.94-9-2.08.58-3.44.85-4.72,1.33-4.23,1.58-4.47,1.6-7.05-2.3q-14.79-22.43-29.46-44.92c-1.27-2-3.46-3.92-1.67-6.74Z" transform="translate(-2197.95 -80.54)"/><path class="cls-3" d="M2901.34,776c.39-8.53.68-17.06,1.19-25.58q1.57-26.52,3.33-53c.7-10.82,1.51-21.62,2.19-32.44.32-5,.46-10,.68-15,1,.89,2.55,1.59,2.93,2.69,1.21,3.48,3.69,3.87,6.73,3.46,3.58-.36,4.3-3.24,5.22-5.94l6.72.42c-6.81,14.27-8.71,29.62-9.07,45.1-.57,24.42-.47,48.85-.68,73.27,0,2.28-.24,4.56-.37,6.84Z" transform="translate(-2197.95 -80.54)"/><path class="cls-3" d="M2943.6,895.36l-23.77-1.15c.4-6.44.74-12.9,1.23-19.33a265.27,265.27,0,0,1,3.43-29.35c1.7,4.36,3.5,8.68,5.1,13.08,3.5,9.59,6.85,19.25,10.38,28.83C2941,890.16,2942.38,892.73,2943.6,895.36Z" transform="translate(-2197.95 -80.54)"/><path class="cls-6" d="M2894.83,890.26h-4a119.49,119.49,0,0,1,2.37-25.75Z" transform="translate(-2197.95 -80.54)"/><path class="cls-21" d="M3710.36,835.82l-54.24-50.23-1.4.62-1.29,15.38H3639l2.55,58.65a34,34,0,0,1,16.15-.34v16.62Z" transform="translate(-2197.95 -80.54)"/><path class="cls-21" d="M3568.7,800.21l-2.6,0c-18,0-36,0-54-.12-2.42,0-4.82-.75-7.23-1.16-.26,2.37-1.31,3.79-4,3.7-3.72-.13-7.45-.07-11.17-.14-2.33,0-4.69-.14-5.61,2.67-1,3-3,6,.12,9.15,3.51,3.48,6.8,7.18,10.19,10.79L3471.53,844c-2.4-2.74-4.81-5.55-7.28-8.3-5.68-6.31-5.69-6.3-13.58-2.44-.17.08-.28.28-.68.71-.35,5.42-.73,11.13-1.13,17.36L3420,849.81c0-2.87-.12-5.3,0-7.71s.52-5,.89-7.43c.45-3-1.2-4.52-3.7-5.69s-4.59-2.05-6.9,0c-2.74,2.5-5.53,5-8.29,7.42a50.51,50.51,0,0,1,1.26,7.13c.2,4.92.06,9.85.06,15.53H3571c4.59,0,9.17-.06,13.76-.1q-2.43-29.44-4.85-58.9Z" transform="translate(-2197.95 -80.54)"/><path class="cls-21" d="M3612.5,815.08c-.43-11.42-.51-11.78-3.74-14.27-1.1,4.89-1,9.58-1.16,14.23h0q-1.36,22.11-2.75,44.21l13,.34c-.55-6.42-.92-12.86-1.7-19.25C3615.1,831.9,3613.72,823.5,3612.5,815.08Z" transform="translate(-2197.95 -80.54)"/><path class="cls-10" d="M2781.67,813.25l5.27-6.79c1.71,1.37,3.72,2.5,5.09,4.15q15.85,19.07,31.49,38.33c1.69,2.07,3.1,4.38,4.64,6.58-6.21,3.67-12.92,2.34-19.47,1.77-9.54-.82-19-1.33-28.52.49q.66-17.62,1.31-35.24C2781.59,819.44,2781.61,816.34,2781.67,813.25Z" transform="translate(-2197.95 -80.54)"/><path class="cls-9" d="M2750,859.88l-4,.16c.53-3.32,1-6.64,1.58-10h1.38Z" transform="translate(-2197.95 -80.54)"/><path class="cls-8" d="M2918.39,656.06c-3,.41-5.52,0-6.73-3.46-.38-1.1-1.92-1.8-2.93-2.69-11.33,3.62-16.27,12.93-20.13,23-1.61,4.23-2.47,8.76-3.67,13.15-.09-3.87-2.39-5.45-5.94-5.6-3.28-.14-6.58-.16-9.87-.24-5.2-.15-10.4-.25-15.6-.47-4.48-.19-4.94-.66-5.16-5.17-.13-2.7-.06-5.42-.06-8.13q-.15-87.86-.32-175.71c0-6-.79-12.06-.74-18.08.06-7.69.59-15.38.92-23.07,2.5,0,5-.08,7.51,0,7.5.21,15,.47,22.49.71,1.73.52,3.43,1.42,5.17,1.5,13.27.59,26.56,1,39.83,1.5,2.28.09,4.55.42,6.82.55,9.1.49,18.2.94,27.3,1.41,9.78.66,19.56,1.3,29.34,2a12,12,0,0,0,9.14-3c6.14-5.16,13.42-8.38,21-10.86,19.23-6.28,38.45-12.62,57.73-18.75,8-2.55,15.79-5.38,22.36-10.85a21.38,21.38,0,0,1,3.81-2.05l1.89-1.26-.06,0a26.78,26.78,0,0,1,3.11.11c4.49.68,5.18,2.23,2.73,6.26q-13.77,22.61-27.59,45.2c-.86,1.41-2,2.87-2.24,4.42-.83,6.4-5,10.38-9.89,13.6-6.4,4.17-11.73,9.65-18.56,13.43-9.53,5.27-10.94,12.7-5,24,2,3.7,5.73,6.43,8.68,9.6l2.49,1.2h0c.64,1.25,1,2.9,2,3.69,4.76,3.72,9.65,7.37,15.74,8.68,19.37,4.18,37.27,1.08,53.13-11.22q18-14,35.78-28.22c3.58-2.87,7.3-4.43,12-4.18,3.49.18,7-.63,10.54-.91,6.43-.51,12.4-.69,18.54,3.12,27.62,17.13,55.57,33.71,83.46,50.38,2,1.22,4.55,1.65,6.85,2.44l0,0,2.45,1.22.06,0c.17,2.42,1.79,2.66,3.71,2.47l0,0c.82.83,1.64,1.65,2.47,2.47l0,0,2.48,1.24h0l1.26,1.25h0l1.27,1.27v0c.25,2.26.4,4.53.76,6.77,3.34,20.92-9.56,39.13-28,45-3.45,1.09-7.37.8-11.08.94-3.52.14-7.05,0-10.57,0l-.31-.34.33.32a65.91,65.91,0,0,0,5.42,6c8.34,7.32,11.3,17.33,11.59,27.52.36,12.48-5.17,23.08-15.78,30.35-8.72,6-18.19,9.17-29,6.62-1.54-.36-3.24,0-5.83,0,.72,2.55,1.28,4.64,1.9,6.71a38.53,38.53,0,0,1-.35,24.54c-4.91,13.79-22.7,23.59-36.95,20.48a45.88,45.88,0,0,1-16.59-7,58.71,58.71,0,0,0-7.14-3.7l-.48-.18.39.28c2.57,7.3,4.78,14.66,3.84,22.56-.21,1.77-.52,3.52-1,6.48-6-5.67-10-12.3-18-12.86-5.67-6.06-11.62-11.65-20.42-12.7-.73-.09-1.38-.81-2.06-1.24.38-4.13,1.59-8.39,1-12.38-1.88-12.65-8.38-22-21-26.25l.06,0-1.48,0c-1.23-1.1-2.51-2.16-3.69-3.32a27.4,27.4,0,0,0-14.61-7.67,23.35,23.35,0,0,0-25.58,12.9,6.56,6.56,0,0,1-2.86,2.92,63.59,63.59,0,0,1-6.94,2.64c-1.83-2.52-3.85-4.92-5.46-7.58-5.65-9.36-13.07-16.14-24.44-17.44-7.78-.83-15.65-1.07-23.15-3.65-1.47-2.51-2.95-5-4.42-7.51A25.72,25.72,0,0,0,2985.61,651a64,64,0,0,1-21.91-18.24,391.39,391.39,0,0,1-23-31.88c-4.82-7.59-11.32-11.72-19.58-13-11.6-1.79-20.61,2.06-24.58,13.14-2.59,7.24-1.65,14.24,1.72,21,.86,4.47,1.34,9.05,2.7,13.35,1.54,4.94,4.63,6.28,9.69,5.2l8.84-1.89c1.7,5,1.74,6.22.69,10.16C2919.54,651.23,2919,653.65,2918.39,656.06Z" transform="translate(-2197.95 -80.54)"/><path class="cls-3" d="M2957.28,455.26c-9.1-.47-18.2-.92-27.3-1.41-2.27-.13-4.54-.46-6.82-.55-13.27-.5-26.56-.91-39.83-1.5-1.74-.08-3.44-1-5.17-1.5,0-13.13-2.72-25.58-9.81-36.79-5.39-8.52-12-15.84-21.32-20.29a20,20,0,0,0-3.39-2.7c-11.06-5.39-22.68-8.24-35-6.66-5.74.73-11.39,2.23-17.08,3.38a63.48,63.48,0,0,0-20.93,13.44c-6.25,6.15-12.3,12.55-14.31,21.56l-38.79,0-5.26-.7c2.31-5.89,3.93-11.9,3.23-18.33l.19-.13,1-1.13c6-12.19,16.61-41.09,16.8-46.26-2-.16-4.09-.27-6.14-.48q-10.49-1-21-2.16l38.59-33.44c9,10.21,17.55,19.85,25.89,29.3,6.37-2.12,12.24-4.12,18.15-6,2.16-.69,2.84-2.19,3-4.23q.51-7.15,1.1-14.32c.54-6.58,1.11-13.16,1.71-20.25,2.54,0,4.57-.07,6.6,0,6.44.29,12.88.64,19.31,1l7.22,1.15,33.37,1.8.74,6c-.38.93-.75,1.87-1.12,2.8l-5.41,1.36c-.55,8.46-1.12,17-1.63,25.46-.14,2.2.39,4.08,2.65,5.18,4.85,2.35,9.64,4.82,15.06,7.55,9.67-8.4,19.54-17,29.9-25.95l40.64,46.4-30,26.37,7.36,20,38.77,2.57C2959.76,435.93,2957,445.56,2957.28,455.26Z" transform="translate(-2197.95 -80.54)"/><path class="cls-3" d="M3409.31,445.87c1.08,5.64,1.08,5.63,6.63,5.92,7.25.39,14.51.77,21.76,1.2,1.2.07,2.38.38,4.11.66v11.86c-5.12.82-10.22,1.79-15.36,2.42-14.65,1.81-29.32,3.5-44,5.18a31.77,31.77,0,0,1-4.36-.06q-.75-6.89-1.49-13.77a5.84,5.84,0,0,0,.08-1.85c-6.37-20.57-22.54-34.05-42-37-14.13-2.12-26.65,1.92-38.06,10.1-2.5-.87-5.21-1.37-7.45-2.68-10.22-5.95-20.37-12-30.4-18.28-6-3.72-11.63-7.89-17.42-11.86L3273,369.55l20.21,23.1c4.74-1.58,9.21-3.18,13.76-4.54,2.78-.83,3.28-2.86,3.45-5.27.44-6.65.88-13.3,1.36-19.95.13-1.82.37-3.64.62-6l47.91,3.64c0,2.4.09,4.63,0,6.85-.35,6.87-.69,13.74-1.23,20.59-.22,2.74.79,4.26,3.27,5.26a53.23,53.23,0,0,1,6.11,3.12c4.35,2.48,4.33,2.5,8-.66,6.6-5.71,13.21-11.4,20.16-17.4L3428.78,415l-24,20.66Z" transform="translate(-2197.95 -80.54)"/><path class="cls-6" d="M3101.46,281.76q-22.35-.15-44.7-.28c-8.06,0-16.11,0-24.55,0-.36-1.84-.67-3.4-1-5q.09-22.77.17-45.54c0-1.66,0-3.32.15-5a3,3,0,0,1,3.22-3.08c.83,0,1.66,0,2.49-.06,16-.49,32-.92,48-1.51,6-.22,12-.81,18-1.23-3,19.67-1,38.62,8.32,56.48a27.66,27.66,0,0,1,1.31,3.5l-4.42,2.22Z" transform="translate(-2197.95 -80.54)"/><path class="cls-6" d="M2936.16,308.85c0-4.38-.07-8.76-.08-13.14,0-2.54,1.29-3.85,3.85-3.87l3.13,0q35.07,0,70.13,0c2.44,0,4.88.26,7.73.41v55.17l-52.36,4.28q-2.54-19.81-5.07-39.63c-.21-1.62-.33-3.25-.56-5.46Z" transform="translate(-2197.95 -80.54)"/><path class="cls-6" d="M3040,349.31l-7.31-2.2V291.82l62.74-.28c-1.66,3.07-3.25,6.19-5,9.21-1.33,2.28-2.87,4.44-4.46,6.86,4.66,3,8.66,5.91,13,8.24,5,2.72,2.73,6.69,2.35,10.39s-2.47,5.22-6.16,5.64c-4.49.51-8.9,1.71-13.6,2.66.4,6.39.77,12.33,1.15,18.27-.23.18-.47.35-.71.51-.56-.61-1-1.51-1.7-1.78-9.52-3.63-16.58-10.79-24.41-16.85a9.6,9.6,0,0,0-1.87-.82Q3047,341.58,3040,349.31Z" transform="translate(-2197.95 -80.54)"/><path class="cls-6" d="M3136.46,307.06a14.76,14.76,0,0,1,3.37,1.18c10.92,7.16,22.64,12.13,35.71,13.71,1.66.2,3.19,1.4,4.78,2.14-2.94,12-5.88,24-8.87,36.25-8.11-1.56-15.34-3.26-22.67-4.25-5.87-.8-11.75-2.92-17.81-1.07-5.91-4.83-8.14-11.53-8.18-18.68-.05-10,2.76-19.21,10.75-26.11A38.2,38.2,0,0,0,3136.46,307.06Z" transform="translate(-2197.95 -80.54)"/><path class="cls-6" d="M2969.92,356.72c8.66-.29,17.33-.55,26-.86,8.06-.29,16.11-.62,24.94-1,.63,4.85,1.25,9.67,1.88,14.49-.35,4.27-3.26,7.09-5.77,10.13-2.37,2.87-4.29,7.29-7.26,8.18s-6.88-1.95-10.43-3c-9-2.59-18.05-5.07-27.75-7.78C2969.94,370.72,2968.89,363.83,2969.92,356.72Z" transform="translate(-2197.95 -80.54)"/><path class="cls-6" d="M2871.14,316.17V293.89c5.11-1.44,48.08-1.69,54.44-.32,2,5.29,1.77,10.87,1.34,16.47Z" transform="translate(-2197.95 -80.54)"/><path class="cls-6" d="M3190.45,398.89l-5.11.23c-1-4.88-2-9.75-3.14-15.05a23,23,0,0,1,2.06-1.72c8.16-5.58,8.17-5.58,15.35,1.59Q3195,391.41,3190.45,398.89Z" transform="translate(-2197.95 -80.54)"/><path class="cls-6" d="M3216.43,338.09c-.36,2.76-.65,5.53-1.09,8.28-.34,2.17-.86,4.32-1.31,6.47l-4.18-.3C3208.46,344,3210.37,340,3216.43,338.09Z" transform="translate(-2197.95 -80.54)"/><path class="cls-6" d="M3181.52,354.5c1.85-7.51,3.65-15,5.59-22.53.15-.6,1.17-1,1.79-1.47C3189.44,339.42,3188.27,347.82,3181.52,354.5Z" transform="translate(-2197.95 -80.54)"/><path class="cls-3" d="M3151.43,391.71l-13.91,2.53C3141,387.77,3144,387.24,3151.43,391.71Z" transform="translate(-2197.95 -80.54)"/><path class="cls-21" d="M3108.46,282.32l4.42-2.22,6.22,8.84c-1.4-.34-3-.34-4.16-1.11A84.24,84.24,0,0,1,3108.46,282.32Z" transform="translate(-2197.95 -80.54)"/><path class="cls-6" d="M2862,314.09c.46.87.93,1.74,1.4,2.61l-2.52.19C2861.27,316,2861.64,315,2862,314.09Z" transform="translate(-2197.95 -80.54)"/><path class="cls-6" d="M3082.7,352.81l1.18,2.28-.86.44-1-2.21C3082.23,353.16,3082.47,353,3082.7,352.81Z" transform="translate(-2197.95 -80.54)"/><path class="cls-3" d="M3155.43,392.61l-.36-.06h-.35A.42.42,0,0,1,3155.43,392.61Z" transform="translate(-2197.95 -80.54)"/><path class="cls-3" d="M3137.7,394.19l-1.76,1.09Z" transform="translate(-2197.95 -80.54)"/><path class="cls-16" d="M3102.56,410.49l-1.89,1.26Z" transform="translate(-2197.95 -80.54)"/><path class="cls-3" d="M3135.15,215.05c9.43-1.38,18.88-2.65,28.29-4.16,5.31-.86,5.85-1.06,7.2,4,3.39,12.84,6.48,25.78,9.48,38.72.89,3.82,1.1,7.8,1.62,11.71-2.41,3.89-4.87,7.75-7.22,11.67-1.62,2.71-3.28,4.31-7,3.6s-6.28-2-7.18-5.75-1.71-7.3-2.52-11c-.44-2-1.21-4.05-3.49-3.62-5.4,1-11.21,1.09-15.51,5.36-6.11-7.49-7.64-16.61-8.23-25.72C3130,231.41,3131,222.86,3135.15,215.05Z" transform="translate(-2197.95 -80.54)"/><path class="cls-6" d="M3112.68,193.26c-1.58-5.81-2.68-11.81-4.87-17.39-3.59-9.11-7.89-17.94-11.89-26.89l-2.75-6.19,27.66-7.49,11.88,13.12c3.22,3.56,6.47,7.08,9.6,10.71a14.92,14.92,0,0,1,1.64,3.21c-11.46,7.16-21.21,16.09-28.5,27.58A33.6,33.6,0,0,1,3112.68,193.26Z" transform="translate(-2197.95 -80.54)"/><path class="cls-10" d="M3138.8,265.65c4.3-4.27,10.11-4.34,15.51-5.36,2.28-.43,3.05,1.66,3.49,3.62.81,3.66,1.66,7.31,2.52,11s3.46,5,7.18,5.75,5.4-.89,7-3.6c2.35-3.92,4.81-7.78,7.22-11.67l8.17,1.26c1.9,2.12,3.52,4.59,5.74,6.28,4,3,8.28,5.57,12.45,8.31-1.26,2.69-2.47,5.39-3.8,8-.88,1.76-1.91,3.44-2.88,5.15-24.79,6-49.83-7.11-61.94-26.4A8.82,8.82,0,0,1,3138.8,265.65Z" transform="translate(-2197.95 -80.54)"/><path class="cls-3" d="M3194.09,178.77c.67,2.14,1.26,4.31,2,6.4s1.74,4.08,2.78,6.47l-24.7,7-9-14.76C3174.23,178.77,3184,177.62,3194.09,178.77Z" transform="translate(-2197.95 -80.54)"/><path class="cls-2" d="M3329.23,292.79c1.66-4.07,5.63-5.17,9.06-6.86,2.75-1.35,5.71-2.27,8.58-3.39l3.61.36c1.42,6.37,2.92,12.73,4.25,19.11.49,2.37.6,4.82.89,7.24-2.22-1-4.63-1.71-6.64-3C3342.32,301.87,3335.8,297.29,3329.23,292.79Z" transform="translate(-2197.95 -80.54)"/><path class="cls-3" d="M3161.41,185.51c.35,2.62.5,5.29,1.1,7.85a72.41,72.41,0,0,0,2.59,7.38c-7.09,1.49-13.47,2.93-19.89,4.08-1.22.22-2.64-.72-4-1.12C3146.08,195.55,3153.06,189.77,3161.41,185.51Z" transform="translate(-2197.95 -80.54)"/><path class="cls-22" d="M3537.1,394.3l-7.58,5.52c-3.28-2.13-3.44-5.87-4.62-9.07l11.72-5.4Z" transform="translate(-2197.95 -80.54)"/><path class="cls-5" d="M3561.13,251.56l-1.69-1.39Z" transform="translate(-2197.95 -80.54)"/><path class="cls-6" d="M3021.54,276.49c-.28,1.41-.57,2.82-1,4.77-2.25.13-4.48.35-6.72.36-16.84.08-33.69.06-50.54.21q-11.22.1-22.42.77c-3.73.22-5.42-1.27-5.56-4.85.59-9.56,1.09-19.12,1.8-28.66a193.72,193.72,0,0,1,4.75-30.14l78.94,4.61C3021.07,241.58,3021.3,259,3021.54,276.49Z" transform="translate(-2197.95 -80.54)"/><path class="cls-6" d="M2927,272.73l-1.41,8.49c-4.33,1.68-47.46,2.18-55.2.61V270.22c2.47-24.59,8.21-49.82,13.77-59.83l47.83,7.54c-1.21,9.39-2.62,18.35-3.44,27.36S2927.49,263.58,2927,272.73Z" transform="translate(-2197.95 -80.54)"/><path class="cls-6" d="M2862.27,264c-.6,5.91-1.2,11.81-1.83,18a44.52,44.52,0,0,1-5,.61c-7.42.08-14.85.09-22.28.08-2,0-4.3.43-5-2.41,1.72-18.38,4.39-36.57,10.18-54.19q2.41-7.37,4.85-14.72l1.62-4.93,2.18-3.6c8.6,2.16,17.66,3.15,26.91,6.64-1.29,4.56-2.43,8.72-3.65,12.86A202,202,0,0,0,2862.27,264Z" transform="translate(-2197.95 -80.54)"/><path class="cls-11" d="M2954.85,168.9l1.12-1.38Z" transform="translate(-2197.95 -80.54)"/><path class="cls-11" d="M2944.76,201.5l.69-1.27Z" transform="translate(-2197.95 -80.54)"/><path class="cls-6" d="M3075.09,117.23c-5.24-6.61-10.19-13.5-18-17.54-.54-.28-.53-1.65-.77-2.52,2.4.66,4.84,1.19,7.18,2,14.5,4.89,27.62,12.47,40.29,20.91l8.92,8.46c-7.66,2.51-14.5,4.78-21.35,7-2.7.88-3.59-1.27-4.81-2.92C3082.77,127.47,3078.92,122.35,3075.09,117.23Z" transform="translate(-2197.95 -80.54)"/><path class="cls-2" d="M2756.3,422.24c2-9,8.06-15.41,14.31-21.56a63.29,63.29,0,0,1,20.93-13.43c1.71,1.14,3.51,2.17,5.13,3.43,7,5.5,14,11,20.9,16.63,2.41,2,4.41,2.53,7.11.34s5.57-3.59,8.36-5.38c4.67-3,9.32-6,14-9,9.31,4.45,15.93,11.77,21.32,20.29,7.09,11.21,9.8,23.66,9.81,36.79-7.49-.24-15-.5-22.49-.71-2.5-.07-5,0-7.51,0-.29-4.11-.57-8.22-.9-12.93l-42.69-1.34V422.76c-2.1-.16-3.49-.37-4.87-.36-13.24.13-26.48.3-39.73.4A22.33,22.33,0,0,1,2756.3,422.24Z" transform="translate(-2197.95 -80.54)"/><path class="cls-15" d="M2800.55,646.09q-.11,16.93-.22,33.88a14.45,14.45,0,0,1-.92-3.54q-.07-13.41.11-26.83A13.23,13.23,0,0,1,2800.55,646.09Z" transform="translate(-2197.95 -80.54)"/><path class="cls-14" d="M2712.17,422.19a.45.45,0,0,1,.07-.61l5.27.7Z" transform="translate(-2197.95 -80.54)"/><path class="cls-14" d="M2284.44,421.85c1.24-1.37,2.49-1.38,3.74,0Z" transform="translate(-2197.95 -80.54)"/><path class="cls-14" d="M2279.43,421.86h0Z" transform="translate(-2197.95 -80.54)"/><path class="cls-15" d="M2796,693.94l-1.51,1.22Z" transform="translate(-2197.95 -80.54)"/><path class="cls-18" d="M3294.28,552.11c-2.3-.79-4.81-1.22-6.85-2.44-27.89-16.67-55.84-33.25-83.46-50.38-6.14-3.81-12.11-3.63-18.54-3.12-3.52.28-7,1.09-10.54.91-4.71-.25-8.43,1.31-12,4.18q-17.79,14.24-35.78,28.22c-15.86,12.3-33.76,15.4-53.13,11.22-6.09-1.31-11-5-15.74-8.68-1-.79-1.34-2.44-2-3.69,5.32.83,10.63,2.19,16,2.38,17.43.63,32.58-5.55,46.12-16.25,12.25-9.69,24.65-19.19,36.92-28.85a18,18,0,0,1,10.95-3.77c7.27-.3,14.54-.94,21.75-1.91,6.39-.85,11.66-.39,17.27,4.08,15.47,12.32,31.71,23.68,47.6,35.47q18.57,13.77,37,27.72C3291.56,548.51,3292.81,550.46,3294.28,552.11Z" transform="translate(-2197.95 -80.54)"/><path class="cls-2" d="M3296.61,430.56c11.41-8.18,23.93-12.22,38.06-10.1,19.48,2.92,35.65,16.4,42,37a5.84,5.84,0,0,1-.08,1.85c-5.45,2.1-10.69,4.55-14.76,8.93a33.63,33.63,0,0,1-4-1.66q-29.59-16.87-59.12-33.84A11.09,11.09,0,0,1,3296.61,430.56Z" transform="translate(-2197.95 -80.54)"/><path class="cls-18" d="M3300.53,555.88c-1.92.19-3.54,0-3.71-2.47Z" transform="translate(-2197.95 -80.54)"/><path class="cls-18" d="M3303.05,558.38c-.83-.82-1.65-1.64-2.47-2.47C3301.4,556.74,3302.22,557.56,3303.05,558.38Z" transform="translate(-2197.95 -80.54)"/><path class="cls-18" d="M3296.76,553.37l-2.45-1.22Z" transform="translate(-2197.95 -80.54)"/><path class="cls-18" d="M3305.56,559.65l-2.48-1.24Z" transform="translate(-2197.95 -80.54)"/><path class="cls-18" d="M3056.23,528.32l-2.49-1.2Z" transform="translate(-2197.95 -80.54)"/><path class="cls-8" d="M3431.9,522.76l-1.84-.43Z" transform="translate(-2197.95 -80.54)"/><path class="cls-18" d="M3306.83,560.91l-1.26-1.25Z" transform="translate(-2197.95 -80.54)"/><path class="cls-18" d="M3308.08,562.17l-1.27-1.27Z" transform="translate(-2197.95 -80.54)"/><path class="cls-16" d="M3128.83,728.59c.68.43,1.33,1.15,2.06,1.24,8.8,1,14.75,6.64,20.42,12.7,6.33,12.59,6.16,24.94-.66,37.42-2.46,4.5-3.56,9.72-5.45,14.55-2.41,6.14-6,11.33-12.09,14.46-1.2.62-2.05,1.93-3.06,2.93-13.72,4.47-27.34.77-36.62-10.15-2.27-2.67-4.1-5.72-6.14-8.6-.68-6.95-1.44-13.89.25-20.8l7.34-18.31-4.74,4.21c-.43,1.08-.87,2.17-1.31,3.25h.2c-3.44,0-4.34,3-5.76,5.12A31.31,31.31,0,0,1,3071,777c-12.8,6.48-26.2,1.27-32.89-5.72-4.1-4.28-7.22-9.5-10.78-14.3-.21-3.07-1-6.24-.5-9.19a44.11,44.11,0,0,1,7.19-18.4c6-8.47,11.89-17,17.62-25.66,1.17-1.77,1.38-4.16,2-6.27a63.59,63.59,0,0,0,6.94-2.64,6.56,6.56,0,0,0,2.86-2.92,23.35,23.35,0,0,1,25.58-12.9,27.4,27.4,0,0,1,14.61,7.67c1.18,1.16,2.46,2.22,3.69,3.32l1.48,0-.06,0c.76,2.34,1.64,4.65,2.26,7,1,4,2.13,8,2.82,12,1.37,8-2.92,14.43-6.3,21.1-1,2-1.67,4.15-2.48,6.23l-.36.32.32-.35C3112.5,732.21,3120.21,729,3128.83,728.59Z" transform="translate(-2197.95 -80.54)"/><path class="cls-2" d="M3153.91,827.83a45.3,45.3,0,0,1,2.57-28.84l3.58-7.09c2.44-4.11,3.08-4.37,6.38-1.87,5.47,4.15,11,8.28,16.21,12.69,8.17,6.85,17,9.7,27.06,4.72,10.57-5.25,17.17-13.57,18.1-25.72.2-2.49.25-5,.37-7.47,21.7,12,27.75,35.63,25.24,51.57-3.85,24.57-24.36,40.1-42.52,42.28-1.43.17-2.85.49-4.27.75,1.47-6.16,6.54-9.39,10.81-13.25,3.1-2.8,3.42-3.86,1.08-7.26-1.53-2.21-3.35-4.22-4.94-6.39-6.74-9.21-13.4-18.47-20.17-27.66-3.49-4.73-4.77-4.85-9.77-2.17C3173.76,817.42,3163.82,822.6,3153.91,827.83Z" transform="translate(-2197.95 -80.54)"/><path class="cls-9" d="M3160.06,791.9l-3.58,7.09c0-1-.05-1.91-.08-2.87C3157.29,794.42,3157.22,791.9,3160.06,791.9Z" transform="translate(-2197.95 -80.54)"/><path class="cls-18" d="M3022,744.92c.53-3.81,1.24-7.6,1.49-11.42.11-1.65-.73-3.36-1.14-5,1-.71,2.07-1.4,3.07-2.15,8.45-6.33,13.8-14.18,13.38-25.32a28.14,28.14,0,0,0-5-15.2c-3.14-4.57-6.65-8.88-10-13.31,11.37,1.3,18.79,8.08,24.44,17.44,1.61,2.66,3.63,5.06,5.46,7.58-.65,2.11-.86,4.5-2,6.27-5.73,8.65-11.63,17.19-17.62,25.66a44.11,44.11,0,0,0-7.19,18.4c-.51,2.95.29,6.12.5,9.19l-2.31-3Q3023.55,749.48,3022,744.92Z" transform="translate(-2197.95 -80.54)"/><path class="cls-17" d="M2981.17,800.22l8.43,0c1.39,3,3.24,5.89,4,9a11.24,11.24,0,0,1-.78,7.09c-1.84,3.72-4.76,3.43-6.86-.3-2.68-4.74-2.68-4.74-6.16-5.66C2980.26,807,2980.72,803.63,2981.17,800.22Z" transform="translate(-2197.95 -80.54)"/><path class="cls-14" d="M3012.59,765.35l1.27-1.18Z" transform="translate(-2197.95 -80.54)"/><path class="cls-10" d="M2863.11,827.66v30c-4.5.06-8.4.27-12.28.12-5.81-.23-11.61-.67-17.41-1.15a9.18,9.18,0,0,1-2.75-1.27c.95-1.56,1.55-3.54,2.89-4.61C2843.33,843,2853.24,835.34,2863.11,827.66Z" transform="translate(-2197.95 -80.54)"/><path class="cls-17" d="M2851.87,693.84l-9,3.83c-2.35-2.35-4.76-4.63-7-7.06a8.56,8.56,0,0,1-1.84-3.22c-1.68-5.63,1.91-9.53,7.63-8.39s9.14,4.67,10,10.48C2851.87,690.91,2851.8,692.39,2851.87,693.84Z" transform="translate(-2197.95 -80.54)"/><path class="cls-7" d="M2898.26,622c-3.37-6.77-4.31-13.77-1.72-21,4-11.08,13-14.93,24.58-13.14,8.26,1.27,14.76,5.4,19.58,13a391.39,391.39,0,0,0,23,31.88A64,64,0,0,0,2985.61,651a25.72,25.72,0,0,1,10.63,10.33c1.47,2.5,3,5,4.42,7.51.44,1.6,1,3.18,1.3,4.81.95,5.51,2.44,11,2.5,16.57.08,6.56-1.61,8.14-8.12,10-6,1.69-12.09,3-18.14,4.52q-4.35-9.27-8.71-18.53c-1-2.07-2-4.11-2.86-6.23-6.6-16.61-20-24.75-36.3-29.39l-6.72-.43c.36-7.89.63-15.78,1.11-23.65.2-3.19-.65-5.14-3.54-7.11-4.24-2.89-7.84-6.74-11.56-10.35a46.36,46.36,0,0,1-4.08-5.28C2900.69,609.32,2900.31,616,2898.26,622Z" transform="translate(-2197.95 -80.54)"/><path class="cls-16" d="M2978.2,704.7c6.05-1.49,12.14-2.83,18.14-4.52,6.51-1.84,8.2-3.42,8.12-10-.06-5.53-1.55-11.06-2.5-16.57-.28-1.63-.86-3.21-1.3-4.81,7.5,2.58,15.37,2.82,23.15,3.65,3.34,4.43,6.85,8.74,10,13.31a28.14,28.14,0,0,1,5,15.2c.42,11.14-4.93,19-13.38,25.32-1,.75-2,1.44-3.07,2.15-7.36,4.66-14.63,9.48-22.13,13.9-3.72,2.19-7.87,3.62-11.83,5.39a16.35,16.35,0,0,1-.79-3.57c0-12.44-3.33-24.07-8.31-35.34A28.25,28.25,0,0,1,2978.2,704.7Z" transform="translate(-2197.95 -80.54)"/><path class="cls-16" d="M2968.39,741.53c-2-1.75-4.26-3.27-5.9-5.29-3.66-4.52-7-9.29-10.46-14-1.11-3.35-2.23-6.68-3.35-10l1.13-.64c6.1,9,12.24,17.93,18.26,27C2968.56,739.29,2968.3,740.52,2968.39,741.53Z" transform="translate(-2197.95 -80.54)"/><path class="cls-16" d="M2898.26,622c2-6,2.43-12.7,7.28-18.29a46.36,46.36,0,0,0,4.08,5.28c3.72,3.61,7.32,7.46,11.56,10.35,2.89,2,3.74,3.92,3.54,7.11-.48,7.87-.75,15.76-1.11,23.65-.92,2.7-1.64,5.58-5.22,5.94.59-2.41,1.15-4.83,1.79-7.22,1.05-3.94,1-5.2-.69-10.16l-8.84,1.89c-5.06,1.08-8.15-.26-9.69-5.2C2899.6,631.07,2899.12,626.49,2898.26,622Z" transform="translate(-2197.95 -80.54)"/><path class="cls-18" d="M3105.11,736.34c.81-2.08,1.47-4.24,2.48-6.23,3.38-6.67,7.67-13.08,6.3-21.1-.69-4-1.78-8-2.82-12-.62-2.38-1.5-4.69-2.26-7,12.64,4.24,19.14,13.6,21,26.25.59,4-.62,8.25-1,12.38-8.62.41-16.33,3.62-23.76,7.72Z" transform="translate(-2197.95 -80.54)"/><path class="cls-18" d="M3108.87,690l-1.48,0Z" transform="translate(-2197.95 -80.54)"/><polygon class="cls-18" points="1061.26 534.25 1060.93 533.93 1061.24 534.27 1061.26 534.25"/><path class="cls-18" d="M3166.43,726.35l-.39-.28.48.18Z" transform="translate(-2197.95 -80.54)"/><path class="cls-6" d="M2829.45,292.81h30.64a59.9,59.9,0,0,1,1.19,15.27l-33.37-1.8Q2828.68,299.55,2829.45,292.81Z" transform="translate(-2197.95 -80.54)"/><path class="cls-17" d="M2715.67,403.12l1-1.13Z" transform="translate(-2197.95 -80.54)"/><path class="cls-3" d="M3208.1,281.2c-4.17-2.74-8.49-5.29-12.45-8.31-2.22-1.69-3.84-4.16-5.74-6.28-.47-5.77-.28-11.69-1.54-17.29-2.68-12-6.1-23.75-9.22-35.62-.41-1.57-.81-3.14-1.37-5.36l27-6.8c2.27,5.14,4.73,10.11,6.69,15.28a214.22,214.22,0,0,1,11.17,44.09c.68,4.52,1,9.09,1.35,13.64.3,4.13-.78,5.34-4.7,5.71C3215.54,280.62,3211.82,280.89,3208.1,281.2Z" transform="translate(-2197.95 -80.54)"/><path class="cls-23" d="M2674.27,397.93l2,.16Z" transform="translate(-2197.95 -80.54)"/><path class="cls-3" d="M3090.14,758.24l-1.3,3.25Z" transform="translate(-2197.95 -80.54)"/><polygon class="cls-18" points="907.13 655.77 906.8 656.13 907.16 655.8 907.13 655.77"/><path class="cls-24" d="M3136.75,265.65a9.2,9.2,0,0,0,.68,2.34c12.12,19.29,37.15,32.44,61.94,26.4a47,47,0,0,0,6.66-1.17c11.83-3.86,21.3-11.08,29.09-20.68,5.13-6.33,10.64-12.75,11.61-21,3-25.32-4-47.07-25.22-62.61-8.62-6.3-18.32-10.6-29.46-10.13-10.13-1.15-19.86,0-28.9,5.07l-3.78,1.67c-8.35,4.26-15.33,10-20.18,18.19l-6.09,11.35c-4.12,7.81-5.12,16.36-4.57,24.88C3129.11,249,3130.65,258.16,3136.75,265.65Z" transform="translate(-2197.95 -80.54)"/><rect class="cls-7" x="1312.99" y="340.56" width="607.01" height="334.45"/><rect class="cls-7" y="342.18" width="607.01" height="339.09"/><path class="cls-25" d="M3629.92,664c.83,1.14,2,2.16,2.44,3.44,3,8.74,5.82,17.53,8.7,26.31l-11.61,5.09c-2.78-.72-1.93,1.41-1.89,2.6q.6,23.7,1.35,47.38c0,.55.49,1.07.75,1.61l-1.23,2.51-39.88-.27L3586.9,750c.16-1.62.31-3.25.46-4.87l-.65-26.19c-.1-1.23-.19-2.46-.28-3.69l-1.77-25.93-.93,0-2.7,5.9-13.22-1.63c-1.12-7.16,1.86-13.5,4.23-19.9,1.56-4.2,4.61-7.31,8.37-9.84,5.89-4,12.45-5.67,19.39-6.35,1.26,4.25,2.33,8.59,5.78,13,1.77-4.47,3.24-8.17,4.7-11.87C3617.3,658.64,3623.55,661.52,3629.92,664Z" transform="translate(-2197.95 -80.54)"/><path class="cls-5" d="M3599.8,657.44c-6.94.68-13.5,2.38-19.39,6.35-3.76,2.53-6.81,5.64-8.37,9.84-2.37,6.4-5.35,12.74-4.23,19.91q-2.45,14.87-4.87,29.72a11.76,11.76,0,0,1-.42-3.07c.53-4.38-1.34-7.55-4.56-10.31a30.58,30.58,0,0,1-5.05-5.49c-4.68-6.64-5.83-13.16-2.79-21.51,7.66-21,18.8-40.24,29.34-59.8a60.11,60.11,0,0,0,3.29-7.38c3-8.12,8.74-14,15.57-19,5.51-4.05,11.53-3.75,17.21-1.49,3.71,1.48,5.16,5.67,6,9.61-1.68,1.95-2.15,3.65,1.1,4.22a19.31,19.31,0,0,0,3.64-.08c1.27,4,1.51,8.57,5.73,11.06-.85.45-1.67,1-2.55,1.33-2.27,1-2.92,2.43-1.53,4.6.23,8.2.36,16.4.74,24.59.2,4.49.81,9,1.24,13.43-6.37-2.45-12.62-5.33-19.64-5.44V643.66c7.6-4.94,10.26-12,9.91-20.5-.07-1.58-.37-3.52-1.33-4.64-4.13-4.83-8.54-9.41-13.3-14.58a29.12,29.12,0,0,1-12,13.31,5.71,5.71,0,0,0-2.49,3.9c-.36,6.6.41,13.26,5.15,18.16,3.15,3.24,3.93,6.54,3.69,10.62C3599.76,652.42,3599.83,654.93,3599.8,657.44Z" transform="translate(-2197.95 -80.54)"/><path class="cls-26" d="M3687.46,634.67h-23.74c-.12-10.21-5.85-17.7-11.5-25.19-7.36-9.78-7-20.07-1.67-30.37,3-5.73,8.38-9,14.46-10.8,10.19-3,20.21-3.46,28.89,4,10.23,8.83,12.43,24.15,5.36,35.79-1.19,2-2.5,3.84-3.84,5.69C3691,619.9,3687.07,626.17,3687.46,634.67Z" transform="translate(-2197.95 -80.54)"/><path class="cls-8" d="M3629.45,698.81l11.61-5.09,10.9,25.37,3.63-10.31c6.55.38,6.55.38,7.14,7l-.42,4.29-.09,1.16-.72,4.82,0-.22a50.38,50.38,0,0,1-1.36,5.31c-1.5,4.08-3.86,7.2-8.85,6.84a1.37,1.37,0,0,0-1.11-.45l0,0-1.26-1.23v0l-1.12-1.45.06.08c-.48-.77-1-1.55-1.45-2.32l-.07-.1c-.68-1.26-1.42-2.5-2.06-3.78Q3636.84,713.79,3629.45,698.81Z" transform="translate(-2197.95 -80.54)"/><path class="cls-16" d="M3662.73,715.79c-.59-6.63-.59-6.63-7.14-7,3.25-11.15,6.49-22.31,9.8-33.67a50.45,50.45,0,0,0,5.64-.39c1.6-.29,3.88-.53,4.54-1.6,2.7-4.41,6.65-3.24,10.52-3.22-1.44,7.62-3.9,9.26-15.64,10.38-1.77,9-3.49,18.14-5.37,27.24C3664.5,710.32,3663.53,713,3662.73,715.79Z" transform="translate(-2197.95 -80.54)"/><path class="cls-10" d="M3664.15,641.16c-.12-1.19-.24-2.38-.43-4.2h23v13l-22.55-.11c0-2.51,0-5,0-7.54h19.13l0-1.18Z" transform="translate(-2197.95 -80.54)"/><path class="cls-9" d="M3680.06,555.86c-.49-11.63.08-13.26,5.36-14-.76,4.43-1.39,8.59-2.29,12.71C3683,555.05,3681.51,555.27,3680.06,555.86Z" transform="translate(-2197.95 -80.54)"/><path class="cls-9" d="M3712,609.18c.71-1.22,1.2-2.74,1.65-2.73a20.53,20.53,0,0,1,13,4.64C3723.32,614,3723.32,614,3712,609.18Z" transform="translate(-2197.95 -80.54)"/><path class="cls-9" d="M3723.37,595.65c-1.43.14-2.91.61-4.25.34-1.13-.23-2.1-1.31-3.13-2,.87-.94,1.74-2.67,2.63-2.68a56.81,56.81,0,0,1,9.81.89c.63.1,1.31,1.42,1.46,2.27.07.42-1,1.41-1.59,1.49a38.37,38.37,0,0,1-4.92.07Z" transform="translate(-2197.95 -80.54)"/><path class="cls-9" d="M3625.3,568.11c6.12,2.13,10,5.49,11.8,9.74-1.44,1.9-3,1-4.22-.1C3630.07,575.12,3625.67,573.7,3625.3,568.11Z" transform="translate(-2197.95 -80.54)"/><path class="cls-9" d="M3707.1,616.77c4.23,2.11,7.9,3.87,11.47,5.81.46.25.61,1.43.54,2.14,0,.42-.77,1-1.27,1.1-2.16.45-10.61-4.11-11.44-6.2C3706.22,619.17,3706.66,618.48,3707.1,616.77Z" transform="translate(-2197.95 -80.54)"/><path class="cls-9" d="M3660.08,542c1.51.3,3.1.25,3.27.73,1.51,4.07,4.82,7.61,4.25,12.74-1.1-.08-2.08.14-2.6-.25C3663.41,554,3660.6,546.48,3660.08,542Z" transform="translate(-2197.95 -80.54)"/><path class="cls-6" d="M3617.52,588.41a25.57,25.57,0,0,1,13.61,2.33c.34.16.12,1.46.18,2.39-4.82,1.1-9-.53-13.29-1.79C3617.7,591.25,3617.75,589.88,3617.52,588.41Z" transform="translate(-2197.95 -80.54)"/><path class="cls-9" d="M3717.41,556c1.41,3.89-1.39,4.9-3.33,6-2.54,1.51-4.54,5.19-8.51,2.93C3707.37,561.1,3711.86,557.69,3717.41,556Z" transform="translate(-2197.95 -80.54)"/><path class="cls-6" d="M3627.94,626c-1.39-2.17-.74-3.63,1.53-4.6.88-.38,1.7-.88,2.55-1.33,1.85-.72,3.66-1.51,5.54-2.13,1.69-.56,2.72.22,3.09,1.92l-3.84,3.45Z" transform="translate(-2197.95 -80.54)"/><path class="cls-9" d="M3726.87,574.56c-3.58,5.08-8.95,5.4-14.54,7.62.7-2,.91-4.34,1.68-4.54C3718,576.57,3721.35,572.22,3726.87,574.56Z" transform="translate(-2197.95 -80.54)"/><path class="cls-6" d="M3649.78,561.36c-5.74-2.32-9.6-7.22-9.3-11.36C3645.13,551.37,3649.47,556.43,3649.78,561.36Z" transform="translate(-2197.95 -80.54)"/><path class="cls-6" d="M3626.29,609a19.31,19.31,0,0,1-3.64.08c-3.25-.57-2.78-2.27-1.1-4.22l3.4-.39,2.27-.59,7-.31C3633.75,609.43,3627.93,605.94,3626.29,609Z" transform="translate(-2197.95 -80.54)"/><path class="cls-6" d="M3693.51,556.8c1.93-4.59,3.89-9,8.6-12.25,2.17,5.06-2.12,7.4-3.51,10.66C3697.85,557,3696.48,558.3,3693.51,556.8Z" transform="translate(-2197.95 -80.54)"/><path class="cls-6" d="M3664.19,649.88l22.55.11c.77,1.23.77,2.22-.93,2.44a34.22,34.22,0,0,1-3.51.16l-13.21.08c-1.2-.06-2.54.19-3.55-.28C3664.85,652.07,3664.62,650.75,3664.19,649.88Z" transform="translate(-2197.95 -80.54)"/><path class="cls-9" d="M3682,654.87c.15,1,.29,2,.52,3.47h-12.37c-.15-.87-.36-2-.56-3.17Z" transform="translate(-2197.95 -80.54)"/><path class="cls-2" d="M3682,654.87l-12.41.3c-.16-.84-.31-1.67-.46-2.5l13.21-.08C3682.18,653.35,3682.07,654.11,3682,654.87Z" transform="translate(-2197.95 -80.54)"/><path class="cls-27" d="M3664.15,641.16h19.11l0,1.18h-19.13A1.24,1.24,0,0,1,3664.15,641.16Z" transform="translate(-2197.95 -80.54)"/><path class="cls-5" d="M3627.22,603.84l-2.27.59Z" transform="translate(-2197.95 -80.54)"/><path class="cls-16" d="M3661.48,725.84l0,.22Z" transform="translate(-2197.95 -80.54)"/><path class="cls-16" d="M3662.22,721.24l.09-1.16A1,1,0,0,1,3662.22,721.24Z" transform="translate(-2197.95 -80.54)"/><path class="cls-7" d="M3589.28,933.8c-.63-13.52-1.14-27-1.94-40.55-.68-11.42-1.7-22.82-2.56-34.23q-2.43-29.44-4.85-58.9l-.36-5,.72-8.91,2.19.23c1.9,1.89,3.73,3.85,5.71,5.64s3.87,3.18,7,1.62a33.07,33.07,0,0,0-1.31-4.76c-2.24-5.14-4.75-10.17-6.92-15.33-2-4.72-4.91-9.29-3.23-14.83l4.78-6.1,39.88.27c6.71,7.55,8.21,16.93,9.11,26.45.7,7.39,1,14.82,1.49,22.23l2.55,58.65c.11,6.86.2,13.71.36,20.57,0,2.28.34,4.56.42,6.85.55,16.63,1,33.27,1.66,49.9.15,3.94.75,7.86,1.15,11.79q0,6.25,0,12.51l-10-.11c-1.13-6.5-2.22-13-3.4-19.49-.48-2.65-1.16-5.26-1.74-7.89a53.19,53.19,0,0,0-.3-6.2q-3-18.74-6.29-37.43c-1.8-10.39-3.74-20.77-5.62-31.15-.55-6.42-.92-12.86-1.7-19.25-1-8.44-2.42-16.84-3.64-25.26-.43-11.42-.51-11.78-3.74-14.27-1.1,4.89-1,9.58-1.16,14.23q-1.36,22.11-2.75,44.21c-.45,7-.92,14.07-1.35,21.1q-1.53,24.52-3,49l-1.65,32.18-8.78-.88Q3589.66,947.25,3589.28,933.8Z" transform="translate(-2197.95 -80.54)"/><path class="cls-7" d="M3651.29,988.17l8.55,5.18c0,.3-.07.61-.11.91-4.42,0-8.86.19-13.26-.14-1-.07-2.1-1.77-2.87-2.91-1.47-2.18-2.73-4.5-4.32-7.16-3,3.49-.05,7.87-3.68,11.74-1.63-9.75-.17-18.48-.43-27.14,1.59,1.59,3.46,3,4.7,4.81,2.34,3.43,4.35,7.08,6.43,10.69C3647.46,986.16,3648.46,988.27,3651.29,988.17Z" transform="translate(-2197.95 -80.54)"/><path class="cls-8" d="M3590.05,960.69l8.78.88q.38,5.8.76,11.61c.14,2.25.27,4.51.41,6.76l-5.27,4-5.9-5.28Q3589.43,969.68,3590.05,960.69Z" transform="translate(-2197.95 -80.54)"/><path class="cls-8" d="M3651.29,988.17c-2.83.1-3.83-2-5-4-2.08-3.61-4.09-7.26-6.43-10.69-1.24-1.83-3.11-3.22-4.7-4.81,0-2.3,0-4.6,0-6.9l10,.11Q3648.24,975,3651.29,988.17Z" transform="translate(-2197.95 -80.54)"/><path class="cls-7" d="M3588.83,978.66l5.9,5.28,5.27-4v14.24c-3.92,2.1-7.43,1.43-11.17,0Z" transform="translate(-2197.95 -80.54)"/><path class="cls-7" d="M3580.3,775.15c3.32,3.25,1.68,7.46,2.18,11.25l-2.19-.23C3580.29,782.49,3580.3,778.82,3580.3,775.15Z" transform="translate(-2197.95 -80.54)"/><path class="cls-16" d="M3599.8,657.44c0-2.51,0-5,.11-7.51.24-4.08-.54-7.38-3.69-10.62-4.74-4.9-5.51-11.56-5.15-18.16a5.71,5.71,0,0,1,2.49-3.9,29.12,29.12,0,0,0,12-13.31c4.76,5.17,9.17,9.75,13.3,14.58,1,1.12,1.26,3.06,1.33,4.64.35,8.45-2.31,15.56-9.91,20.5v14.87c-1.46,3.7-2.93,7.4-4.7,11.87C3602.13,666,3601.06,661.69,3599.8,657.44Z" transform="translate(-2197.95 -80.54)"/><path class="cls-5" d="M3586.43,715.22l-4.45-2.54-5.2,3.51q2.13-10.52,4.25-21l2.7-5.9.93,0Z" transform="translate(-2197.95 -80.54)"/><path class="cls-8" d="M3567.7,692.77l-3.15,19.32s-3.33,18.16-2.78,21.19,1.87,6.56,11.85,27.37,7.3,15.11,7.3,15.11,2.75,5.19,1.46,10.49,10.9,10.37,12.74,7.31-18-47.67-18-47.67-5-9.62-2.1-23.2,5.86-28.29,5.86-28.29Z" transform="translate(-2197.95 -80.54)"/><path class="cls-28" d="M3511.21,450.54c-5,1.33-6.57,4.58-6.44,9.71.59,22,.87,44.07,1.13,66.1,0,2.18,1.5,5.23-2.23,6.2l-7.73-.12-5.68-.82c-2.16-17.31-4.3-34.4-6.43-51.5l-1.36-.3-21.33,33.53-.2.29-1.27,2c-1.43,1.71-2.89,3.39-4.26,5.14-2,2.53-3.92,5.1-5.87,7.66l-9.7-10.52c.43-2.17.44-4.54,1.35-6.47,4-8.37,8.28-16.59,12.36-24.91,2.17-4.42,4.13-8.93,6.19-13.4.41-.83.82-1.66,1.24-2.48l-.05.09c1.27-2.54,2.53-5.08,3.8-7.61l-.07.08,9.4-17.64,4-7.63c.79-.17,1.91-.05,2.32-.54,4.51-5.28,9.22-10.5,9.24-18.09,11.13-1.3,22.25-2.75,33.4-3.86,17.37-1.72,34.76-3.21,52.14-4.82,2-.18,4.33.18,5.05-2.56a19.21,19.21,0,0,0,4.1.38c4.45-.53,8.87-1.25,13.31-1.9l0,20.4c-9.45,6.25-19.37,11.14-30.91,12.44-15.94,1.79-31.82,4.06-47.71,6.23C3515.77,446.11,3512.31,446.54,3511.21,450.54Z" transform="translate(-2197.95 -80.54)"/><path class="cls-15" d="M3537.32,368c.43-17.7,1.13-35.4,1.15-53.1,0-6.81,2.82-11.51,7.8-15.37,3.62-2.81,7.41-5.37,11.13-8.05l2.64.84c1.37,3.87,2.32,8,4.23,11.56,2.08,3.91,6.2,4.16,9.33,1.05,2.6-2.59,4.12-5.71,3.4-9.51-.58-3-1.28-6-1.92-9L3590.7,292q7.41,5.67,14.83,11.35c3.38,2.6,4.64,5.91,4.41,10.29-.32,6,.08,12,.17,18.07-.09,21.45-.31,42.9-.16,64.34,0,4.16-1.13,6.73-5,8l-7.38,2.53c-4.43.65-8.85,1.37-13.3,1.9a19.21,19.21,0,0,1-4.1-.38l-1.47-5.43c-.45-3.64,2.64-4.32,4.83-5.74,8.32-1.56,10.81-.65,13.24-13.45.15-.82.38-1.62.51-2.45q3.64-23.12,7.25-46.26c.24-1.58.22-3.21.36-5.3l-16.79,3.29c-1.4,8.7-2.77,17.12-4.09,25.54s-1.76,17.29-4.11,25.32c-11.84,3.37-23,6.64-34.23,9.67-2.75.74-5.71.68-8.57,1l-.48-8.95Q3537,376.68,3537.32,368Z" transform="translate(-2197.95 -80.54)"/><path class="cls-23" d="M3529.82,250.44a28.86,28.86,0,0,0-4.84-2.63c-5-1.61-7.72-5.14-8.86-10.09l8.88-11c4.8-1.94,9.43-3.34,13.78,1.27.89,1,3.1.93,4.7.9,2.28,0,4.54-.61,6.82-.74,4.21-.23,7.7.81,10,5a12,12,0,0,0,4.73,4.7,7.49,7.49,0,0,1,4.47,6.89q.2,4.36.37,8.72l-6-.11L3561,251.5l.1.06-1.7-1.39a18.64,18.64,0,0,1-2.35-2c-5.8-6.63-12.73-4.29-17.45-.08a38.31,38.31,0,0,0-3.55,4.24l-3.84.4-1.42-1.41Z" transform="translate(-2197.95 -80.54)"/><path class="cls-8" d="M3536.08,252.37a38.31,38.31,0,0,1,3.55-4.24c4.72-4.21,11.65-6.55,17.45.08a18.05,18.05,0,0,0,2.36,2l1.69,1.39-.1-.06q2.38,7.46,4.75,14.92l-5.92,7a48.4,48.4,0,0,0-4.78-3.64c-1.93-1.11-4-2.08-5.86.34l-6.06,1.52-3.46-4c-.66-1.95-1.33-3.91-2-5.87C3537.16,258.68,3536.62,255.53,3536.08,252.37Z" transform="translate(-2197.95 -80.54)"/><path class="cls-17" d="M3575.08,286.41c.64,3,1.34,6,1.92,9,.72,3.8-.8,6.92-3.4,9.51-3.13,3.11-7.25,2.86-9.33-1.05-1.91-3.59-2.86-7.69-4.23-11.55.43-1.31.45-3.14,1.35-3.84,3-2.32,3.84-5.64,5.07-8.86.94-2.46,2-4.9,2.94-7.35l3.08,4.19Q3573.77,281.46,3575.08,286.41Z" transform="translate(-2197.95 -80.54)"/><path class="cls-23" d="M3569.4,272.3c-1,2.45-2,4.89-2.94,7.35-1.23,3.22-2.1,6.54-5.07,8.86-.9.7-.92,2.53-1.35,3.84l-2.64-.85c-4.6-1.32-9.3-2.52-10.08-8.41l.33-5.13c1.95-.5,4.61.29,5.45-3.22l-6.73-.89,2.85-3.71c1.81-2.42,3.93-1.45,5.86-.34a48.4,48.4,0,0,1,4.78,3.64l5.92-7,3.59.07a1.44,1.44,0,0,1,.47-.48Q3569.63,269.15,3569.4,272.3Z" transform="translate(-2197.95 -80.54)"/><path class="cls-8" d="M3569.84,266a1.44,1.44,0,0,0-.47.48q-2.76-6.59-5.5-13.16l6,.11C3572.05,257.62,3570.64,261.81,3569.84,266Z" transform="translate(-2197.95 -80.54)"/><path class="cls-5" d="M3536.08,252.37c.54,3.16,1.08,6.31,1.63,9.47-2.7.31-3.61-1.61-4.26-3.61a54.65,54.65,0,0,1-1.21-5.46Z" transform="translate(-2197.95 -80.54)"/><path class="cls-15" d="M3467,555.82c.13-1.51.25-3,.38-4.55,9.41-3.78,19.66-5.85,27.16-13.46l1.51,4.8,9.82-1.75c2.62.17,3.54,1.87,3.59,4.2.07,2.9,0,5.8,0,9.31-3.2.27-6.62.57-10,.83-8.7.68-17.39,1.46-26.1,1.92C3471.22,557.23,3469.08,556.28,3467,555.82Z" transform="translate(-2197.95 -80.54)"/><path class="cls-8" d="M3505.84,540.86l-9.82,1.75-1.51-4.8c.48-1.79.95-3.58,1.43-5.38l7.73.12Q3504.75,536.71,3505.84,540.86Z" transform="translate(-2197.95 -80.54)"/><path class="cls-3" d="M3578.7,402.69l1.47,5.43c-.72,2.74-3.06,2.38-5.05,2.56-17.38,1.61-34.77,3.1-52.14,4.82-11.15,1.11-22.27,2.56-33.4,3.86l-8.62,1.06c-1.14-.64-2.94-1-3.33-2-6.82-16.75-13.47-33.58-20.13-50.4a15,15,0,0,1-.45-2.77l55.81-5.52,9.18,23.67c.95,2.44,1.91,4.87,2.86,7.31,1.18,3.2,1.34,6.94,4.62,9.08,1.4,6.15,2.2,6.85,8.09,6.9,1.64,0,3.28-.14,4.92-.22ZM3494,395.36c3.07-4.67,2.48-7.37-2.28-10.4A9.11,9.11,0,0,0,3494,395.36Z" transform="translate(-2197.95 -80.54)"/><path class="cls-8" d="M3449.54,528.48l-7.58,7.44-8.45-6.7c.4-2.12.76-4.05,1.13-6l5.2-5.28Z" transform="translate(-2197.95 -80.54)"/><path class="cls-8" d="M3524.9,390.75c-1-2.44-1.91-4.87-2.86-7.31,4-4.21,8-8.43,12.07-12.61,1-1,2.13-1.88,3.21-2.81q-.36,8.66-.7,17.33Z" transform="translate(-2197.95 -80.54)"/><path class="cls-23" d="M3547.65,278l-.33,5.13a26.49,26.49,0,0,1-2.46-4.39,72.15,72.15,0,0,1-1.69-7l6-1.52-2.85,3.71C3546.8,275.22,3547.23,276.59,3547.65,278Z" transform="translate(-2197.95 -80.54)"/><path class="cls-8" d="M3542.53,406.51c-1.64.08-3.28.23-4.92.22-5.89-.05-6.69-.75-8.09-6.91l7.58-5.52c2.86-.31,5.82-.25,8.57-1,11.23-3,22.39-6.3,34.23-9.67,2.35-8,2.77-16.76,4.11-25.32s2.69-16.84,4.09-25.54l16.79-3.29c-.14,2.09-.12,3.72-.36,5.3q-3.59,23.15-7.25,46.26c-.13.83-.36,1.63-.51,2.45-2.43,12.8-4.92,11.89-13.24,13.45-10.63,1.56-21.25,3.21-31.9,4.64A14,14,0,0,0,3542.53,406.51Z" transform="translate(-2197.95 -80.54)"/><path class="cls-5" d="M3542.53,406.51a14,14,0,0,1,9.1-4.92c10.65-1.43,21.27-3.08,31.9-4.64-2.19,1.42-5.28,2.1-4.83,5.74Z" transform="translate(-2197.95 -80.54)"/><path class="cls-5" d="M3563.87,253.32q2.74,6.58,5.5,13.16l-3.59-.07q-2.37-7.46-4.75-14.91Z" transform="translate(-2197.95 -80.54)"/><path class="cls-18" d="M3547.65,278c-.42-1.37-.85-2.74-1.28-4.11l6.73.89C3552.26,278.25,3549.6,277.46,3547.65,278Z" transform="translate(-2197.95 -80.54)"/><path class="cls-7" d="M3434.64,523.24c-.37,1.93-.73,3.86-1.13,6l8.45,6.7c-.29,1.37-.18,3-.95,4-2.25,2.91-4.86,5.54-7.45,8.42-6.68-5.14-13.26-9.83-19.38-15-4.77-4.07-6.89-10.1-10.68-15.57l7.38-4.33c2.88,1.74,5.81,3.64,8.86,5.33,3.21,1.78,6.22,4.29,10.32,3.58l1.84.42Z" transform="translate(-2197.95 -80.54)"/><path class="cls-6" d="M3494,395.36a9.11,9.11,0,0,1-2.28-10.4C3496.52,388,3497.11,390.69,3494,395.36Z" transform="translate(-2197.95 -80.54)"/><path class="cls-6" d="M2651.55,757.92c-.44,1.35-.47,3.13-1.38,4-5,4.63-10.12,9-15.65,13.88-1.74-2.29-3-4.12-4.47-5.83a19.3,19.3,0,0,0-3.88-4c-3-2-6.35-.78-7.3,2.74s-1.18,6.9-1.85,11.06c-6.85,1-13.78.38-21.64.14,0-2.55-.09-4.72,0-6.87.09-1.44,1-3,.64-4.24-.65-2-1.66-4.36-3.27-5.55-1.9-1.41-4.39-.68-6.24,1.11l-7.71,7.43c-3.51-4.06-6.66-7.79-9.9-11.42a27,27,0,0,0-3.15-2.66c-.28-1.39-.56-2.79-.84-4.16,1.65-1.28,3.14-2.36,4.55-3.53,5.3-4.43,5.29-4.44,2.82-12l-13.18-.8V715.1a65.82,65.82,0,0,1,7.75.42c7.75,1.34,6.54,0,9.33-5.22a21.55,21.55,0,0,0,.82-2.2l-9-9.87,16.84-14.88,9.12,10.3,7.3-1.82c.48-4.48,1-9,1.51-14.13l21.35,1.43v14.5l6.09,2.89,10.71-9.34,14.7,16.71L2645.17,713l1.59,6.95,14.74,1.41c-.38,7.3-.75,14.3-1.14,21.61h-14.53C2641.44,750.18,2642.75,753.65,2651.55,757.92Zm-41.26-6.18c11.57,0,22.53-10.32,22.29-22.45-.3-15-11.21-22.94-22.93-23.15-12.44-.22-23,10.89-22.68,23.39C2587.25,741.64,2598,751.85,2610.29,751.74Z" transform="translate(-2197.95 -80.54)"/><path class="cls-23" d="M2683.36,962.1c-.07-.86-.13-1.72-.2-2.58.7-1.94,1.47-3.86,2.08-5.82q5.53-17.84,11-35.68c6.16-20.67,15-40.64,16.15-62.61l4.17-42.35c2.39.69,4.75,1.57,7.19,2,19.44,3.74,38.8,4.54,57.92-1.84-.06,3.09-.08,6.19-.19,9.29q-.63,17.61-1.31,35.24c-.48,6.22-.89,12.44-1.45,18.66-.9,10.15-1.9,20.3-2.85,30.45l-.48,4.59c-.22,1-.43,2-.65,3q-2.89,21.79-5.8,43.59-1.36,5.76-2.72,11.53l-10.94.14-1.74-14.24q-.26-18.72-.53-37.45c0-11,.33-22-.18-32.92-.4-8.44-1.88-16.83-2.88-25.23l-1-9.82h-1.38c-.53,3.33-1.05,6.65-1.58,10a41.07,41.07,0,0,0-2,5.86c-1.81,9.52-5.59,18.26-10,26.83-4.26,8.34-8.21,16.83-12.29,25.25-2.17,4-4.48,7.88-6.48,11.93-4.2,8.5-8.24,17.08-12.35,25.63q-2.91,4.11-5.8,8.23Z" transform="translate(-2197.95 -80.54)"/><path class="cls-3" d="M2691.72,974.24a89.12,89.12,0,0,0,15.42,12c2,1.25,1.87,2.61,1.12,7.83-6.29.34-12.5,1.24-18.64-2.1-5.07-2.76-10.61-4.66-16.45-7.15,2.34-4.3,1.66-9.77,7.19-11.77C2683.88,976.06,2687.8,975.11,2691.72,974.24Z" transform="translate(-2197.95 -80.54)"/><path class="cls-3" d="M2766.6,978c4.5,3.61,9.71,5.44,15.32,6.48a36.6,36.6,0,0,1,7.72,2.49c.9.39,2.05,1.85,1.91,2.62a6.53,6.53,0,0,1-2.27,3.23c-.51.46-1.59.4-2.42.4-11.21,0-22.42,0-33.93,0-.92-3.89-1.39-7.92.73-11.84C2758.51,982.32,2763.08,982.17,2766.6,978Z" transform="translate(-2197.95 -80.54)"/><path class="cls-8" d="M2766.6,978c-3.52,4.16-8.09,4.31-12.94,3.4.54-3.9,1.07-7.79,1.62-11.69l10.94-.14C2766.35,972.39,2766.47,975.2,2766.6,978Z" transform="translate(-2197.95 -80.54)"/><path class="cls-16" d="M2691.72,974.24c-3.92.87-7.84,1.82-11.36-1.16.88-2.83,1.75-5.67,2.63-8.51l12.41.3Q2693.56,969.55,2691.72,974.24Z" transform="translate(-2197.95 -80.54)"/><path class="cls-5" d="M2695.4,964.87l-12.41-.3-.39-1.48a1.63,1.63,0,0,0,.25-1.2l.51.21,13.66,1.67Z" transform="translate(-2197.95 -80.54)"/><path class="cls-14" d="M2682.85,961.89a1.63,1.63,0,0,1-.25,1.2C2682.68,962.69,2682.76,962.29,2682.85,961.89Z" transform="translate(-2197.95 -80.54)"/><path class="cls-4" d="M2788.05,777.56c-2.65,2.06-3.5,4.45-3,8,.74,5.34.39,10.82.69,16.23a23.14,23.14,0,0,0,1.2,4.64l-5.27,6.79c-19.12,6.38-38.48,5.58-57.92,1.84-2.44-.46-4.8-1.34-7.19-2a42.85,42.85,0,0,0-6.33-2.21c-3.13-.6-4.73-2-4.67-5.38q.39-20.88.54-41.75a46.08,46.08,0,0,0-.73-6c.08-13.72.18-27.43.23-41.15,0-9.36.22-18.72-.09-28.07a14.49,14.49,0,0,1,5.24-12c7.33-6.66,15.13-12.37,25-14.6a38.44,38.44,0,0,1,4.93-.46c0,2.3-.37,4.72.25,6.85.95,3.32,2,6.91,4.08,9.53,3.38,4.22,9.06,3.12,10.92-1.91,1.29-3.47,1.76-7.25,2.6-10.89,1.77.41,3.73.47,5.26,1.32a46.76,46.76,0,0,1,7.66,5.28c9.91,8.47,9.87,8.52,10.1,21.6l.36,20.54q-14.25,10.47-29.27,19.88l-12.86-20c-2.25-3.49-3.79-8.49-7-10-3.44-1.65-8.46-.24-12.76.18-2.73.27-5.82-.58-8.61,2,3.42,4.89,6.65,9.71,10.07,14.38,7.27,9.92,14.55,19.83,22,29.63,3.94,5.19,6.94,5.51,12.1,1.58,2.48-1.89,4.79-4,7.1-6.11,6-5.46,12-11,17.93-16.44,2.47.88,2.36,3.07,2.52,5.08.3,3.86.52,7.72.77,11.58-.17,2.67-.35,5.33-.5,8-.15,2.47,1,3.87,3.48,4.2a39,39,0,0,0-.88,4.76C2785.63,767.57,2784.26,772.93,2788.05,777.56Z" transform="translate(-2197.95 -80.54)"/><path class="cls-15" d="M2740.36,629.94c-7.15-1-10-5.93-6.9-12.17.45-.93,1.56-2.07,1.31-2.72-1.85-4.86,1.29-7.67,3.85-10.95,1.2-1.55,1.44-3.84,2.14-5.78,1.4-3.9,3.09-4.83,7.12-3.83a26.12,26.12,0,0,1,4.15,1.35c3.87,1.68,6.94,1.71,9.6-2.46.91-1.43,3.91-2,6-2.09s3.95,1,6.19,1.6c.33,2.34.64,4.55,1,7a20.64,20.64,0,0,0,1.94,1.18c5.88,2.93,6.12,3.92,3.44,10.08-1,2.24-1.18,4.8-2,7.14a11.31,11.31,0,0,1-2,2.77,25.38,25.38,0,0,1-2-3.07c-4.71-9.81-16.38-10.88-22.7-2-1.21,1.68-2.34,3.42-3.5,5.14l-2.73,1.23C2740,624.35,2740,624.35,2740.36,629.94Z" transform="translate(-2197.95 -80.54)"/><path class="cls-8" d="M2748,621.11c1.16-1.72,2.29-3.46,3.5-5.14,6.32-8.84,18-7.77,22.7,2a25.38,25.38,0,0,0,2,3.07l-5.79,17.32c-1.39-.46-2.74-1-4.15-1.38-5.34-1.35-7.25-.3-11.41,6.27a14,14,0,0,1-8.44-8.49Q2747.25,628,2748,621.11Z" transform="translate(-2197.95 -80.54)"/><path class="cls-15" d="M2746.46,634.81a14.06,14.06,0,0,0,8.44,8.48c4.16-6.57,6.07-7.62,11.41-6.27,1.41.35,2.76.92,4.15,1.38-.19,1.35-.37,2.69-.55,4-5.56-1.81-5.56-1.81-9.3,1.37,3.33,1.44,6.33,3.46,9.36-.23,4.81,3.53,3.57,8.62,2.79,13.15-.55,3.18-4.14,3.85-7,4.27a60.32,60.32,0,0,1-8.08.2c-5.67-3-8.51-8.58-12.2-13.38-.17-2.16.9-4.9-2.57-5.53l.06-8.87a5.63,5.63,0,0,1,1.23.19Z" transform="translate(-2197.95 -80.54)"/><path class="cls-8" d="M2745.49,647.82c3.69,4.8,6.53,10.38,12.2,13.38.28,1.25.55,2.51.83,3.76-.84,3.65-1.31,7.43-2.6,10.9-1.86,5-7.54,6.13-10.92,1.91-2.08-2.62-3.13-6.21-4.08-9.53-.62-2.13-.2-4.55-.25-6.85,2.95-4.53,1.86-9.71,2.36-14.62Z" transform="translate(-2197.95 -80.54)"/><path class="cls-16" d="M2805.75,692.82c-3,1.13-5.83,1.93-8.88.47a1.2,1.2,0,0,1-.89.65l-1.51,1.22a11,11,0,0,0-3.15,8.84,31.53,31.53,0,0,1-.39,4.82l-1.77,1.11-7.26,3.78q-14.25,10.47-29.27,19.88l-12.86-20c-2.25-3.49-3.79-8.49-7-10-3.44-1.65-8.46-.24-12.76.18-2.73.27-5.82-.58-8.61,2,3.42,4.89,6.65,9.71,10.07,14.38,7.27,9.92,14.55,19.83,22,29.63,3.94,5.19,6.94,5.51,12.1,1.58,2.48-1.89,4.79-4,7.1-6.11,6-5.46,12-11,17.93-16.44,2.47.88,2.36,3.07,2.52,5.08.3,3.86.52,7.72.78,11.58,3-4.87,6.11-9.71,9.07-14.62,1.28-2.14,2.12-4.56,3.52-6.61.83-1.22,2.34-2,3.54-2.93q2.92-6.87,5.84-13.73c3-3.86,5.77-7.78,6.35-12.82C2811.11,690.62,2808.07,691.94,2805.75,692.82Z" transform="translate(-2197.95 -80.54)"/><path class="cls-15" d="M2812.22,694.72c-1.11-4.1-4.15-2.78-6.47-1.9-3,1.13-5.83,1.93-8.88.47l3.33-6.93c1-1.33,2.31-2.53,2.9-4,.66-1.67.66-3.6,1.06-6.07l11.8-.73c-.25,1.92-.41,3.07-.56,4.23-4.7,3.4-5.2,5.27-3.13,11.73C2812.26,692.57,2812.24,693.65,2812.22,694.72Z" transform="translate(-2197.95 -80.54)"/><path class="cls-8" d="M2744.21,633.61a5.63,5.63,0,0,0-1.23-.19l-2.62-3.48c-.33-5.59-.33-5.59,4.94-7.6Q2744.76,628,2744.21,633.61Z" transform="translate(-2197.95 -80.54)"/><path class="cls-8" d="M2770,643.58c-3,3.69-6,1.67-9.36.23,3.74-3.18,3.74-3.18,9.3-1.37A7.26,7.26,0,0,0,2770,643.58Z" transform="translate(-2197.95 -80.54)"/><path class="cls-15" d="M2745.49,647.82l-2.46-1.05c0-1.5-.07-3-.11-4.48C2746.39,642.92,2745.32,645.66,2745.49,647.82Z" transform="translate(-2197.95 -80.54)"/><path class="cls-16" d="M2812.27,691.5c-2.07-6.46-1.57-8.33,3.13-11.73C2817.88,684.62,2816,688.31,2812.27,691.5Z" transform="translate(-2197.95 -80.54)"/><path class="cls-5" d="M2744.21,633.61q.54-5.64,1.09-11.27l2.73-1.23q-.78,6.84-1.57,13.69Z" transform="translate(-2197.95 -80.54)"/><path class="cls-15" d="M2596.53,422.33a20.64,20.64,0,0,0-1.3-4,46.63,46.63,0,0,1-6.39-25.25c8.87-.42,17.75-.76,26.61-1.29,5.35-.32,10.68-.94,16-1.43-.33,2.47.48,3.91,3.23,4.1,11.29.78,22.59,1.66,33.88,2.5l5.69.93,2,.16,3.27,1c-1.28,7.28-2.67,14.54-3.76,21.84-.29,1.91.34,3.95.55,5.94-9.91,2.28-19.93,1.05-29.91.84-3.31-.07-6.61-.67-9.93-.83-10.19-.5-20.41-.7-30.57-1.49C2602.74,425.16,2599.66,423.4,2596.53,422.33Z" transform="translate(-2197.95 -80.54)"/><path class="cls-16" d="M2676.35,426.89c-.21-2-.84-4-.55-5.94,1.09-7.3,2.48-14.56,3.76-21.83l25.78,2.91c.32,1.84.62,3.69.95,5.53.68,3.76.87,7.48-1.08,11-8.52,15.29-16.82,30.7-25.67,45.8-6.92,11.82-14.52,23.24-21.81,34.84l-4.38,3.48c-1-3.52-1.91-6.49-2.78-9.46l-.1-.35,1.44-3.18q8.09-19.82,16.15-39.62,4-9.8,7.82-19.64A14.43,14.43,0,0,0,2676.35,426.89Z" transform="translate(-2197.95 -80.54)"/><path class="cls-17" d="M2657.73,499.17c7.29-11.6,14.89-23,21.81-34.84,8.85-15.1,17.15-30.51,25.67-45.8,1.95-3.49,1.76-7.21,1.08-11-.33-1.84-.63-3.69-.95-5.53l10.14,1.22c.7,6.43-.92,12.44-3.24,18.33a.45.45,0,0,0-.07.61q-22.4,37.13-44.77,74.27c-1.6,2.67-3.05,5.44-4.56,8.16Z" transform="translate(-2197.95 -80.54)"/><path class="cls-29" d="M2657.72,499.17l5.12,5.45c2.17,7.71,8.65,11.48,14.87,15.31-.61.84-.85,1.45-1.07,1.45-5.34-.17-10.7-.23-16-.66-4.82-.38-7.87-3.42-9.75-7.68-1-2.23-1.75-4.55-2.83-7.42l-7.71,4c3-6.72,5.61-12.16,10.24-16.4.87,3,1.74,5.94,2.78,9.46Z" transform="translate(-2197.95 -80.54)"/><path class="cls-7" d="M2651.91,489.66l-1.44,3.18Z" transform="translate(-2197.95 -80.54)"/><path class="cls-26" d="M2576.05,345.53c-.15-.91-.31-1.81-.46-2.72,0-.76,0-1.51,0-2.27l-.27-2.58c8.55-12.43,16.95-25,25.78-37.2,1.52-2.11,4.73-3.25,7.39-4.21,2.91-1.05,6.08-1.36,9.13-2l8.43-1.32L2637.64,305c3.31,2.86,6.94,3.6,11,1.63,2.91,2.1,4.61-1.06,6.92-1.59l-.08,0c3.11,4.87,4.07,10.17,3.89,15.95-.14,4.52.61,9.09,1.18,13.61,1,7.89-2,13.64-8.66,17.82-2.41,1.52-4.42,3.67-6.61,5.53-1.42,4.54-4.13,7.86-8.69,9.58a13.55,13.55,0,0,0-2.55,1.74c-1.79-.95-3.67-1.76-5.35-2.87-7.43-4.87-14.81-9.83-22.2-14.75l-3-2.73q1.76-7.86,3.5-15.73c.71-3.2.29-6-2.89-9L2590,340.38Z" transform="translate(-2197.95 -80.54)"/><path class="cls-7" d="M2637.64,305l-11.55-11.74c-1.76-2.76-3.52-5.54-5.29-8.31-.43-1.16-.83-2.34-1.3-3.49-1.91-4.69-1.54-8.74,2.46-12.42s7.69-8.17,11.81-11.95c4.34-4,9.58-6.3,15.39-7.76,8.33-2.09,15.24-.07,21.06,5.9a94.22,94.22,0,0,1,8.43,10c3.64,5,1.39,9.42-1.76,13.64.05-2.27.28-4.56.11-6.82-.28-3.71-2.72-4.89-6.11-3.3-3,1.39-6.15,2.44-9.08,3.95-2,1-4.14,2.19-5.37,3.9-4.36,6.09-8.34,12.43-12.47,18.68Z" transform="translate(-2197.95 -80.54)"/><path class="cls-16" d="M2644,295.22c4.13-6.25,8.11-12.59,12.47-18.68,1.23-1.71,3.41-2.89,5.37-3.9,2.93-1.51,6.09-2.56,9.08-3.95,3.39-1.59,5.83-.41,6.11,3.3.17,2.26-.06,4.55-.11,6.82-.7,9.13-4.68,16.81-10.44,23.71-3,3.72-7.17,2.37-11,2.53l.08,0c1.93-2.3.26-3.58-1.31-5.34l-3.66,2.56C2650.29,298.1,2646.63,297.12,2644,295.22Z" transform="translate(-2197.95 -80.54)"/><path class="cls-20" d="M2715.48,403.25,2705.34,402l-25.78-2.91-3.26-1-2-.16-5.69-.93,1.11-5.13.66-1.26c4.15-3.93,5.25-9.29,6.74-14.46l.12-.36.68-1.28c2.73-6.44,5.61-12.82,8.1-19.34,1.1-2.88,2.75-3.72,5.61-3.4,4.91.55,9.84.9,14.75,1.32q10.49,1.1,21,2.16c2,.21,4.1.32,6.14.48-.19,5.17-10.76,34.07-16.8,46.26l-1,1.13Zm-14.27-21.95c5.1-.47,6.58-4.31,3.64-9.86C2701.79,374.25,2700.91,377.47,2701.21,381.3Z" transform="translate(-2197.95 -80.54)"/><path class="cls-8" d="M2677.89,374.51l-.68,1.28C2677.44,375.37,2677.67,374.94,2677.89,374.51Z" transform="translate(-2197.95 -80.54)"/><path class="cls-26" d="M2631.47,390.4c-5.34.49-10.67,1.11-16,1.43-8.86.53-17.74.87-26.61,1.29-.13-1.74-.87-3.73-.29-5.19,3.54-8.82,7.37-17.52,11.11-26.26l8,2.72c2,1.36,3.91,2.91,6,4.06,7.56,4.08,15.2,8,22.81,12,2.58,2.27,5.81,4,6.44,7.88-1.94.3-3.88.58-5.8.93S2633.36,390,2631.47,390.4Z" transform="translate(-2197.95 -80.54)"/><path class="cls-16" d="M2575.63,340.54c0,.76,0,1.51,0,2.27C2575.6,342.05,2575.62,341.3,2575.63,340.54Z" transform="translate(-2197.95 -80.54)"/><path class="cls-23" d="M2631.47,390.4c1.89-.38,3.78-.79,5.68-1.12s3.86-.63,5.8-.93l7.86.81,18.88,2.71-1.11,5.13c-11.29-.84-22.59-1.72-33.88-2.5C2632,394.31,2631.14,392.87,2631.47,390.4Z" transform="translate(-2197.95 -80.54)"/><path class="cls-8" d="M2644,295.22c2.66,1.9,6.32,2.88,6.6,7l-2,4.37c-4,2-7.67,1.23-11-1.63Z" transform="translate(-2197.95 -80.54)"/><path class="cls-7" d="M2648.62,306.62l2-4.37c1.14-.8,2.27-1.6,3.66-2.56,1.57,1.76,3.24,3,1.31,5.34C2653.23,305.56,2651.53,308.72,2648.62,306.62Z" transform="translate(-2197.95 -80.54)"/><path class="cls-3" d="M2701.21,381.3c-.3-3.83.58-7.05,3.64-9.86C2707.79,377,2706.31,380.83,2701.21,381.3Z" transform="translate(-2197.95 -80.54)"/><path class="cls-16" d="M2663.12,372.21c-3.72-2.07-7.67-3.73-11.51-5.58h0a35.07,35.07,0,0,0-3.3-2.59,5.68,5.68,0,0,1-3-6.08c-1.42,4.54-4.13,7.86-8.69,9.58a13.55,13.55,0,0,0-2.55,1.74h0c-1.79-.95-3.67-1.76-5.35-2.87-7.43-4.87-14.81-9.83-22.2-14.75l-3-2.73L2590,340.38l-13.92,5.15c0,3.19,2.72,3.85,4.82,5.08q9.4,5.52,18.79,11.06l8,2.72c2,1.36,3.91,2.91,6,4.06,7.56,4.08,15.2,8,22.81,12q1.24-3.75,2.51-7.5l-3.15-2.33L2639,373l8.7,1.19h0l1.42,1.49c7.74,1.13,13.52,6,19.41,10.52,1.09.84,1.22,2.93,1.8,4.44,4.15-3.93,5.25-9.29,6.74-14.46C2672,376.32,2667.5,374.65,2663.12,372.21Z" transform="translate(-2197.95 -80.54)"/><path class="cls-16" d="M2639,373q-1.26,3.75-2.51,7.5c2.58,2.27,5.81,4,6.44,7.88l7.86.81q-.84-6.75-1.67-13.51l-1.42-1.49Z" transform="translate(-2197.95 -80.54)"/></svg>