<svg id="Capa_1" data-name="Capa 1" xmlns="http://www.w3.org/2000/svg" viewBox="0 0 943.24 1055.88"><defs><style>.cls-1{fill:#313436;}.cls-2{fill:#f5d99a;}.cls-3{fill:#eec06e;}.cls-4{fill:#f4d99a;}.cls-5{fill:#295a10;}.cls-6{fill:#fdfdfc;}.cls-7{fill:#def3bc;}.cls-8{fill:#00b159;}.cls-9{fill:#efc36f;}.cls-10{fill:#7bb532;}.cls-11{fill:#4f8f14;}.cls-12{fill:#fdfefd;}.cls-13{fill:#444749;}.cls-14{fill:#c6e499;}.cls-15{fill:#979797;}.cls-16{fill:#0f0f0f;}.cls-17{fill:#333;}.cls-18{fill:#575555;}.cls-19{fill:#777778;}</style></defs><title>character-1</title><path class="cls-1" d="M615.8,11.8c7.4,2.5,14.1,6.8,21.3,9.8,16.4,6.7,32.7,13.4,50.3,16.6,13.8,2.5,25-1.5,34.2-12a27.46,27.46,0,0,1,2.6-2.2,128.67,128.67,0,0,1-.5,35.6c-2.8,19.3-8.9,37.2-22.6,51.7-.9,1-1.2,2.9-1.2,4.4-.1,18.5,0,37,0,55.5H681.7V125.6c-1.3.5-2,.8-2.7,1.1-28.2,12.4-54.8,8.2-80.5-7.3-19-11.5-34.8-26.9-50.7-42.1-5.3-5-11-10.4-17.5-13.1-21.4-8.5-49.6,2-62.3,22.4-6.1,9.9-14.8,14.9-26.3,15-1.4,0-2.8.3-4.7.5v69.2H418.9c.1-32.2.3-64.4.1-96.6-.1-18.3,15.2-29.5,29.2-27,6.2,1.1,11.8,4.8,17.8,7.4-.9-9.4.9-16.4,3.4-21.7C483.9,3.6,545-12.4,615.8,11.8Z" transform="translate(0.04 -0.02)"/><path class="cls-2" d="M927.9,791.8c2,9.1,4.5,18.3,2,27.6a156.25,156.25,0,0,1-6.9,21q-20.55,49.2-41.5,98.2c-6.5,15.4-13.3,30.7-19.8,46.1q-13.8,32.7-27.4,65.4l-2,5.8H755c.7-1.8,1.4-3.6,2.2-5.4l45.3-108c10.3-24.6,20.7-49.2,31-73.8,6.1-14.7,12.1-29.4,18.2-44.1,6.8-3,13.5-6,20.3-8.9C890.6,807.6,909.2,799.7,927.9,791.8Z" transform="translate(0.04 -0.02)"/><path class="cls-3" d="M851.7,824.5c-6.1,14.7-12,29.4-18.2,44.1q-15.45,36.9-31,73.8l-45.3,108c-.8,1.8-1.4,3.6-2.2,5.4H717.3l.1-1.9,20.1-47.2,10-24.3c2.8-6.3,5.7-12.6,8.4-19l31.8-75.6c6-14.4,11.8-28.8,17.7-43.3Z" transform="translate(0.04 -0.02)"/><path d="M747.6,982.3l-10,24.3c-2.3,0-4.5-.1-6.8-.1h-390c-.8-12.7-1.7-25.3-2.5-38q-2.4-34.8-4.9-69.7c6.6-7.4,10.7-15.6,7.8-25.9,0-2.6,0-5.1.1-7.7.6-15.1,2.2-30.2,1.7-45.3-.9-26.5-3.5-52.9-4.5-79.4a53.15,53.15,0,0,0-13.1-33.7c-17.5-20.7-40.1-32.7-65.8-39.6-5.8-1.6-11.9-2.1-17.9-3l.1.1-1-.2c-9.9-5.9-20.2-10.3-32.8-6.8V635.1c4.3-5.8,8.7-11.4,12.8-17.3,27.3-39.8,54.4-79.7,81.8-119.5,9.7-14.2,19.3-28.6,30-42,11.1-13.9,26.1-22.7,43.3-27.6l70.6-19.8V495l68.9-26.3a11.79,11.79,0,0,1,1.8,2.1q14.85,27.3,29.5,54.7c2.6,4.9,6.4,8,12.1,8.1s9.8-2.5,12.5-7.5c7.6-14,15.1-28,22.8-41.9,2.9-5.3,6-10.5,9.1-15.7l69.7,26.2a8.3,8.3,0,0,0,.6-2.1q-.15-41.7-.3-83.5c4.5.9,9.1,1.6,13.6,2.8,29.6,7.8,59.2,15.5,86.8,29,11.4,5.6,22.2,12.2,28,24.1,4.4,9,8,18.3,12,27.4q19,44.25,38.2,88.6,24.75,57.45,49.4,114.8c2.3,5.3,4.7,10.6,7,15.9-4.4,2-8.6,4.3-13.1,5.9-3.3,1.2-4.7,3.3-5.5,6.5-1.5,5.5-3.3,10.9-5,16.5-6.5-2.8-12.3-5.5-18.3-7.9a8.06,8.06,0,0,0-5.3-.3c-18.1,7.6-36,15.5-54,23.2-10.5,4.5-21,8.7-31.5,13-3.7-9.1-7.4-18.2-11.7-28.5-.3.9-.6,1.9-.8,2.8-1.7,26.3-3.3,52.7-5,79-2.1,32.3-4.3,64.6-6.4,96.9C750.1,940.2,748.9,961.2,747.6,982.3Z" transform="translate(0.04 -0.02)"/><path class="cls-4" d="M708.5,178c16.2,11,22.6,34.3,14.5,52.4-6.8,15.3-18.5,24.4-35.1,26.9-3.4.5-4.6,2-4.6,5.4.2,8.9-.1,17.7.1,26.6.3,16.1-6.1,28.9-18.5,39-10.3,8.5-20.4,17.2-30.6,25.8-4.7,3.9-9.2,8.1-14.1,11.7-19.8,14.7-42,21.6-66.8,20.3a98.39,98.39,0,0,1-53.7-19.2c-5.6-4-10.8-8.5-16.1-12.9-9.1-7.9-17.9-16.1-27.4-23.5-14.4-11.1-22-25.1-21.1-43.5.4-8.2,0-16.4.1-24.6.1-3.2-1.2-4.6-4.4-5-22.5-2.9-37.7-20.3-38.8-41.9-.8-15.2,4.9-28.3,18-37.4-.8,7.4.5,13.9,7.9,17.7.9.4,1.3,1.8,1.9,2.7,1.9,5.4,3.8,10.9,5.7,16.3,2.3,6.1,4.7,12.2,6.9,18.4,3.5,9.7,8.1,13.1,18.3,13.1h63.8c12.7,0,17.8-4.3,20.1-16.7,1.9-10.6,3.8-21.2,5.9-31.8.4-1.8,1.6-4.1,3.1-4.9,10.3-5.3,20.8-5.3,31,.2a8.58,8.58,0,0,1,3.5,5.2c2.3,11.4,4.2,22.8,6.5,34.1,1.9,9.3,7.5,13.8,17,13.8h67.7c8.4,0,13.8-4.2,16.5-12.2,1.8-5.5,3.7-11,5.6-16.4l.9-1.8v.1l6.5-17.5c.7-.9,1.1-2.2,2-2.6C708,191.8,709.2,185.4,708.5,178Z" transform="translate(0.04 -0.02)"/><path class="cls-5" d="M208,635.3v22.2c12.6-3.5,22.8.9,32.8,6.8l1,.2-.1-.1c7.3,8.5,16.5,14.1,27.7,14.5,9.1.3,17.5,2.9,25.5,6.5,4.7,2.1,10.2,4.9,12.7,9,6.7,11,11.6,23,10.8,36.7-15.3-6.4-27.8-3-37.4,11.3-2.1-14.8-10.3-23.8-23.7-27.3-16.9-4.4-29.8,2.1-38.8,17-7.7-17.3-19.4-25.4-35.5-24.9-15,.4-25.6,7.9-31,22.1l-2-2.8c-4.4-6.2-10.4-10.1-18-11-13.2-1.7-24.7,5.9-28.4,18.7-3,10.3-5.8,20.7-8.8,31.5-2.8-1.9-4.9-3.8-7.3-4.9-4.1-1.9-5.6-4.9-6.2-9.3-1-7.5-4.5-14-9.4-19.8-3.6-4.1-3.2-13,.9-16.4,12.9-10.7,25.5-21.4,42-27.4,15.5-5.7,30.9-11.5,47-15.6,5.1-1.3,9.8-4.4,14.7-6.8,4.8-2.6,9.5-5.5,14.5-7.7,6.3-2.7,9-7.1,9-13.8-.1-28,0-56.1-.1-84.1,0-1.6-.3-3.2-.4-4.8v-3.3l-.1-.1.4-3.5-.1-149.5a.76.76,0,0,0,.2-.4c-.1-.3-.2-.5-.3-.8l-.2-16.4c.2-1.4.4-2.8.5-4.3V229.4c0-1.3-.2-2.6-.3-3.8.2-1.5.5-2.9.7-4.4l6.8-.6,1.3,4.7v3q0,94.35-.1,188.6a21.27,21.27,0,0,0,.3,3l12.1-3.1c0,1.4-.1,2.8-.1,4.2l1.1,4.2c-4.4,1.5-10.3,1.9-12.6,5-2.2,2.9-.7,8.6-.7,13.1C208,507.3,208,571.3,208,635.3Z" transform="translate(0.04 -0.02)"/><path d="M708.5,178c.7,7.4-.6,13.8-7.8,17.7-.9.5-1.3,1.7-2,2.6l-6.5,17.4v-.1l-.9,1.8c-1.9,5.5-3.8,10.9-5.6,16.4-2.6,8-8,12.2-16.5,12.2-22.6.1-45.1.1-67.7,0-9.5,0-15.1-4.5-17-13.8-2.3-11.4-4.2-22.8-6.5-34.1a8.18,8.18,0,0,0-3.5-5.2c-10.2-5.5-20.7-5.5-31-.2a7.52,7.52,0,0,0-3.1,4.9c-2.1,10.6-4,21.2-5.9,31.8-2.3,12.4-7.4,16.7-20.1,16.7H450.6c-10.2,0-14.8-3.4-18.3-13.1-2.2-6.2-4.6-12.3-6.9-18.4-1.9-5.4-3.8-10.9-5.7-16.3-.6-.9-1-2.3-1.9-2.7-7.4-3.8-8.6-10.3-7.9-17.7.2-2,.3-4.1.5-6.8h26.5c26.3,0,52.5.4,78.8,0,11-.1,20.1,2.1,24.4,12.1,7-1.2,13.2-3.2,19.5-3.1s12.4,2.3,18.8,3.6c5.4-9.8,9.8-12.4,21.7-12.4l81.7-.1H700c.5,0,1,.1,1.4.1C708.1,171.5,708.1,171.5,708.5,178Zm-272,41.6c1.2,4,2.4,8,3.7,12,1.5,4.8,4.6,6.8,9.7,6.7,22.1-.2,44.1-.1,66.2-.1,6.8,0,8.8-1.6,10.1-8.4,2.2-11.1,4.1-22.1,6.2-33.2,2.2-11.4-2.6-17.2-14.3-17.2H436.9c-7.8.5-12.2,5.1-10.2,11.6C429.7,200.6,433.3,210,436.5,219.6Zm244.9-40.2H599.9a38.66,38.66,0,0,0-4.8.3c-6.1,1.1-10.8,6.7-9.8,12.8,2.2,13.1,4.7,26.3,7.2,39.3.8,4.1,3.5,6.3,7.8,6.3h69.5a7.53,7.53,0,0,0,7.7-5.3c1.6-4.4,2.8-8.9,4.2-13.3,3.1-8.8,6.3-17.5,9.2-26.3,3-8.3-.5-13.3-9.5-13.8Z" transform="translate(0.04 -0.02)"/><path class="cls-6" d="M515.4,468.8l-68.9,26.3V409.3c7.6-6.3,15.1-12.7,22.8-18.9,4.7-3.9,9.5-7.6,14.3-11.3v.2c.2,10.1-.9,20.3,3.8,29.9,6.2,12.6,11.9,25.4,17.8,38C508.4,454.3,511.9,461.5,515.4,468.8Z" transform="translate(0.04 -0.02)"/><path class="cls-7" d="M220.3,421c0-1.4.1-2.8.1-4.2,4-8.7,7-18,12.1-25.9,9.3-14.1,23.6-21.4,39.7-25.3,21.8-5.3,43.7-4.6,65.5-.5,12.4,2.3,24.8,5.5,37.1,8.5,1.5.4,2.8,1.8,4.1,2.7-.1.1-.3.2-.3.3a1.85,1.85,0,0,0,.2.7l.1-.1a29.37,29.37,0,0,0-5.1.5Q297.15,399.15,220.3,421Z" transform="translate(0.04 -0.02)"/><path class="cls-8" d="M220.3,421q76.8-21.75,153.5-43.4a29.37,29.37,0,0,1,5.1-.5c-6.2,6.3-12.1,12.9-18.6,18.8-18.8,17.1-38.8,32.3-62.4,42.4-11,4.7-22.5,7.9-34.6,7.5-13.7-.4-25.3-5.5-35.1-15-2.1-2.1-4.6-3.8-6.9-5.7Z" transform="translate(0.04 -0.02)"/><path class="cls-8" d="M200.1,221.2c-.2,1.5-.5,2.9-.7,4.4-14.6,12.7-30.6,15.1-47.8,6.1a73.69,73.69,0,0,1-13.1-8.9c-15.2-12.7-25.8-28.9-36.3-47,9.1-.5,17.2-1.3,25.3-1.2,15,0,29.9,1.6,44.1,7.2C189.5,188.8,199.8,201.4,200.1,221.2Z" transform="translate(0.04 -0.02)"/><path class="cls-8" d="M199.4,397.5a6.89,6.89,0,0,1,.3.8.76.76,0,0,1-.2.4c-7.9,4.3-15.8,8.4-25,9.5-16.3,2.1-30.8-2.8-44.5-10.8-23.8-14.1-41.9-34.2-58.4-56-4.6-6.1-8.9-12.6-13.2-19-.8-1.1-.9-2.7-1.3-4.1,12.1,6.7,24.1,13.4,36.2,20.1Z" transform="translate(0.04 -0.02)"/><path class="cls-7" d="M199.4,397.5,93.3,338.4c-12.1-6.7-24.1-13.4-36.2-20.1a8.51,8.51,0,0,1,3.1-.9c33.6,1,66.7,5,97.6,19.4,13.9,6.5,26.3,15.1,34.2,28.7,2.9,5,4.9,10.4,7.3,15.7Z" transform="translate(0.04 -0.02)"/><path class="cls-9" d="M483.5,354c5.4,4.3,10.6,8.8,16.1,12.9a99.18,99.18,0,0,0,53.7,19.2c24.8,1.3,47-5.6,66.8-20.3,4.9-3.6,9.4-7.8,14.1-11.7l.7,24-.9,1.1c-1.3.6-2.5,1.4-3.7,2.1-24.1,17.2-50.7,25.6-80.5,23.1a117.79,117.79,0,0,1-55.9-19c-3.4-2.3-7.1-4.1-10.6-6.2V379C483.5,370.6,483.5,362.3,483.5,354Z" transform="translate(0.04 -0.02)"/><path class="cls-8" d="M199.2,551.7h0a116.28,116.28,0,0,1-11.6-1.8c-21-5.2-41.9-10.4-62.9-15.7l6.9-3.1,30.7-4c2.6.2,5.3.7,7.9.7,13.7-.1,24.8,8,28,20.4C198.5,549.4,198.9,550.5,199.2,551.7Z" transform="translate(0.04 -0.02)"/><path class="cls-7" d="M208.2,225.3l-1.3-4.7c4.3-18.5,18.3-24.6,35-27.1a80.24,80.24,0,0,1,11-.8c.8,0,1.6.9,2.4,1.4-1.1.7-2.2,1.3-3.3,2Z" transform="translate(0.04 -0.02)"/><path class="cls-8" d="M208.2,225.3,252,196.1c1.1-.7,2.2-1.4,3.3-2-6.5,13.9-15,26.2-28,34.8-6.4,4.2-12.8,3.1-19.1-.5Z" transform="translate(0.04 -0.02)"/><path class="cls-10" d="M199.2,551.7c-.3-1.2-.6-2.3-.9-3.5l1.3-.1C199.5,549.3,199.3,550.5,199.2,551.7Z" transform="translate(0.04 -0.02)"/><path class="cls-11" d="M378.9,377.2a6.37,6.37,0,0,1-.2-.7c0-.1.2-.2.3-.3.1.2.2.5.3.7S379,377.1,378.9,377.2Z" transform="translate(0.04 -0.02)"/><path class="cls-12" d="M775.3,768.9c10.5-4.3,21.1-8.6,31.5-13,18-7.7,36-15.6,54-23.2a8,8,0,0,1,5.3.3c6,2.4,11.8,5.1,18.3,7.9,1.7-5.6,3.5-11,5-16.5.8-3.2,2.2-5.3,5.5-6.5,4.5-1.7,8.8-3.9,13.1-5.9,2.9-1.2,4.2.2,5.3,2.8,2.6,6.3,5.5,12.5,8.3,18.7,7.2,16.9,14.3,33.9,21.6,51.2l-15.4,7.2c-18.7,7.9-37.3,15.9-55.9,23.8-6.8,2.9-13.5,6-20.3,8.9l-46.3,19.9c-.9-1.1-2.1-2-2.6-3.2-9.6-22-19-44-28.6-65.9C773.1,772.8,773,770.8,775.3,768.9Zm126.8,7.9a8.53,8.53,0,0,0,8.4-8.1,8.7,8.7,0,0,0-8.1-8.5,8.39,8.39,0,0,0-8.3,8.2,8,8,0,0,0,7.8,8.4Z" transform="translate(0.04 -0.02)"/><path class="cls-6" d="M634.1,379.1l.9-1.1c12,9.6,24,19.1,35.9,28.7.8.8,1.6,1.6,2.3,2.4q.15,41.7.3,83.5a8.3,8.3,0,0,1-.6,2.1l-69.7-26.2c1-2.5,1.9-5.1,3.1-7.5,6.2-12.5,12.3-25.1,18.7-37.5C632.1,409.6,636.5,395.1,634.1,379.1Z" transform="translate(0.04 -0.02)"/><path class="cls-2" d="M681.5,171.2l-81.7.1c-11.9,0-16.3,2.6-21.7,12.4-6.4-1.3-12.6-3.5-18.8-3.6s-12.5,1.9-19.5,3.1c-4.2-9.9-13.3-12.2-24.4-12.1-26.3.4-52.5,0-78.8,0V102c1.9-.2,3.3-.5,4.7-.5,11.6-.1,20.2-5.1,26.3-15,12.6-20.4,40.8-30.9,62.3-22.4,6.6,2.6,12.3,8.1,17.5,13.1,16,15.2,31.7,30.6,50.7,42.1,25.7,15.5,52.3,19.7,80.5,7.3.7-.3,1.4-.6,2.7-1.1Z" transform="translate(0.04 -0.02)"/><path class="cls-13" d="M340.8,1006.5h390c2.3,0,4.5,0,6.8.1l-20.1,47.2c-2.7,0-5.5-.2-8.2-.2H345.9c-2.7,0-5.8.8-5.6-3.7C340.5,1035.5,340.6,1021,340.8,1006.5Z" transform="translate(0.04 -0.02)"/><path class="cls-2" d="M80.3,816.3c1.8-6.3,3.8-12.6,5.5-18.9a5.17,5.17,0,0,0-.8-4c-2.8-4-5.9-7.9-8.6-11.3-5.8,4.5-10.7,9.5-16.6,12.6-16.7,8.8-34.6,5.7-48.2-7.6-.8-.8-1.6-1.5-2.5-2.3-9.1-12.6-11.8-26.3-6.3-41a40.37,40.37,0,0,1,45.4-25.2c3.4.6,5.1-.1,7.1-2.8,3.6-5.1,7.2-10.6,12-14.4,7.9-6.2,16.3-12.2,25.3-16.5,12.5-6,25.9-10.4,38.9-15.5l30.9-4.2,13.9.2c-4.9,2.3-9.5,5.5-14.7,6.8-16.1,4.1-31.5,9.9-47,15.6-16.5,6-29.1,16.7-42.1,27.4-4.1,3.4-4.4,12.3-.9,16.4A37.34,37.34,0,0,1,81,751.4c.6,4.4,2.1,7.4,6.2,9.3,2.4,1.1,4.5,3,7.3,4.9,3-10.8,5.8-21.2,8.8-31.5,3.8-12.8,15.3-20.3,28.4-18.7,7.6,1,13.5,4.8,18,11l2,2.8c5.4-14.2,16.1-21.7,31-22.1,16.1-.4,27.8,7.7,35.5,24.9,9-14.9,21.9-21.4,38.8-17,13.4,3.5,21.7,12.5,23.7,27.3,9.6-14.4,22.2-17.7,37.4-11.3.8-13.7-4.1-25.7-10.8-36.7-2.5-4.1-8-6.9-12.7-9-8-3.6-16.4-6.2-25.5-6.5-11.2-.4-20.4-6-27.7-14.5,6,1,12.1,1.5,17.9,3,25.7,6.9,48.3,18.9,65.8,39.6a52.94,52.94,0,0,1,13.1,33.7c1,26.5,3.6,52.9,4.5,79.4.5,15-1.1,30.2-1.7,45.3-.1,2.6-.1,5.1-.1,7.7-4.6,1.5-9.1,3.1-13.7,4.5-16.6,4.9-33.3,6.7-50.3,1.3a9.91,9.91,0,0,0-4.2,0c-14.5,2.2-29,4.6-43.6,1.8-8.6-1.6-16.9-4.8-25.3-7.3-2.2-.7-4.3-2.1-6.5-2.1-8.5-.3-17,.2-25.4-.2-13.5-.5-26.6-3.2-38.6-9.2-9-4.5-18.3-5.6-28.1-6.3-11.6-.9-23-3.2-32.1-11.5C75.7,834.8,78,825.5,80.3,816.3Z" transform="translate(0.04 -0.02)"/><path class="cls-2" d="M634.1,379.1c2.3,15.9-2.1,30.5-9.2,44.5-6.3,12.4-12.5,25-18.7,37.5-1.2,2.4-2.1,5-3.1,7.5-3,5.2-6.2,10.4-9.1,15.7q-11.4,20.85-22.8,41.9c-2.7,4.9-6.8,7.6-12.5,7.5s-9.5-3.2-12.1-8.1q-14.7-27.45-29.5-54.7a12.41,12.41,0,0,0-1.8-2.1c-3.4-7.2-6.9-14.5-10.3-21.7-5.9-12.7-11.6-25.5-17.8-38-4.7-9.6-3.6-19.8-3.8-29.9,3.6,2,7.2,3.9,10.6,6.2a117.79,117.79,0,0,0,55.9,19c29.8,2.5,56.4-5.9,80.5-23.1C631.7,380.5,632.9,379.8,634.1,379.1Z" transform="translate(0.04 -0.02)"/><path class="cls-9" d="M73.4,844c9.1,8.3,20.5,10.6,32.1,11.5,9.8.8,19.1,1.8,28.1,6.3,12,6,25.2,8.7,38.6,9.2,8.5.3,17-.1,25.4.2,2.2.1,4.3,1.5,6.5,2.1,8.4,2.5,16.7,5.7,25.3,7.3,14.6,2.8,29.1.3,43.6-1.8a9.91,9.91,0,0,1,4.2,0c16.9,5.4,33.6,3.6,50.3-1.3,4.6-1.4,9.2-3,13.7-4.5,2.9,10.3-1.2,18.4-7.8,25.9-6.6,4.1-13.1,7.8-21.2,8.3-11.6.7-21.6-2.2-30.2-9.8-.7-.6-1.5-1.2-1.9-1.5-3.7,3.4-6.9,7-10.6,9.9-17.9,14.1-46.2,9.4-60.5-4.1-.6-.5-1.3-1-1.9-1.5l-6.8-12.1c-6.8,11.7-18.3,16.7-31.6,17.7-15.7,1.1-30-3.5-41.8-14.1-3.4-3-6-7.2-8.2-11.2-1.6-2.9-3.7-3.5-5.8-2-11.7,8.5-23,5.5-34.3-.7C68.3,867.8,67.7,856.4,73.4,844Z" transform="translate(0.04 -0.02)"/><path class="cls-2" d="M241.7,664.4l-1-.2Z" transform="translate(0.04 -0.02)"/><path class="cls-14" d="M162.6,562.7a105.5,105.5,0,0,1-30-19.3l-7.8-9.2c21,5.3,41.9,10.5,62.9,15.7,3.8.9,7.8,1.3,11.7,1.9v3.3c-1.5.8-3.1,1.5-4.6,2.4-3.2,1.8-6.2,3.9-9.5,5.4C177.7,566.2,170.1,564.4,162.6,562.7Z" transform="translate(0.04 -0.02)"/><path class="cls-13" d="M692.2,215.8l6.5-17.5Z" transform="translate(0.04 -0.02)"/><path class="cls-13" d="M419.7,198.4c1.9,5.4,3.8,10.9,5.7,16.3C423.5,209.3,421.6,203.8,419.7,198.4Z" transform="translate(0.04 -0.02)"/><path class="cls-13" d="M691.3,217.5l.9-1.8Z" transform="translate(0.04 -0.02)"/><path class="cls-4" d="M681.8,219.5c-1.4,4.4-2.6,8.9-4.2,13.3a7.32,7.32,0,0,1-7.7,5.3q-34.65-.15-69.5,0c-4.4,0-7.1-2.2-7.8-6.3-2.5-13.1-5.1-26.2-7.2-39.3-1-6.1,3.6-11.8,9.8-12.8a25.81,25.81,0,0,1,4.8-.3h81.5C681.6,192.8,681.7,206.1,681.8,219.5Z" transform="translate(0.04 -0.02)"/><path class="cls-4" d="M437,179.4h81.2c11.7,0,16.5,5.8,14.3,17.2-2.1,11.1-4.1,22.1-6.2,33.2-1.3,6.8-3.3,8.4-10.1,8.4-22.1,0-44.1-.1-66.2.1-5.1,0-8.3-1.9-9.7-6.7-1.2-4-2.4-8-3.7-12Z" transform="translate(0.04 -0.02)"/><path class="cls-1" d="M437,179.4l-.4,40.2c-3.3-9.5-6.8-19-9.8-28.6C424.8,184.5,429.1,179.9,437,179.4Z" transform="translate(0.04 -0.02)"/><path class="cls-1" d="M681.8,219.5l-.3-40.2c8.9.5,12.4,5.5,9.6,13.9C688.1,202,684.9,210.8,681.8,219.5Z" transform="translate(0.04 -0.02)"/><path class="cls-15" d="M897.3,765.1a5.21,5.21,0,0,1,2.1-4.1,5.7,5.7,0,0,1,2.2-1.1,5,5,0,0,1,2.1-.2,5.48,5.48,0,0,1,4.3,2.8c0,.1.1.2,0,.3s-.1,0-.2-.1a4.91,4.91,0,0,0-3.1-.7,4.9,4.9,0,0,0-4.3,6.1,6.12,6.12,0,0,0,.5,1.2c0,.1.1.2.1.3a.19.19,0,0,1-.3,0,3.88,3.88,0,0,1-1.1-.6,4.63,4.63,0,0,1-2-2.8A1.68,1.68,0,0,1,897.3,765.1Z" transform="translate(0.04 -0.02)"/><path class="cls-16" d="M909.3,772.1a6.16,6.16,0,0,0,.1-2.7,4.6,4.6,0,0,0-2.7-3.2,5,5,0,0,0-2.7-.5,5.46,5.46,0,0,0-1.8.6,3.48,3.48,0,0,0-1.3,1.1c0,.1-.1.1-.2.1s-.1-.1-.1-.2a4.79,4.79,0,0,1,1.2-3.3,4.56,4.56,0,0,1,2.7-1.5,5,5,0,0,1,2.1.1,5.79,5.79,0,0,1,4.5,5.8,4.59,4.59,0,0,1-1.8,3.7Z" transform="translate(0.04 -0.02)"/><path class="cls-17" d="M900.8,776.2a4.9,4.9,0,0,0,2.4-.8,5,5,0,0,0,2.4-3.6,5.09,5.09,0,0,0-.6-3,5.23,5.23,0,0,0-2.3-2.1c-.1,0-.2,0-.2-.1s.1-.1.2-.1a4.85,4.85,0,0,1,4.5.7,4.68,4.68,0,0,1,1.8,2.9,5.29,5.29,0,0,1-.2,2.8,5.5,5.5,0,0,1-3.1,3.4,5.37,5.37,0,0,1-4.3.1C901.2,776.5,901,776.5,900.8,776.2Z" transform="translate(0.04 -0.02)"/><path class="cls-18" d="M894.1,769.4c1.1,2.4,3,3.6,5.5,3.2a4.83,4.83,0,0,0,4.3-4.6.22.22,0,0,1,.2.2,5.39,5.39,0,0,1,1,3,4.62,4.62,0,0,1-1.8,3.4,5.93,5.93,0,0,1-3.9,1.3,6.46,6.46,0,0,1-1.9-.4,5.34,5.34,0,0,1-3.5-4.8A3,3,0,0,1,894.1,769.4Z" transform="translate(0.04 -0.02)"/><path class="cls-19" d="M902.9,769.9a3.92,3.92,0,0,1-.8,1,4.72,4.72,0,0,1-3.2,1.2,4.8,4.8,0,0,1-3.7-1.7,5.24,5.24,0,0,1-1.4-3.6,5.85,5.85,0,0,1,1.3-3.8,4.59,4.59,0,0,1,2.8-1.7c.1,0,.2-.1.4-.1a.76.76,0,0,0,.4-.1c-2,1.8-2.6,3.9-1.4,6.3C898.4,769.6,900.5,770.3,902.9,769.9Z" transform="translate(0.04 -0.02)"/></svg>