<svg id="Capa_1" data-name="Capa 1" xmlns="http://www.w3.org/2000/svg" viewBox="0 0 1920 918.94"><defs><style>.cls-1{fill:#2a96b2;}.cls-2{fill:#2d94b3;}.cls-3{fill:#fbfcfc;}.cls-4{fill:#3289cc;}.cls-5{fill:#3c3b3f;}.cls-6{fill:#cdf5fc;}.cls-7{fill:#132765;}.cls-8{fill:#fbc5a1;}.cls-9{fill:#bcdde9;}.cls-10{fill:#95d9e5;}.cls-11{fill:#68becf;}.cls-12{fill:#64bace;}.cls-13{fill:#5bb5c8;}.cls-14{fill:#71bfd2;}.cls-15{fill:#3e4174;}.cls-16{fill:#facfad;}.cls-17{fill:#faaf88;}.cls-18{fill:#f39d74;}.cls-19{fill:#55b1c4;}.cls-20{fill:#e0503c;}.cls-21{fill:#77c7db;}.cls-22{fill:#4dabc2;}.cls-23{fill:#9e3e74;}.cls-24,.cls-30{fill:#fff;}.cls-24{opacity:0.39;isolation:isolate;}.cls-25{fill:#f36188;}.cls-26{fill:#f7be68;}.cls-27{fill:#58b2c6;}.cls-28{fill:#6268ca;}.cls-29{fill:#60b8cb;}</style></defs><title>character-3</title><path class="cls-1" d="M1616.5,672.8c-3.2,9.6-4.8,19.7-9.7,29.2l-35.5-16.4c-10.5,14.3-17.8,30.4-27.7,45.2,5.7,4.7,11.1,8.9,17.5,11.6l14,11-37,47.2c-5.5-4.4-10.5-8.3-15.5-12.4-3.4-2.8-6.8-5.5-9.9-8.6-2.4-2.3-4.5-2.4-7.1-.4-7,5.6-14.1,11-21.1,16.5-4.1,3.2-8.1,6.6-12.1,9.8-1.9,1.5-3.6,3.4-1.9,5.8,3.8,5.4,6,12,11.6,16.1l9.7,15.8a56.27,56.27,0,0,1-5.1,3.6c-10.6,6.6-21.2,13.2-31.9,19.5-2.2,1.3-5,1.6-7.6,2.3-.4-3.9-1-7.8-1.1-11.8-.6-16.6-1.1-33.3-1.7-49.9-.1-2.3-.4-4.6-.4-6.8-.2-6.9-.3-13.7-.4-20.6a33.74,33.74,0,0,1,16.1-.3V796l52.6-40.7-54.2-50.2-1.4.6-1.3,15.4H1441c-.5-7.4-.8-14.8-1.5-22.2-.9-9.5-2.4-18.9-9.1-26.5.4-.8.8-1.7,1.2-2.5a2.09,2.09,0,0,0,.6-.4q45.3.75,90.6,1.6c29.3.5,58.7.9,88.1,1.4A35.05,35.05,0,0,1,1616.5,672.8Z"/><path class="cls-2" d="M1548.4,310.2c6.8,8.5,13.7,17,20.5,25.7a90.56,90.56,0,0,1,4.9,7.7c-2.4.4-4.8,1.2-7.3,1.2-15.8.2-31.7.2-47.5.3-35.2.3-70.5.7-105.7,1.1-2.5,0-5-.1-7.5-.2l1.2-22.6c3.9-1.3,5-3.9,5-8-.1-21.4.1-42.9.2-64.3l19.1,8.1c5.9-10,11.8-20.2,18-30.9a27.65,27.65,0,0,1,4.7,2q21.75,14.85,43.3,29.8a28.12,28.12,0,0,1,3.5,3.4c-4.4,5.5-8.9,10.9-13.2,16.5-3.1,4-6,8.3-9.2,12.6l19.8,17.8,17.9,19.6c5.9-5.3,11.2-9.9,16.4-14.6a27.14,27.14,0,0,0,2.4-3.5l8.5-5.8Z"/><path class="cls-3" d="M1313.3,370c.4,19.8.9,39.6,1.3,59.4q1.5,67.5,2.9,135.1c.4,18.8.4,37.5.6,56.3l-49.4,1.9c-.1-3-.3-5.2-.4-7.4-.2-10.8-.3-21.6-.5-32.3.1-1.5.3-2.9.3-4.4,0-27.7,0-55.5-.1-83.2,0-3.1-.1-6.2.1-9.2.2-3.6.6-7.3,1-10.9,2.1.5,4.3,1.4,6.3,1.3,8.7-.5,17.4-1.2,26.1-1.9,3.4-.3,6.9-.6,10-.8,0-3.5.1-6.4,0-9.3,0-2.3-1-4-3.6-4.2l-2.2-8.3c3.7-1,2.3-4,2.2-6.2-.3-22-.5-44.1-1.1-66.1C1306.7,374.6,1308.2,371.3,1313.3,370Z"/><path class="cls-4" d="M1399.7,346.5V326.1l7.4-2.5-1.2,22.6Z"/><path class="cls-5" d="M1448.4,652.1c.5.8,1,1.5,1.4,2.3C1449.4,653.6,1448.9,652.9,1448.4,652.1Z"/><path class="cls-6" d="M1580.2,396.4a1.18,1.18,0,0,1,1,.1Z"/><path class="cls-5" d="M1452.2,657a1.27,1.27,0,0,1,1.1.5Z"/><path class="cls-5" d="M1450.9,655.8l1.3,1.2Z"/><path class="cls-5" d="M1449.8,654.3l1.1,1.5Z"/><path class="cls-1" d="M1391.3,853.3l-17,7.2c1.4,5,2.7,9.3,3.8,13.7,1.9,7.3,3.7,14.5,5.6,21.8.7,2.6.5,4.6-2.5,5.3-17.8,4.1-35.7,8.3-53.5,12.4a6.91,6.91,0,0,1-1.5-.5c-3.7-11.7-4.2-24.5-5.1-37.5l-53.6,4a10.1,10.1,0,0,0-.7,2.3c-.5,10-1,19.9-1.4,29.9-.3,6.4-1.6,7.5-8,6.9-13-1.3-26.1-2.4-39.1-3.7-4.1-.4-8.1-1.2-13-1.8,1.8-12.6,3.6-24.9,5.5-37.6-14.7-8.9-31.5-11.8-48.2-15.7-5.4,12.2-10.5,24-15.9,36.3a27.34,27.34,0,0,1-4.8-1q-24.75-10.35-49.5-21a15.1,15.1,0,0,1-2.6-1.8c6.1-10.1,10.9-20.8,16.4-31.4-5.6-4.6-10.7-8.5-15.6-12.7-2.6-2.3-4.9-4.9-7.3-7.4l22.8-26.1c-4.4-3.8-8.3-7.2-12.2-10.6s-7.7-6.8-11.4-10.1c2-5.9,3.8-11.2,5.7-16.7l4.8-.6c8.9-.7,17.8-1.5,26.7-2.2.1-.8.2-1.6.3-2.5a20.08,20.08,0,0,0-.1-2.5l-.1-2.5c-.3-5.9-.6-11.7-.9-17.6,1.3-3,1.9-5.9-.4-8.7l-.8-8.8c5.1-.3,8.1-3.2,9.7-7.9l7.5-.6c1.5,4.9,1.8,5.2,5.7,3.7,1.6-.6,3-2,4.4-3.1,4.4,3.1,8.5,6.6,13.1,9.4,9.7,6,19.6,11.6,29.5,17.3l-5.8,6.3,18.7,20.5,3.3-2a55.52,55.52,0,0,1,1.3,7.1c.2,4.9.1,9.8.1,15.5H1373c4.6,0,9.2-.1,13.8-.1.9,11.4,1.9,22.8,2.6,34.2C1390.2,826.2,1390.7,839.7,1391.3,853.3Z"/><path class="cls-7" d="M800.4,848.3a55.47,55.47,0,0,0,2.4,5.6c3.9,6.9,8,13.7,12,20.5a43.19,43.19,0,0,1,1.9,4.5l-8.5,3.7c-2.9.5-4.6-1.4-6.2-3.4-.9-1.1-1.4-2.5-2.4-3.6q-14.7-16.8-29.5-33.5c-8.1-9.1-16.3-18.2-24.5-27.3-1.2-2.6-2.6-5.2-3.6-7.9-3.5-9.6-6.9-19.2-10.4-28.8-1.6-4.4-3.4-8.7-5.1-13.1a262.86,262.86,0,0,0-3.4,29.3c-.5,6.4-.8,12.9-1.2,19.3-.3,4.2-.7,8.4-1,12.5-.4,3.9-.9,7.8-1.2,11.7-1,11.5-1.9,23.1-2.8,34.6-.4,5.9-.9,11.8-1.3,17.6l-11.2,1.3a3.55,3.55,0,0,1-1,.2c-.5-6.3-1-12.7-1.4-19-.5-11.7-1-23.4-1.4-35.2-1.2-9.2-2.4-18.5-3.6-27.7l-1.7-25.8c.1-10.5.2-21,.4-31.5a50.52,50.52,0,0,0,.8-6.8c.2-9,.2-17.9.3-26.8,3.9-.1,5.2-2.2,5.3-6,.1-5.8.9-11.6,1.5-17.4l18.9-.2c.2,7.8.4,15.7.6,23.8h29.8c.3,2.7.4,5.4.9,8.1,2.8,15.6,5.6,31.2,8.5,46.8a90.19,90.19,0,0,0,16,37.5c6.4,11.1,12.8,22.2,19.2,33.2A12,12,0,0,0,800.4,848.3Z"/><path class="cls-2" d="M1402.5,848.9c1-16.3,2-32.7,3-49,.4-7,.9-14.1,1.4-21.1l13,.3c1.9,10.4,3.8,20.8,5.6,31.2,2.2,12.5,4.3,25,6.3,37.4.2,2.1.3,4.1.3,6.2-3.3-.5-4.6-3.1-5.8-5.8-2.7-6-3.6-6.4-9.9-4.3C1411.7,845.4,1407.1,847.2,1402.5,848.9Z"/><path class="cls-7" d="M804.2,903.9c2.5-5.2,5.6-10.1,5.6-16.1,6,2.3,6.8,1.9,8.6-3.8a7.1,7.1,0,0,1,1-1.4l6.2,2.2,1.4,1.4-22.2,23.4C801.9,907.8,804.8,905.7,804.2,903.9Z"/><path class="cls-7" d="M715,899.5c.6,2.5,1.2,5.1,1.7,7.6l-30.1,4.7c.3-1,.3-2.5,1-3a36,36,0,0,1,8.2-4.4c4.4-1.4,6.5-4.1,6.8-8.5,1.9,2.8,2.9,6.3,7,8Z"/><path class="cls-8" d="M715,899.5l-5.4,4.5c-4.1-1.7-5.1-5.2-7-8l.7-4.3a1.8,1.8,0,0,0,1-.2l10.7.2Z"/><path class="cls-9" d="M804.6,909.5l22.2-23.4c.1,1.3.9,3.1.3,3.7-6.2,6.8-12.5,13.3-19,19.9C807.3,910.5,805.7,911.7,804.6,909.5Z"/><path class="cls-6" d="M686.6,911.8l30.1-4.7c1.7,1.8.7,3.5-1.1,3.7-8.9,1.3-17.9,2.4-26.8,3.4C688.2,914.3,687.4,912.6,686.6,911.8Z"/><path class="cls-5" d="M715.1,891.6l-10.7-.2,11.2-1.3A8.8,8.8,0,0,0,715.1,891.6Z"/><path class="cls-2" d="M1209.2,184.7c16.2-.5,32.4-.9,48.6-1.4,4.8-.2,9.5-.8,14.3-1a37.85,37.85,0,0,1,5.8.5v31.5l50.9,8c.7-2.4,1.4-4.3,1.9-6.2,2-7.9,4-15.7,6-23.6.7-2.6,1.5-5.4,5.1-5.3,1.2,1.3,2.3,2.6,3.5,4a55,55,0,0,0,1.7,7,27.57,27.57,0,0,0,2.5,4.4c.8,5.9,5.5,7.1,10.1,8.4-3.7,2.7-7.5,5.2-11.1,8-5,3.9-7.8,8.6-7.8,15.4,0,17.7-.7,35.4-1.1,53.1-1.1.9-2.2,1.8-3.2,2.8-4.1,4.2-8.1,8.4-12.1,12.6l-9.2-23.7-55.8,5.5a27,27,0,0,0,.4,2.8c6.7,16.8,13.3,33.6,20.1,50.4.4,1,2.2,1.3,3.3,2,1.7,2.6.8,5.2-.2,7.8-1.1,2.9-2.4,5.8-3.6,8.6-8.5.4-17,.9-25.6,1.2-14.5.4-28.5,3.5-42.2,7.9l-4.6-10.2,24-20.7-32.2-36.8c-6.9,6-13.6,11.7-20.2,17.4-3.7,3.2-3.6,3.1-8,.7a50,50,0,0,0-6.1-3.1c-2.5-1-3.5-2.5-3.3-5.3.5-6.9.9-13.7,1.2-20.6.1-2.2,0-4.5,0-6.9l-47.9-3.6c-.3,2.4-.5,4.2-.6,6-.5,6.6-.9,13.3-1.4,20-.2,2.4-.7,4.4-3.4,5.3-4.6,1.4-9,3-13.8,4.5l-20.1-23.2-31.7,28.2c-7.9-2.3-15.7-3.4-23.8-1.1-2,.6-4.4-.5-6.7-.8-2.4-5.3-6.8-8.6-11.3-11.9-7.2-7.2-7.2-7.2-15.4-1.6-.7.5-1.4,1.1-2.1,1.7,1.1,5.3,2.1,10.2,3.1,15-3.7-.4-7.4-.4-11-1.2-6.4-1.5-12.6-3.5-19-5.3a.48.48,0,0,0-.6-.2.1.1,0,0,0-.1.1l-3.3-.9c-7.5-4.5-10.4-3.9-13.9,2.5h.2l-1.8,1.1a116.12,116.12,0,0,0-33.4,15.2h.1l-1.9,1.3a27.54,27.54,0,0,0-3.8,2c-6.6,5.5-14.4,8.3-22.4,10.9-19.3,6.1-38.5,12.5-57.7,18.8-7.6,2.5-14.9,5.7-21,10.9a12.15,12.15,0,0,1-9.1,3c-9.8-.7-19.6-1.3-29.3-2-.3-9.7,2.5-19.3,1-29.4l-38.8-2.6-7.4-20,30-26.4L703.5,250c-10.4,9-20.2,17.5-29.9,26-5.4-2.7-10.2-5.2-15.1-7.5-2.3-1.1-2.8-3-2.6-5.2.5-8.5,1.1-17,1.6-25.5l5.4-1.4,2.5-.2,7.7-.5,55.8-6.1,9.2-1.2,26.8-2.3c.2,2.2.4,3.8.6,5.5l5.1,39.6,1.4,5.1a51.86,51.86,0,0,0,1.6,20.2c9.7,2.7,18.7,5.2,27.8,7.8,3.6,1,7.5,3.8,10.4,3s4.9-5.3,7.3-8.2,5.4-5.9,5.8-10.1c.8-.2,1.9-.1,2.3-.6,5.4-6.1,12.1-11.3,15-19.4,4.7-5.1,9.3-10.3,14-15.4a10.84,10.84,0,0,1,1.9.8c7.8,6.1,14.9,13.2,24.4,16.9.7.3,1.1,1.2,1.7,1.8l1,2.2.9-.4-1.2-2.3c-.4-5.9-.8-11.9-1.1-18.3,4.7-1,9.1-2.1,13.6-2.7,3.7-.4,5.8-1.9,6.2-5.6s2.7-7.7-2.4-10.4c-4.3-2.3-8.3-5.3-13-8.2,1.6-2.4,3.1-4.6,4.5-6.9,1.8-3,3.4-6.1,5-9.2a13.24,13.24,0,0,0,6-9.8l7,.6c2.1,1.9,4.2,3.8,6.5,5.5,1.1.8,2.8.8,4.2,1.1,5.1,5,10.2,10.1,15.2,15.2a16.1,16.1,0,0,1,2.1,3c-.9,1.1-1.9,2.2-2.9,3.2-8,6.9-10.8,16.1-10.8,26.1,0,7.1,2.3,13.9,8.2,18.7,5.8,8.4,13.6,13.3,24,13,10.9-.4,20-4.5,26.6-13.5,6.8-6.7,7.9-15.1,7.4-24-.5-2.3-.9-4.5-1.4-6.8a121.14,121.14,0,0,0,39-8.5c1.7,6.3,3.3,12.6,5.2,19.7l-15.3,3.2c-6.1,1.9-8,5.9-6.6,14.5l4.2.3c4.2,5.1,5.3,5.2,9.8.8,5.2-5,10.3-10.2,16.1-15.8l21.2,25.7c.6,0,.9.1,1,0,13.9-8,27.7-16.1,41.6-24.1,2.8-1.6,3.5-3.9,3.2-6.8,2.8,1.3,5.7,2.5,8.3,4,7.5,4.5,14.8,9.2,22.3,13.7,10.3,6.1,20.2,3,26.3-3.1,8-8,8.8-18.4,2.8-27.9-1.1-1.7-2.3-3.5-3.4-5.2,1.5-1.3,2.8-3.3,4.5-3.7,10.1-2.4,20.3-4.6,30.5-6.6,4.4-.9,8.9-1.3,13.7-1.9-.6-4.4-1.4-8.3-1.5-12.1C1211.9,201,1208.1,193.2,1209.2,184.7ZM909.5,281.5c-4.4,0-8.7,1.5-13.7,3.8,6.4,3,10.1,8.4,17.1,10.7.1-2.5.7-4.5.3-6.1C912.5,287.2,911.1,284.8,909.5,281.5Z"/><path class="cls-7" d="M938.5,226.5a16.1,16.1,0,0,0-2.1-3c-5-5.1-10.1-10.1-15.2-15.2l-6.2-8.8a36.16,36.16,0,0,0-1.3-3.5c-9.4-17.9-11.3-36.8-8.3-56.5.3-2.4.7-4.7,1-7.1l4.5-12.7,4-7.1c1-1.1,1.9-2.2,2.8-3.3,7.3-11.5,17-20.4,28.5-27.6l5-3.1,22.6-7.9.6.2.6-.1c4.1-.4,8.2-.9,12.3-1a88.69,88.69,0,0,1,29.3,4.4,83.6,83.6,0,0,1,35.1,21.3c1.2,1.2,2.4,2.3,3.6,3.4l11,14.7c1.2,2.7,2.4,5.3,3.5,8,7.1,16.4,9.7,33.4,5.7,51.1-.9,3.9-.4,4.7,3.8,7.4,13.1,8.3,26.2,16.7,39.4,25,4.2,2.6,8.5,4.9,12.8,7.3,6.6,4.5,13.1,9.1,19.8,13.4,2,1.3,4.4,2,6.6,3l7.4,5.1c1.1,1.7,2.3,3.4,3.4,5.2,6.1,9.5,5.2,19.9-2.8,27.9-6.1,6.1-16,9.3-26.3,3.1-7.5-4.5-14.8-9.2-22.3-13.7a79.31,79.31,0,0,0-8.3-4c-3.3-2.5-6.4-5.3-9.9-7.6-9.4-6.2-18.9-12.1-28.4-18.1-5.6-3.5-11.2-7-15.9-10l-26.1,18.1a118.55,118.55,0,0,1-39,8.5l-7.2.4c-1.6-.7-3.1-1.9-4.8-2.1-13.1-1.6-24.8-6.5-35.7-13.7A12.81,12.81,0,0,0,938.5,226.5Zm2.4-41.4a6.15,6.15,0,0,0,.7,2.3c12.1,19.3,37.1,32.4,61.9,26.4a39.29,39.29,0,0,0,6.7-1.2c11.8-3.9,21.3-11.1,29.1-20.7,5.1-6.3,10.6-12.8,11.6-21,3-25.3-4-47.1-25.2-62.6-8.6-6.3-18.3-10.6-29.5-10.1-10.1-1.1-19.9,0-28.9,5.1l-3.8,1.7c-8.4,4.3-15.3,10-20.2,18.2l-6.1,11.3c-4.1,7.8-5.1,16.4-4.6,24.9C933.2,168.5,934.7,177.6,940.9,185.1Z"/><path class="cls-10" d="M1548.4,310.2l-4.9-4.3-8.5,5.8c-1.7-.6-3.4-1.7-5-1.7-10.6,0-21.1.1-31.7.2l-19.8-17.8c3.1-4.3,6-8.5,9.2-12.6,4.3-5.5,8.8-11,13.2-16.5l68.2,1.7c1.1-4.9,2.1-9,3.3-13.9l54.1,39.7-17.8,12.7L1578,322.6c-1.2.8-2.4,1.5-3.8,2.5-2.8-2.8-3.5-6.3-4.4-9.6-1.9-6.7-3.1-7.4-9.6-6.5C1556.3,309.5,1552.3,309.8,1548.4,310.2Z"/><path class="cls-2" d="M1377.1,205.9c-.9-3.3-1.7-6.6-2.6-9.9l20.7,5.1c-.9,3.7-1.7,7-2.5,10.4Z"/><path class="cls-5" d="M1331.9,169.9l1,.9Z"/><path class="cls-11" d="M1233.4,126.2l-1-.1a4.33,4.33,0,0,1,.1-.5,3.4,3.4,0,0,1,1,.1Z"/><path class="cls-6" d="M906.3,132.5c-9.3.4-18.6.8-27.9,1.3-2.9.1-5.8.6-8.7.7-9.8.5-19.5.8-29.3,1.2-2.1.1-4.1,0-7,0-.2-17-.4-33.5-.6-50V70.1L882.1,64l2.5-.8a2,2,0,0,0,1.1,0,249.65,249.65,0,0,1,21.2,50.6c.7,2.3.7,5.1,3.7,6Z"/><path class="cls-6" d="M822.6,84.5c-.1,4.6-.3,9.2-.2,13.7.2,10.6.6,21.2.6,31.9.1,5.3-.5,5.9-5.7,5.7-18.1-.5-36.2-.7-54.2-3.2-5.5-.8-11.1-.9-17.1-1.4-.1-2.2-.2-3.8-.3-5.4l1.2-4.9.7-1.3,8.3-27.4c.4-1.3.9-2.5,1.3-3.8l-.2-.1,1-1.3c2.9-6.2,5.7-12.4,8.8-18.6,2.3-4.5,2.8-4.3,7.9-3.7,11.9,1.4,23.9,2.6,35.8,3.8l11.1,1.4C822,74.7,822.3,79.6,822.6,84.5Z"/><path class="cls-6" d="M742.1,108.3c-2,6.8-4,13.5-6.1,20.3-4.7,1.2-23.1-1.5-47.6-7.3.8-1.7,1.5-3.3,2.3-4.8,5.1-9.3,9.6-19,15.5-27.8,6.4-9.5,14-18,21.1-27,1.8-2.3,3.2-4.7,4.8-7.1l9.7,2.2,18.2,6A257.53,257.53,0,0,0,742.1,108.3Z"/><path class="cls-6" d="M726.5,53.1c-7.7,4.9-13,12.2-18.6,19.1a181.27,181.27,0,0,0-26.5,44.9,22.61,22.61,0,0,1-1.6,2.6c-4.7-1-9.6-2-14.4-3.1-3-.6-6-1.4-9-2.3-1-.3-1.6-1.5-2.4-2.3l15.6-24,18.6-21c6.6-5.7,13.4-11.3,19.9-17.1,3.8-3.3,7.5-4.2,11.7-1C721.9,50.5,724.3,51.7,726.5,53.1Z"/><path class="cls-6" d="M881.7,58c-4.1.7-8.2,1.3-12.3,2.1a172.31,172.31,0,0,1-35.1,3.1c-1.7-5-1.9-43.9-.4-51.9,3.8-1.6,7,1.3,10.6,1.8,5.8,5.3,12,10.3,17.4,16,5.9,6.4,10.9,13.6,16.3,20.4Z"/><path class="cls-6" d="M810.8,13.2l10.8-2.9V62.8l-10.9.4c-12.6-1.7-25.5-1.9-38.1-6.6C783.4,39.9,795.6,25.3,810.8,13.2Z"/><path class="cls-6" d="M795.6,16.9a35.73,35.73,0,0,1-3,3.8c-9.9,9.3-18.9,19.4-25.7,31.2-1.9,3.3-3.9,3.6-7.1,2.4-5.1-1.8-10.3-3.2-15.5-4.7l-3.5-1.9c2.7-2.1,4.8-4,7-5.6,7.2-5,14.5-10,21.8-15A130.1,130.1,0,0,1,795.6,16.9Z"/><path class="cls-6" d="M951.1,78.7c-1.3-2.5-2.2-5.4-4-7.5-4-4.8-8.4-9.2-12.6-13.8-1.2-1.3-2.4-2.7-3.9-4.4l13.3-5.9a34.18,34.18,0,0,1,4.3,2.1c2.3,1.5,4.4,3.1,6.6,4.7l18.9,16.8Z"/><path class="cls-6" d="M933.3,40.6c-3.8,1.5-7.8,4.4-11.5,4.1s-6.9-4.1-10.4-6.3c-1.7-1.1-3.6-1.9-5.4-2.9-4.1-2.3-8.4-4.3-12.4-6.8A102.32,102.32,0,0,0,859.9,15l-3.9-.7c-.1-.8-.2-1.7-.3-2.5L867,13.1,885.8,18a4.87,4.87,0,0,0,1.1.4l2.6.8,4.9,1.7,2.6.8c10.4,4.9,20.8,9.7,31.1,14.7C930.1,37.3,931.6,39.2,933.3,40.6Z"/><path class="cls-6" d="M804.3,11.9l-7.4,3.2c-10.5,1.3-20,5.4-29.3,10.1-10.8,3.1-19.6,10-28.2,16.6-4.3,3.3-7.6,3.4-11.7,1-1.4-.8-2.8-1.6-5.1-2.8,4-2.4,7.3-4.5,10.7-6.3,19.7-10.1,40.3-17.8,62.3-21.2C798.4,12.2,801.4,12.1,804.3,11.9Z"/><path class="cls-12" d="M884.7,63.2l-2.5.8Z"/><path class="cls-13" d="M1064.4.5l.3-.5a2.34,2.34,0,0,1,.7.7,4,4,0,0,1-.3.4Z"/><path class="cls-14" d="M17,340l1.9,1.3-1.2.5a1.69,1.69,0,0,0-1-.3Z"/><path class="cls-15" d="M16.5,341.5a1.69,1.69,0,0,1,1,.3,1.22,1.22,0,0,1-.9.8A1.38,1.38,0,0,1,16.5,341.5Z"/><path class="cls-16" d="M953.5,311.2l3.3.9h.4l.4.1c6.3,1.8,12.6,3.8,19,5.3,3.6.8,7.3.8,11,1.2l5.1-.2c5.5-.4,11-.8,16.5-1.4,1.3-.1,2.6-1.1,3.9-1.7,2.2.3,4.7,1.3,6.7.8,8.1-2.3,16-1.1,23.8,1.1,5.8,4,11.5,8.1,17.4,11.9,10,6.3,20.2,12.3,30.4,18.3,2.2,1.3,5,1.8,7.4,2.7a10.45,10.45,0,0,0,2.1,2.1q29.55,16.95,59.1,33.8c1.3.6,2.6,1.2,4,1.7,4.8,3.5,9.5,7.8,16.3,4.8,1.5.1,2.9.1,4.4.1,14.7-1.7,29.3-3.4,44-5.2,5.1-.6,10.2-1.6,15.4-2.4l19.4-.8-.2,6,.1-.1-1.2,2.5c-2.1,4.5-4,9-6.2,13.4-4.1,8.3-8.4,16.5-12.4,24.9-.9,1.9-.9,4.3-1.4,6.5l-5.2,5.3-2.7-.5-1.9-.4c-4.1.7-7.1-1.8-10.3-3.6-3-1.7-6-3.6-8.9-5.3l-7.4,4.3c3.8,5.5,5.9,11.5,10.7,15.6,6.1,5.2,12.7,9.9,19.4,15,2.6-2.9,5.2-5.5,7.4-8.4.8-1,.7-2.7.9-4l7.6-7.4c1.9-2.6,3.9-5.1,5.9-7.7,1.4-1.8,2.8-3.4,4.3-5.1l1.3-2.1.2-.3c3.5-.5,4.9,1.1,4.9,4.6-.1,8.7-.1,17.5,0,26.2,0,2.4.8,4.8,1.3,7.2l-.4,4.5c-.3,3.6-.8,7.3-1,10.9-.2,3.1,0,6.2-.1,9.2-3.3.2-6.7,0-9.9.7-22.5,4.6-45.1,9.3-67.6,14.1a66.68,66.68,0,0,1-31.4-.6c-4.2-1.1-8.5-1.8-12.8-2.6a42.49,42.49,0,0,1-6-3.1c-5.8-4.3-11.2-9-17-13.3-4.3-3.2-8.8-5.9-13.2-8.9h0l-1.3-1.3h0l-1.3-1.3h0l-2.5-1.2h0l-2.5-2.5h0L1099,473h-.1l-2.4-1.2h0c-1.5-1.7-2.7-3.6-4.4-4.9-12.3-9.3-24.6-18.6-37-27.7-15.9-11.8-32.1-23.1-47.6-35.5-5.6-4.5-10.9-4.9-17.3-4.1-7.2,1-14.5,1.6-21.8,1.9a17.22,17.22,0,0,0-10.9,3.8c-12.3,9.7-24.7,19.2-36.9,28.8-13.5,10.7-28.7,16.9-46.1,16.3-5.3-.2-10.6-1.5-16-2.4h0l-2.5-1.2c-2.9-3.2-6.7-5.9-8.7-9.6-5.9-11.3-4.5-18.7,5-24,6.8-3.8,12.2-9.3,18.6-13.4,4.9-3.2,9.1-7.2,9.9-13.6.2-1.5,1.4-3,2.2-4.4,9.2-15.1,18.4-30.1,27.6-45.2,2.4-4,1.8-5.6-2.7-6.3-1-.1-2.1-.1-3.1-.1A118.62,118.62,0,0,1,938.2,315l1.8-1.1h-.2Z"/><path class="cls-17" d="M1146.4,506.9c4.3.9,8.6,1.5,12.8,2.6a66.68,66.68,0,0,0,31.4.6q33.75-7.2,67.6-14.1c3.2-.7,6.6-.5,9.9-.7,0,27.7.1,55.5.1,83.2,0,1.5-.2,2.9-.3,4.4l-49.5,4.1c-.6-1.3-1.2-2.6-1.8-3.8-2.7-5.1-4.5-11.1-8.3-15.2-8-8.7-17-16.4-25.6-24.4-3.8-3.5-7.8-6.8-11.7-10.3-7-6.2-14.1-12.3-20.7-18.9C1148.2,512.6,1147.6,509.5,1146.4,506.9Z"/><path class="cls-3" d="M1298,451.9c-.5,1.8-1,3.6-1.4,5.4-7.5,7.6-17.8,9.7-27.2,13.5-.4-2.4-1.3-4.8-1.3-7.2-.2-8.7-.1-17.5,0-26.2,0-3.5-1.4-5-4.9-4.6l21.3-33.5,1.4.3c2.1,17.1,4.3,34.2,6.4,51.5Z"/><path class="cls-4" d="M1280.1,357.5l-.9-1.2c1.2-2.9,2.5-5.7,3.6-8.6,1-2.5,1.9-5.1.2-7.8l8.6-1.1c0,7.6-4.7,12.8-9.2,18.1C1282,357.4,1280.9,357.3,1280.1,357.5Z"/><path class="cls-3" d="M1266.7,382.7c.5-5.1,1-10.2,1.5-15.5l7.9-2.1Z"/><path class="cls-3" d="M1263.2,384.2l3.6-1.6c-1.3,2.5-2.5,5.1-3.8,7.6Z"/><path class="cls-3" d="M1261.8,392.6l1.2-2.5C1262.6,391,1262.2,391.8,1261.8,392.6Z"/><path class="cls-3" d="M1263,433.1l-1.3,2.1Z"/><path class="cls-18" d="M1146.4,506.9c1.2,2.6,1.9,5.7,3.8,7.6,6.7,6.5,13.8,12.6,20.7,18.9,3.9,3.5,7.9,6.8,11.7,10.3,8.7,8,17.7,15.8,25.6,24.4,3.8,4.1,5.6,10.1,8.3,15.2.6,1.3,1.2,2.6,1.8,3.8l-1.6,11.7a31,31,0,0,1-10.9,19.8c-2.7,2.3-5.3,4.7-7.9,7a23.69,23.69,0,0,0-3.6.9c-11,4.7-21.9,3.8-32.6-1a16.45,16.45,0,0,0-3.1-.4c1.3,1.6,1.9,2.4,2.5,3.1,11.9,13,12.7,31.2-1.1,43.8-2.4,2.2-4.6,4.7-6.9,7.1l-10.3,5.6a10.44,10.44,0,0,0-2.5,0c-16.5,2.4-32-2.4-43.8-13.6-.2-.2-.7.1-.8.1-.5,5.4-1.1,10.7-1.6,16l-10.7,14.4c-2,1-4.1,2.1-6.1,3.2-7.5,3.8-15.4,4.7-22.9,1.1-5.9-2.8-11.3-7-16.7-10.8-3.3-2.3-6.2-5.1-9.3-7.7l-1.2,1,3,5.1c-.1,2.5-.2,5-.4,7.5-.9,12.2-7.5,20.5-18.1,25.7-10,5-18.9,2.1-27.1-4.7-5.3-4.4-10.7-8.5-16.2-12.7-3.3-2.5-3.9-2.2-6.4,1.9-2.8,0-2.8,2.5-3.7,4.2l-3.8,3.2a57.82,57.82,0,0,1-22.6,12.5c1-1,1.9-2.3,3.1-2.9,6.1-3.1,9.7-8.3,12.1-14.5,1.9-4.8,3-10,5.4-14.5,6.8-12.5,7-24.8.7-37.4,8,.6,12,7.2,18,12.9.4-3,.8-4.7,1-6.5.9-7.9-1.3-15.3-3.8-22.6l.1-.1a59.67,59.67,0,0,1,7.1,3.7,46,46,0,0,0,16.6,7c14.3,3.1,32-6.7,36.9-20.5a38.75,38.75,0,0,0,.4-24.5c-.6-2.1-1.2-4.2-1.9-6.7,2.6,0,4.3-.3,5.8,0,10.8,2.5,20.2-.6,29-6.6,10.6-7.3,16.1-17.9,15.8-30.3-.3-10.2-3.3-20.2-11.6-27.5a77,77,0,0,1-5.4-6h0c3.5,0,7.1.2,10.6,0,3.7-.1,7.6.2,11.1-.9a40.34,40.34,0,0,0,28-45c-.4-2.2-.5-4.5-.8-6.8,4.4,2.9,9,5.7,13.2,8.9,5.8,4.3,11.3,9,17,13.3A27.63,27.63,0,0,0,1146.4,506.9Z"/><path class="cls-3" d="M1153.1,679.3c2.3-2.4,4.5-4.9,6.9-7.1,13.8-12.7,13-30.9,1.1-43.8-.6-.7-1.2-1.5-2.5-3.1a11,11,0,0,1,3.1.4c10.7,4.8,21.6,5.6,32.6,1a23.69,23.69,0,0,1,3.6-.9V641c-3.6.3-7.7.9-11.8,1.1-8.1.4-8.1.3-10.7,7.6-.2.6-.6,1.1-.8,1.7a13.8,13.8,0,0,0-.3,2l11.4,10.8,22.9-19.8c3.2,3.5,6.4,6.8,9.3,10.2,1.8,2.1,3.6,3.5,6.4,2s6.5-1.8,6.5-6.4c0-4.1.7-8.2,1.1-12.7,9.5-1.5,18.4,1.1,28.4.9-.3,4.9-.4,9.1-.8,13.4-.3,3.4.6,6,3.9,7.8,2.8,1.5,5,1.7,7.4-.6,3.4-3.3,6.9-6.6,10.7-10.2l2.8,2.2c1.7,2.3,3.4,4.7,5.2,6.8,3.6,4.2,7.4,8.3,11.4,12.8l-14,12.7a39.9,39.9,0,0,1,1.3,4.2c.9,3.6,3.1,4.8,6.9,4.8,4.3,0,8.6.7,13.6,1.2-.6,8.5-1.1,16.7-1.7,24.9-.3,2.4-1.3,3.8-4,3.7-3.7-.1-7.4-.1-11.2-.1-2.3,0-4.7-.1-5.6,2.7-1,3-3,6,.1,9.2,3.5,3.5,6.8,7.2,10.2,10.8l-22.9,18.8c-2.4-2.7-4.8-5.5-7.3-8.3-5.7-6.3-5.7-6.3-13.6-2.4-.2.1-.3.3-.7.7-.4,5.4-.7,11.1-1.1,17.4l-28.9-1.5c0-2.9-.1-5.3,0-7.7a62.25,62.25,0,0,1,.9-7.4c.4-3-1.2-4.5-3.7-5.7s-4.6-2-6.9,0c-2.7,2.5-5.5,5-8.3,7.4l-3.3,2L1182,737.5l5.8-6.3c1.6-1.4,3.1-2.8,4.7-4.1,2.3-1.8,2.8-3.8,1.5-6.5s-2-5.9-6.3-5.8-8.7-.3-13.6-.5V701.5c1-5.2,1.9-10.4,2.9-15.6h6.4c2.1.1,4.1.4,6.2.3,4.8-.2,10-7.5,7.7-11-2.3-3.3-4.7-6.7-8-8.7l-5.1,6.1-13,15.7-3.6,2.5ZM1264.5,720c5.1-4.4,6.1-10.3,6.1-16.5,0-14.2-11.3-27.4-24.5-29.2-15.4-2.1-29.7,6.3-33.6,20.8-2.2,8.1-2.5,16.6,4,23.6,5.2,9.6,13.9,14.4,24.3,14.3,9.7.1,18.6-3.6,23.7-13Z"/><path class="cls-9" d="M1566.2,385.1l-.2.4.2-.4Z"/><path class="cls-3" d="M932.1,731.4a59.11,59.11,0,0,0,22.6-12.5l3.8-3.2c0,1,.1,1.9.1,2.9a45.29,45.29,0,0,0-2.6,28.8c.4,2.2.9,4.5,1.5,6.6,7.4,20.8,27,34.6,51.2,34.4,1.4-.3,2.8-.6,4.3-.8,18.2-2.2,38.7-17.7,42.5-42.3,2.5-15.9-3.5-39.6-25.2-51.6l-3-5.1,1.2-1c3.1,2.6,6,5.4,9.3,7.7,5.4,3.8,10.8,8,16.7,10.8,7.5,3.6,15.4,2.6,22.9-1.1,2-1,4.1-2.1,6.1-3.2,1.2,6.4,1.4,6.5,7.4,6.1,1.2-.1,2.5-.3,3.7-.3H1117c.3,1.5.7,3.1,1,4.6l.8,8.8.4,8.7c.3,5.9.6,11.7.9,17.6,0,.8.1,1.7.1,2.5s.1,1.7.1,2.5a24.18,24.18,0,0,1-.3,2.5c-8.9.7-17.8,1.4-26.7,2.2-1.6.1-3.3.4-4.8.6-1.9,5.5-3.7,10.8-5.7,16.7,3.7,3.3,7.6,6.7,11.4,10.1s7.9,6.8,12.2,10.6l-22.8,26.1-9.9,10.9-15.3-13.1c-2.1-2-4.1-4.1-6.1-6.2-1.8-1.8-3.7-1.7-5.7-.7l-12.5,6.2c.8,6.5,1.5,12.9,2.3,19.3.1,2.9.3,5.9.4,8.8-.2,3-2.2,3.4-4.7,3.5-7,.4-13.9,1-20.9,1.5l-2.5.1c-4.8.2-9.6.5-14.4.6-2.4-.1-4.8-.4-7.2-.7-.5-10.2-.9-20.5-1.4-30.7L971,816.4l-1.4,1.1-4.8,5.3-1.8,2.1c-1.9,2.2-3.8,4.4-5.8,6.6l-1.8,2.1-4.6,5.3c-4.2.9-4.7-3.8-7.5-5l-1.2-1.1-.1-.1-2.3-1.4-7.1-5.2c-2.9-3.2-5.7-6.5-8.9-9.5-3.7-3.5-7.6-6.8-11.1-9.9l20.8-23.2c-3-5.5-5.7-10.5-8.3-15.3l-29.7,1.9-2-7.9-44.9,36.1c-1.4-1.5-2.4-2.5-3.3-3.6-9.4-11.7-18.9-23.3-28.3-35-3.5-4.3-3.6-4.1-8.9-2.5q-9.6,3-19.2,5.4c-3.2.8-5.1,2.1-5.4,5.7-.7,8.1-1.7,16.2-2.7,24.2-.8,6.4-1.8,12.7-2.7,19.1a91.31,91.31,0,0,1-16-37.5c-2.8-15.6-5.7-31.2-8.5-46.8-.5-2.7-.6-5.4-.9-8.1l6.7-.8c-.2-4.2-.3-7.9-.5-11.6l19.4-3.2c.9,3.3,1.7,6.5,2.6,9.8.6,2.2-.5,5.1,2.4,6.5-.4,3.4-.9,6.8-1.4,10.2,3.5.9,3.5.9,6.2,5.7,2.1,3.7,5,4,6.9.3a11.53,11.53,0,0,0,.8-7.1c-.8-3.2-2.6-6-4-9,0-5.1-.1-10.2,0-15.3,0-1.8.2-3.5.3-5.3,8.3-3.7,16.2-7.9,22.7-14.3l1.3-1.2.1-.1c1.7-1.4,3.5-2.7,5.1-4.2,2.1-1.9,4-3.9,6-5.9l2.3,3c3.6,4.8,6.7,10,10.8,14.3,6.7,7,20.1,12.2,32.9,5.7a31.49,31.49,0,0,0,12.2-10.4c1.4-2.1,2.3-5.1,5.8-5.1l-3,8.4-8.6,11.9,9.8,11.4c2,2.9,3.9,5.9,6.1,8.6C904.8,732.1,918.4,735.8,932.1,731.4Z"/><path class="cls-3" d="M1142.8,684.9c.3,6,.6,12.1.9,18.1l-8.4.8-7.5.6h-16.2c-.3-5.9-.8-11.1-.9-16.3-.1-3-1.6-4.6-4.1-5.6-4.7-1.9-6.2-1.5-9.7,2.5a32,32,0,0,1-2.7,2.5c.5-5.3,1.1-10.6,1.6-16,.1,0,.6-.3.8-.1a51.14,51.14,0,0,0,43.8,13.6A6.28,6.28,0,0,1,1142.8,684.9Z"/><path class="cls-2" d="M1094.1,687.4a32,32,0,0,0,2.7-2.5c3.5-4,5-4.4,9.7-2.5,2.5,1,4,2.6,4.1,5.6.1,5.2.5,10.4.9,16.3h16.2c-1.6,4.7-4.6,7.6-9.7,7.9-.4-1.6-.7-3.2-1-4.6h-22.4c-1.2,0-2.5.3-3.7.3-6.1.5-6.3.3-7.4-6.1Z"/><path class="cls-2" d="M1135.2,703.7l8.4-.8,1.7,1.4c-1.5,1-2.8,2.4-4.4,3.1C1137,708.9,1136.7,708.6,1135.2,703.7Z"/><path class="cls-2" d="M1119.1,729.7l-.4-8.7C1121.1,723.8,1120.4,726.7,1119.1,729.7Z"/><path class="cls-2" d="M1120.2,749.7c0-.8-.1-1.7-.1-2.5A20.08,20.08,0,0,0,1120.2,749.7Z"/><path class="cls-2" d="M1120.1,754.7c.1-.8.2-1.6.3-2.5A11.34,11.34,0,0,0,1120.1,754.7Z"/><path class="cls-10" d="M289.5,729.6l-3.9-4.3c4.8-4.6,9.5-9.3,14.3-13.8,2.1-2,4.4-3.8,6.6-5.8,7.8-7.3,15.5-14.5,23.1-21.9,1.7-1.6,2.6-4,3.8-6.1l5-.7,29.5.1a20,20,0,0,1,3.1,2.7c3.2,3.6,6.4,7.4,9.9,11.4l7.7-7.4c1.9-1.8,4.3-2.5,6.2-1.1,1.6,1.2,2.6,3.5,3.3,5.5.4,1.2-.6,2.8-.6,4.2-.1,2.2,0,4.3,0,6.9,7.9.2,14.8.8,21.6-.1.7-4.2.9-7.7,1.9-11.1s4.3-4.7,7.3-2.7a18.5,18.5,0,0,1,3.9,4c1.4,1.7,2.7,3.5,4.5,5.8,5.5-4.9,10.7-9.3,15.6-13.9.9-.8.9-2.6,1.4-4l53.8-.2a40.87,40.87,0,0,1,.7,6c-.1,13.9-.3,27.8-.5,41.8-.1,3.4,1.5,4.8,4.7,5.4a42.57,42.57,0,0,1,6.3,2.2l-4.2,42.3-5.8.2c-38.5.3-77.1-2.5-115.4-1.3-1.4,6.3-1.3,9.6.1,16.1v20.6l-15.1-11.8c-3-2.6-5.8-5.3-8.9-7.7-23.4-18.2-46.8-36.5-70.3-54.6C296,734,292.7,731.8,289.5,729.6Z"/><path class="cls-2" d="M1036.4,837.5c-.7-6.4-1.5-12.8-2.3-19.3l12.5-6.2c2-1,3.9-1.2,5.7.7,2,2.1,4.1,4.1,6.1,6.2-3.7,4.3-7.3,8.7-11.1,12.9-1.6,1.6-3.2,3.1-4.9,4.6Z"/><path class="cls-16" d="M819.3,882.5a7.1,7.1,0,0,0-1,1.4c-1.8,5.7-2.6,6.1-8.6,3.8l-1.5-5.1,8.5-3.7Z"/><path class="cls-19" d="M950.9,838.7l4.6-5.3,1.7.2C956.7,837.3,954.4,838.8,950.9,838.7Z"/><path class="cls-14" d="M939.7,831.2l2.3,1.4Z"/><path class="cls-14" d="M957.2,833.6l-1.7-.2,1.8-2.1A17,17,0,0,1,957.2,833.6Z"/><path class="cls-12" d="M1008.7,851.3l2.5-.1Z"/><path class="cls-14" d="M963.1,824.7l1.8-2.1Z"/><path class="cls-14" d="M942.2,832.6l1.2,1.1Z"/><path class="cls-3" d="M602.6,565.6c.3-12.1.8-24.2,1-36.3.6-37.7,1.1-75.5,1.8-113.2.3-20.4.9-40.9,1.3-61.3l42.7,1.3c.3,4.7.6,8.8.9,12.9-.3,7.7-.9,15.4-.9,23.1,0,6,.7,12,.7,18.1.1,58.6.3,117.1.3,175.7,0,2.7-.1,5.4.1,8.1.2,4.5.7,5,5.2,5.2,5.2.2,10.4.3,15.6.5-1.8,11.1-2.4,22.3-.6,33.4-2.7-3.4-5.3-6.8-8.1-10.2s-5.7-6.5-8.6-9.7c-.1-1.5,0-2.9-.2-4.4-.9-5.8-4.3-9.3-10-10.5s-9.3,2.8-7.6,8.4a9.16,9.16,0,0,0,1.8,3.2c2.3,2.4,4.7,4.7,7,7.1-1.8,2.8.4,4.8,1.7,6.7q14.7,22.5,29.5,44.9c2.6,3.9,2.8,3.9,7.1,2.3a36.69,36.69,0,0,1,4.7-1.3,80.44,80.44,0,0,1,.9,9c.2,10.8.1,21.7.2,32.5,0,2.2.2,4.5.3,6.8l7.3.8c-.1,9-.1,17.9-.3,26.8a52.5,52.5,0,0,1-.8,6.8L673,740.1l-7.8,7c-9.9,7.7-19.8,15.3-29.6,23.1-1.3,1.1-1.9,3-2.9,4.6l-2.5.2c-1.5-2.2-2.9-4.5-4.6-6.6q-15.6-19.2-31.5-38.3c-1.4-1.7-3.4-2.8-5.1-4.2a19.53,19.53,0,0,1-1.2-4.6c-.3-5.4.1-10.9-.7-16.2-.5-3.6.4-6,3-8l29.6-23.4-8.1-26.8h-9.8l.3-6c1.9-4.6,3.9-9.2,5.8-13.7,3-3.9,5.8-7.8,6.4-12.8,0-1.1,0-2.2.1-3.2,3.8-3.2,5.6-6.9,3.1-11.7.1-1.2.3-2.3.6-4.2l-11.8.7c-.4,2.5-.4,4.4-1.1,6.1-.6,1.5-1.9,2.7-2.9,4,0-2.1.1-4.3.1-6.4C602.5,588.1,602.5,576.8,602.6,565.6Z"/><path class="cls-20" d="M791.9,699.1c-.1,1.8-.3,3.5-.3,5.3v15.3h-8.4c-2.9-1.4-1.8-4.3-2.4-6.5-.9-3.3-1.7-6.5-2.6-9.8-1.6-10-3-19.9-4.7-29.9-.7-4.2-2-8.4-3.1-12.5-.1-1,.2-2.2-.3-3-6-9-12.2-18-18.3-27l-1.1.6c1.1,3.3,2.2,6.7,3.4,10-.5,3.3-1.5,6.5-1.5,9.8a118.26,118.26,0,0,0,.9,16.8c1.6,12.8,3.6,25.5,5.4,38.3.2,3.7.3,7.4.5,11.6l-6.7.8H722.9c-.2-8.1-.4-15.9-.6-23.8.1-2.3.4-4.6.4-6.8.2-24.4.1-48.8.7-73.3.4-15.5,2.3-30.8,9.1-45.1,16.3,4.6,29.7,12.8,36.3,29.4.8,2.1,1.9,4.2,2.9,6.2,2.9,6.2,5.8,12.4,8.7,18.5a27.46,27.46,0,0,0,1.1,4.1c5,11.3,8.3,22.9,8.3,35.3a15.53,15.53,0,0,0,.8,3.6C789.2,677.9,790.6,688.5,791.9,699.1Z"/><path class="cls-20" d="M653.9,613.3c2.9,3.2,5.8,6.4,8.6,9.7s5.4,6.8,8.1,10.2c1.5,2.1,3,4.3,4.6,6.6,3.9-2.8,5.1-6.4,6-10,2.1-8.1,3.9-16.2,5.8-24.3,1.2-4.4,2.1-8.9,3.7-13.2,3.9-10.1,8.8-19.4,20.1-23-.2,5-.4,10-.7,15-.7,10.8-1.5,21.6-2.2,32.4-1.1,17.7-2.3,35.3-3.3,53-.5,8.5-.8,17-1.2,25.6-.5,5.8-1.3,11.6-1.5,17.4-.1,3.8-1.4,5.9-5.3,6l-7.3-.8c-.1-2.3-.3-4.5-.3-6.8-.1-10.8-.1-21.7-.2-32.5,0-2.8-.6-5.6-.9-9-2.1.6-3.4.8-4.7,1.3-4.2,1.6-4.5,1.6-7.1-2.3-9.9-15-19.7-29.9-29.5-44.9-1.3-2-3.5-3.9-1.7-6.7Z"/><path class="cls-3" d="M703.4,695.5c.4-8.5.7-17.1,1.2-25.6,1-17.7,2.2-35.3,3.3-53,.7-10.8,1.5-21.6,2.2-32.4.3-5,.5-10,.7-15,1,.9,2.6,1.6,2.9,2.7,1.2,3.5,3.7,3.9,6.7,3.5,3.6-.4,4.3-3.2,5.2-5.9l6.7.4c-6.8,14.3-8.7,29.6-9.1,45.1-.6,24.4-.5,48.8-.7,73.3,0,2.3-.2,4.6-.4,6.8Z"/><path class="cls-3" d="M745.7,814.8l-23.8-1.2c.4-6.4.7-12.9,1.2-19.3a262.86,262.86,0,0,1,3.4-29.3c1.7,4.4,3.5,8.7,5.1,13.1,3.5,9.6,6.9,19.3,10.4,28.8C743.1,809.6,744.4,812.2,745.7,814.8Z"/><path class="cls-6" d="M696.9,809.7h-4a124.57,124.57,0,0,1,2.4-25.8Z"/><path class="cls-21" d="M1512.4,755.3l-54.2-50.2-1.4.6-1.3,15.4h-14.4l2.6,58.7a33.74,33.74,0,0,1,16.1-.3V796Z"/><path class="cls-21" d="M1370.8,719.7h-2.6c-18,0-36,0-54-.1-2.4,0-4.8-.8-7.2-1.2-.3,2.4-1.3,3.8-4,3.7-3.7-.1-7.4-.1-11.2-.1-2.3,0-4.7-.1-5.6,2.7-1,3-3,6,.1,9.2,3.5,3.5,6.8,7.2,10.2,10.8l-22.9,18.9c-2.4-2.7-4.8-5.5-7.3-8.3-5.7-6.3-5.7-6.3-13.6-2.4-.2.1-.3.3-.7.7-.4,5.4-.7,11.1-1.1,17.4l-28.9-1.5c0-2.9-.1-5.3,0-7.7a62.25,62.25,0,0,1,.9-7.4c.4-3-1.2-4.5-3.7-5.7s-4.6-2-6.9,0c-2.7,2.5-5.5,5-8.3,7.4a55.52,55.52,0,0,1,1.3,7.1c.2,4.9.1,9.8.1,15.5h167.7c4.6,0,9.2-.1,13.8-.1-1.6-19.6-3.2-39.3-4.9-58.9Z"/><path class="cls-21" d="M1414.6,734.5c-.4-11.4-.5-11.8-3.7-14.3-1.1,4.9-1,9.6-1.2,14.2h0c-.9,14.7-1.8,29.5-2.8,44.2l13,.3c-.6-6.4-.9-12.9-1.7-19.3C1417.2,751.4,1415.8,743,1414.6,734.5Z"/><path class="cls-10" d="M583.7,732.7l5.3-6.8c1.7,1.4,3.7,2.5,5.1,4.2q15.9,19,31.5,38.3c1.7,2.1,3.1,4.4,4.6,6.6-6.2,3.7-12.9,2.3-19.5,1.8-9.5-.8-19-1.3-28.5.5.4-11.7.9-23.5,1.3-35.2C583.6,738.9,583.7,735.8,583.7,732.7Z"/><path class="cls-9" d="M552.1,779.3l-4,.2c.5-3.3,1-6.6,1.6-10h1.4Z"/><path class="cls-8" d="M720.4,575.5c-3,.4-5.5,0-6.7-3.5-.4-1.1-1.9-1.8-2.9-2.7-11.3,3.6-16.3,12.9-20.1,23-1.6,4.2-2.5,8.8-3.7,13.2-.1-3.9-2.4-5.5-5.9-5.6-3.3-.1-6.6-.2-9.9-.2-5.2-.2-10.4-.3-15.6-.5-4.5-.2-4.9-.7-5.2-5.2-.1-2.7-.1-5.4-.1-8.1q-.15-87.9-.3-175.7c0-6-.8-12.1-.7-18.1.1-7.7.6-15.4.9-23.1,2.5,0,5-.1,7.5,0,7.5.2,15,.5,22.5.7,1.7.5,3.4,1.4,5.2,1.5,13.3.6,26.6,1,39.8,1.5,2.3.1,4.6.4,6.8.5,9.1.5,18.2.9,27.3,1.4,9.8.7,19.6,1.3,29.3,2a12.15,12.15,0,0,0,9.1-3c6.1-5.2,13.4-8.4,21-10.9q28.8-9.45,57.7-18.8c8-2.5,15.8-5.4,22.4-10.9a19.75,19.75,0,0,1,3.8-2l1.9-1.3h-.1c1,0,2.1,0,3.1.1,4.5.7,5.2,2.2,2.7,6.3-9.2,15.1-18.4,30.1-27.6,45.2-.9,1.4-2,2.9-2.2,4.4-.8,6.4-5,10.4-9.9,13.6-6.4,4.2-11.7,9.6-18.6,13.4-9.5,5.3-10.9,12.7-5,24,2,3.7,5.7,6.4,8.7,9.6l2.5,1.2h0c.6,1.3,1,2.9,2,3.7,4.8,3.7,9.6,7.4,15.7,8.7,19.4,4.2,37.3,1.1,53.1-11.2q18-13.95,35.8-28.2a17,17,0,0,1,12-4.2c3.5.2,7-.6,10.5-.9,6.4-.5,12.4-.7,18.5,3.1,27.6,17.1,55.6,33.7,83.5,50.4,2,1.2,4.6,1.7,6.9,2.4h0l2.4,1.2h.1c.2,2.4,1.8,2.7,3.7,2.5h0c.8.8,1.6,1.7,2.5,2.5h0l2.5,1.2h0l1.3,1.3h0l1.3,1.3h0c.3,2.3.4,4.5.8,6.8,3.3,20.9-9.6,39.1-28,45-3.4,1.1-7.4.8-11.1.9-3.5.1-7.1,0-10.6,0l-.3-.3.3.3a77,77,0,0,0,5.4,6c8.3,7.3,11.3,17.3,11.6,27.5.4,12.5-5.2,23.1-15.8,30.3-8.7,6-18.2,9.2-29,6.6-1.5-.4-3.2,0-5.8,0,.7,2.5,1.3,4.6,1.9,6.7a38.07,38.07,0,0,1-.4,24.5c-4.9,13.8-22.7,23.6-36.9,20.5a46,46,0,0,1-16.6-7,68.48,68.48,0,0,0-7.1-3.7l-.5-.2.4.3c2.6,7.3,4.8,14.7,3.8,22.6-.2,1.8-.5,3.5-1,6.5-6-5.7-10-12.3-18-12.9-5.7-6.1-11.6-11.7-20.4-12.7-.7-.1-1.4-.8-2.1-1.2.4-4.1,1.6-8.4,1-12.4-1.9-12.7-8.4-22-21-26.3h-1.4c-1.2-1.1-2.5-2.2-3.7-3.3a27.71,27.71,0,0,0-14.6-7.7A23.36,23.36,0,0,0,865.2,611a5.85,5.85,0,0,1-2.9,2.9,64.6,64.6,0,0,1-6.9,2.6c-1.8-2.5-3.9-4.9-5.5-7.6-5.6-9.4-13.1-16.1-24.4-17.4-7.8-.8-15.6-1.1-23.1-3.7-1.5-2.5-2.9-5-4.4-7.5a26.16,26.16,0,0,0-10.4-10.2,64.38,64.38,0,0,1-21.9-18.2,379.29,379.29,0,0,1-23-31.9,27,27,0,0,0-19.6-13c-11.6-1.8-20.6,2.1-24.6,13.1-2.6,7.2-1.6,14.2,1.7,21,.9,4.5,1.3,9,2.7,13.3,1.5,4.9,4.6,6.3,9.7,5.2l8.8-1.9c1.7,5,1.7,6.2.7,10.2A71.54,71.54,0,0,1,720.4,575.5Z"/><path class="cls-3" d="M759.3,374.7c-9.1-.5-18.2-.9-27.3-1.4-2.3-.1-4.5-.5-6.8-.5-13.3-.5-26.6-.9-39.8-1.5-1.7-.1-3.4-1-5.2-1.5,0-13.1-2.7-25.6-9.8-36.8-5.4-8.5-12-15.8-21.3-20.3a22.41,22.41,0,0,0-3.4-2.7c-11.1-5.4-22.7-8.2-35-6.7-5.7.7-11.4,2.2-17.1,3.4a63.93,63.93,0,0,0-20.9,13.4c-6.3,6.1-12.3,12.5-14.3,21.6H519.6l-5.3-.7c2.3-5.9,3.9-11.9,3.2-18.3l.2-.1,1-1.1c6-12.2,16.6-41.1,16.8-46.3-2-.2-4.1-.3-6.1-.5-7-.7-14-1.4-21-2.2L547,239.1c9,10.2,17.6,19.9,25.9,29.3,6.4-2.1,12.2-4.1,18.1-6,2.2-.7,2.8-2.2,3-4.2.3-4.8.7-9.5,1.1-14.3.5-6.6,1.1-13.2,1.7-20.3,2.5,0,4.6-.1,6.6,0,6.4.3,12.9.6,19.3,1l7.2,1.1,33.4,1.8.7,6c-.4.9-.8,1.9-1.1,2.8l-5.4,1.4c-.6,8.5-1.1,17-1.6,25.5-.1,2.2.4,4.1,2.6,5.2,4.9,2.4,9.6,4.8,15.1,7.5,9.7-8.4,19.5-17,29.9-26l40.6,46.4-30,26.4,7.4,20,38.8,2.6C761.8,355.4,759.1,365,759.3,374.7Z"/><path class="cls-3" d="M1211.4,365.3c1.1,5.6,1.1,5.6,6.6,5.9l21.8,1.2c1.2.1,2.4.4,4.1.7V385c-5.1.8-10.2,1.8-15.4,2.4-14.6,1.8-29.3,3.5-44,5.2a21.58,21.58,0,0,1-4.4-.1l-1.5-13.8a5.92,5.92,0,0,0,.1-1.9c-6.4-20.6-22.5-34-42-37-14.1-2.1-26.6,1.9-38.1,10.1-2.5-.9-5.2-1.4-7.4-2.7-10.2-6-20.4-12-30.4-18.3-6-3.7-11.6-7.9-17.4-11.9l31.6-28.2,20.2,23.1c4.7-1.6,9.2-3.2,13.8-4.5,2.8-.8,3.3-2.9,3.4-5.3.4-6.6.9-13.3,1.4-20,.1-1.8.4-3.6.6-6l47.9,3.6c0,2.4.1,4.6,0,6.9-.4,6.9-.7,13.7-1.2,20.6a4.67,4.67,0,0,0,3.3,5.3,50,50,0,0,1,6.1,3.1c4.4,2.5,4.3,2.5,8-.7,6.6-5.7,13.2-11.4,20.2-17.4l32.2,36.7-24,20.7Z"/><path class="cls-6" d="M903.5,201.2l-44.7-.3H834.2c-.4-1.8-.7-3.4-1-5,.1-15.2.1-30.4.2-45.5,0-1.7,0-3.3.1-5a3.08,3.08,0,0,1,2.9-3.1h.3a20.9,20.9,0,0,0,2.5-.1c16-.5,32-.9,48-1.5,6-.2,12-.8,18-1.2-3,19.7-1,38.6,8.3,56.5a20.94,20.94,0,0,1,1.3,3.5l-4.4,2.2Z"/><path class="cls-6" d="M738.2,228.3c0-4.4-.1-8.8-.1-13.1,0-2.5,1.3-3.9,3.9-3.9h73.2c2.4,0,4.9.3,7.7.4v55.2l-52.4,4.3-5.1-39.6c-.2-1.6-.3-3.3-.6-5.5Z"/><path class="cls-6" d="M842.1,268.8l-7.3-2.2V211.3l62.7-.3c-1.7,3.1-3.3,6.2-5,9.2-1.3,2.3-2.9,4.4-4.5,6.9,4.7,3,8.7,5.9,13,8.2,5,2.7,2.7,6.7,2.4,10.4s-2.5,5.2-6.2,5.6c-4.5.5-8.9,1.7-13.6,2.7.4,6.4.8,12.3,1.1,18.3a3,3,0,0,1-.7.5c-.6-.6-1-1.5-1.7-1.8-9.5-3.6-16.6-10.8-24.4-16.9a10.84,10.84,0,0,0-1.9-.8C851.4,258.5,846.7,263.6,842.1,268.8Z"/><path class="cls-6" d="M938.5,226.5a19.57,19.57,0,0,1,3.4,1.2c10.9,7.2,22.6,12.1,35.7,13.7,1.7.2,3.2,1.4,4.8,2.1-2.9,12-5.9,24-8.9,36.3-8.1-1.6-15.3-3.3-22.7-4.3-5.9-.8-11.8-2.9-17.8-1.1-5.9-4.8-8.1-11.5-8.2-18.7-.1-10,2.8-19.2,10.8-26.1A28.68,28.68,0,0,0,938.5,226.5Z"/><path class="cls-6" d="M772,276.2c8.7-.3,17.3-.5,26-.9,8.1-.3,16.1-.6,24.9-1,.6,4.9,1.3,9.7,1.9,14.5-.4,4.3-3.3,7.1-5.8,10.1s-4.3,7.3-7.3,8.2-6.9-2-10.4-3c-9-2.6-18.1-5.1-27.8-7.8C772,290.2,770.9,283.3,772,276.2Z"/><path class="cls-6" d="M673.2,235.6V213.3c5.1-1.4,48.1-1.7,54.4-.3,2,5.3,1.8,10.9,1.3,16.5Z"/><path class="cls-6" d="M992.5,318.4l-5.1.2c-1-4.9-2-9.8-3.1-15a17.33,17.33,0,0,1,2.1-1.7c8.2-5.6,8.2-5.6,15.4,1.6C998.6,308.4,995.5,313.4,992.5,318.4Z"/><path class="cls-6" d="M1018.5,257.5c-.4,2.8-.6,5.5-1.1,8.3-.3,2.2-.9,4.3-1.3,6.5l-4.2-.3C1010.5,263.5,1012.4,259.5,1018.5,257.5Z"/><path class="cls-6" d="M983.6,274c1.9-7.5,3.6-15,5.6-22.5.1-.6,1.2-1,1.8-1.5C991.5,258.9,990.3,267.3,983.6,274Z"/><path class="cls-3" d="M953.5,311.2l-13.9,2.5C943.1,307.2,946.1,306.7,953.5,311.2Z"/><path class="cls-21" d="M910.5,201.8l4.4-2.2,6.2,8.8c-1.4-.3-3-.3-4.2-1.1C914.7,205.6,912.6,203.7,910.5,201.8Z"/><path class="cls-6" d="M664.1,233.5c.5.9.9,1.7,1.4,2.6l-2.5.2C663.3,235.5,663.7,234.5,664.1,233.5Z"/><path class="cls-6" d="M884.8,272.3l1.2,2.3-.9.4-1-2.2A4.23,4.23,0,0,1,884.8,272.3Z"/><path class="cls-3" d="M957.5,312.1l-.4-.1h-.4c.1-.2.4-.2.6-.1S957.5,312,957.5,312.1Z"/><path class="cls-3" d="M939.8,313.6l-1.8,1.1Z"/><path class="cls-16" d="M904.6,329.9l-1.9,1.3Z"/><path class="cls-3" d="M937.2,134.5c9.4-1.4,18.9-2.6,28.3-4.2,5.3-.9,5.9-1.1,7.2,4,3.4,12.8,6.5,25.8,9.5,38.7.9,3.8,1.1,7.8,1.6,11.7-2.4,3.9-4.9,7.8-7.2,11.7-1.6,2.7-3.3,4.3-7,3.6s-6.3-2-7.2-5.8-1.7-7.3-2.5-11c-.4-2-1.2-4-3.5-3.6-5.4,1-11.2,1.1-15.5,5.4-6.1-7.5-7.6-16.6-8.2-25.7C932.1,150.9,933.1,142.3,937.2,134.5Z"/><path class="cls-6" d="M914.7,112.7c-1.6-5.8-2.7-11.8-4.9-17.4-3.6-9.1-7.9-17.9-11.9-26.9l-2.8-6.2,27.7-7.5,11.9,13.1c3.2,3.6,6.5,7.1,9.6,10.7a13.69,13.69,0,0,1,1.6,3.2c-11.5,7.2-21.2,16.1-28.5,27.6A18.37,18.37,0,0,1,914.7,112.7Z"/><path class="cls-10" d="M940.9,185.1c4.3-4.3,10.1-4.3,15.5-5.4,2.3-.4,3.1,1.7,3.5,3.6.8,3.7,1.7,7.3,2.5,11s3.5,5,7.2,5.8,5.4-.9,7-3.6l7.2-11.7,8.2,1.3c1.9,2.1,3.5,4.6,5.7,6.3,4,3,8.3,5.6,12.4,8.3-1.3,2.7-2.5,5.4-3.8,8-.9,1.8-1.9,3.4-2.9,5.1-24.8,6-49.8-7.1-61.9-26.4A8.65,8.65,0,0,1,940.9,185.1Z"/><path class="cls-3" d="M996.1,98.2c.7,2.1,1.3,4.3,2,6.4a67,67,0,0,0,2.8,6.5l-24.7,7-9-14.8C976.3,98.2,986.1,97.1,996.1,98.2Z"/><path class="cls-2" d="M1131.3,212.3c1.7-4.1,5.6-5.2,9.1-6.9a90.34,90.34,0,0,1,8.6-3.4l3.6.4c1.4,6.4,2.9,12.7,4.3,19.1.5,2.4.6,4.8.9,7.2-2.2-1-4.6-1.7-6.6-3C1144.4,221.3,1137.9,216.8,1131.3,212.3Z"/><path class="cls-3" d="M963.5,105c.4,2.6.5,5.3,1.1,7.9a64.92,64.92,0,0,0,2.6,7.4c-7.1,1.5-13.5,2.9-19.9,4.1-1.2.2-2.6-.7-4-1.1C948.1,115,955.1,109.2,963.5,105Z"/><path class="cls-22" d="M1339.2,313.8l-7.6,5.5c-3.3-2.1-3.4-5.9-4.6-9.1l11.7-5.4Z"/><path class="cls-5" d="M1363.2,171l-1.7-1.4Z"/><path class="cls-6" d="M823.6,195.9c-.3,1.4-.6,2.8-1,4.8-2.3.1-4.5.4-6.7.4-16.8.1-33.7.1-50.5.2-7.5.1-15,.3-22.4.8-3.7.2-5.4-1.3-5.6-4.9.6-9.6,1.1-19.1,1.8-28.7a190.61,190.61,0,0,1,4.8-30.1l78.9,4.6C823.1,161,823.4,178.5,823.6,195.9Z"/><path class="cls-6" d="M729.1,192.2l-1.4,8.5c-4.3,1.7-47.5,2.2-55.2.6V189.7c2.5-24.6,8.2-49.8,13.8-59.8l47.8,7.5c-1.2,9.4-2.6,18.4-3.4,27.4S729.5,183,729.1,192.2Z"/><path class="cls-6" d="M664.3,183.5c-.6,5.9-1.2,11.8-1.8,18a42.61,42.61,0,0,1-5,.6c-7.4.1-14.9.1-22.3.1-2,0-4.3.4-5-2.4,1.7-18.4,4.4-36.6,10.2-54.2,1.6-4.9,3.2-9.8,4.9-14.7l1.6-4.9,2.2-3.6c8.6,2.2,17.7,3.1,26.9,6.6-1.3,4.6-2.4,8.7-3.6,12.9A195.06,195.06,0,0,0,664.3,183.5Z"/><path class="cls-11" d="M756.9,88.4,758,87Z"/><path class="cls-11" d="M746.8,121l.7-1.3Z"/><path class="cls-6" d="M877.1,36.7c-5.2-6.6-10.2-13.5-18-17.5-.5-.3-.5-1.7-.8-2.5,2.4.7,4.8,1.2,7.2,2,14.5,4.9,27.6,12.5,40.3,20.9l8.9,8.5c-7.7,2.5-14.5,4.8-21.4,7-2.7.9-3.6-1.3-4.8-2.9C884.8,46.9,881,41.8,877.1,36.7Z"/><path class="cls-2" d="M558.4,341.7c2-9,8.1-15.4,14.3-21.6a62.35,62.35,0,0,1,20.9-13.4c1.7,1.1,3.5,2.2,5.1,3.4,7,5.5,14,11,20.9,16.6,2.4,2,4.4,2.5,7.1.3s5.6-3.6,8.4-5.4c4.7-3,9.3-6,14-9,9.3,4.5,15.9,11.8,21.3,20.3,7.1,11.2,9.8,23.7,9.8,36.8-7.5-.2-15-.5-22.5-.7-2.5-.1-5,0-7.5,0-.3-4.1-.6-8.2-.9-12.9l-42.7-1.3V342.2c-2.1-.2-3.5-.4-4.9-.4-13.2.1-26.5.3-39.7.4A14.87,14.87,0,0,1,558.4,341.7Z"/><path class="cls-15" d="M602.6,565.6c-.1,11.3-.1,22.6-.2,33.9a10.64,10.64,0,0,1-.9-3.5c0-8.9,0-17.9.1-26.8A10.07,10.07,0,0,1,602.6,565.6Z"/><path class="cls-14" d="M514.2,341.6c-.1-.2-.1-.5.1-.6l5.3.7Z"/><path class="cls-14" d="M86.5,341.3c1.2-1.4,2.5-1.4,3.7,0Z"/><path class="cls-14" d="M81.5,341.3"/><path class="cls-15" d="M598.1,613.4l-1.5,1.2Z"/><path class="cls-18" d="M1096.3,471.6c-2.3-.8-4.8-1.2-6.9-2.4-27.9-16.7-55.8-33.3-83.5-50.4-6.1-3.8-12.1-3.6-18.5-3.1-3.5.3-7,1.1-10.5.9-4.7-.3-8.4,1.3-12,4.2q-17.85,14.25-35.8,28.2c-15.9,12.3-33.8,15.4-53.1,11.2-6.1-1.3-11-5-15.7-8.7-1-.8-1.3-2.4-2-3.7,5.3.8,10.6,2.2,16,2.4,17.4.6,32.6-5.5,46.1-16.3,12.3-9.7,24.6-19.2,36.9-28.9a18,18,0,0,1,10.9-3.8c7.3-.3,14.5-.9,21.8-1.9,6.4-.9,11.7-.4,17.3,4.1,15.5,12.3,31.7,23.7,47.6,35.5q18.6,13.8,37,27.7A35,35,0,0,1,1096.3,471.6Z"/><path class="cls-2" d="M1098.7,350c11.4-8.2,23.9-12.2,38.1-10.1,19.5,2.9,35.6,16.4,42,37a6.23,6.23,0,0,1-.1,1.9c-5.4,2.1-10.7,4.5-14.8,8.9a28.26,28.26,0,0,1-4-1.7q-29.55-16.8-59.1-33.8A11,11,0,0,1,1098.7,350Z"/><path class="cls-18" d="M1102.6,475.3c-1.9.2-3.5,0-3.7-2.5Z"/><path class="cls-18" d="M1105.1,477.8l-2.5-2.5C1103.4,476.2,1104.3,477,1105.1,477.8Z"/><path class="cls-18" d="M1098.8,472.8l-2.4-1.2Z"/><path class="cls-18" d="M1107.6,479.1l-2.5-1.2Z"/><path class="cls-18" d="M858.3,447.8l-2.5-1.2Z"/><path class="cls-8" d="M1233.9,442.2l-1.8-.4Z"/><path class="cls-18" d="M1108.9,480.4l-1.3-1.3Z"/><path class="cls-18" d="M1110.1,481.6l-1.3-1.3Z"/><path class="cls-16" d="M930.9,648.1c.7.4,1.3,1.2,2.1,1.2,8.8,1,14.8,6.6,20.4,12.7,6.3,12.6,6.2,24.9-.7,37.4-2.5,4.5-3.6,9.7-5.4,14.5-2.4,6.1-6,11.3-12.1,14.5-1.2.6-2.1,1.9-3.1,2.9-13.7,4.5-27.3.8-36.6-10.2a102.89,102.89,0,0,1-6.1-8.6c-.7-7-1.4-13.9.3-20.8l7.3-18.3-4.7,4.2c-.4,1.1-.9,2.2-1.3,3.3h.2c-3.4,0-4.3,3-5.8,5.1a30.3,30.3,0,0,1-12.3,10.4c-12.8,6.5-26.2,1.3-32.9-5.7-4.1-4.3-7.2-9.5-10.8-14.3-.2-3.1-1-6.2-.5-9.2a43.82,43.82,0,0,1,7.2-18.4c6-8.5,11.9-17,17.6-25.7,1.2-1.8,1.4-4.2,2-6.3a51.66,51.66,0,0,0,6.9-2.6,7.35,7.35,0,0,0,2.9-2.9,23.36,23.36,0,0,1,25.6-12.9,27.71,27.71,0,0,1,14.6,7.7c1.2,1.2,2.5,2.2,3.7,3.3h1.4c.8,2.3,1.6,4.7,2.3,7,1,4,2.1,8,2.8,12,1.4,8-2.9,14.4-6.3,21.1-1,2-1.7,4.2-2.5,6.2l-.4.3.3-.3C914.6,651.7,922.3,648.5,930.9,648.1Z"/><path class="cls-2" d="M956,747.3a45.23,45.23,0,0,1,2.6-28.8l3.6-7.1c2.4-4.1,3.1-4.4,6.4-1.9,5.5,4.2,11,8.3,16.2,12.7,8.2,6.8,17,9.7,27.1,4.7,10.6-5.3,17.2-13.6,18.1-25.7.2-2.5.3-5,.4-7.5,21.7,12,27.8,35.6,25.2,51.6-3.9,24.6-24.4,40.1-42.5,42.3-1.4.2-2.9.5-4.3.8,1.5-6.2,6.5-9.4,10.8-13.3,3.1-2.8,3.4-3.9,1.1-7.3-1.5-2.2-3.4-4.2-4.9-6.4-6.7-9.2-13.4-18.5-20.2-27.7-3.5-4.7-4.8-4.8-9.8-2.2C975.8,736.9,965.9,742.1,956,747.3Z"/><path class="cls-9" d="M962.1,711.4l-3.6,7.1c0-1-.1-1.9-.1-2.9C959.3,713.9,959.3,711.4,962.1,711.4Z"/><path class="cls-18" d="M824.1,664.4c.5-3.8,1.2-7.6,1.5-11.4.1-1.7-.7-3.4-1.1-5,1-.7,2.1-1.4,3.1-2.2,8.4-6.3,13.8-14.2,13.4-25.3a28.68,28.68,0,0,0-5-15.2c-3.1-4.6-6.6-8.9-10-13.3,11.4,1.3,18.8,8.1,24.4,17.4a81.49,81.49,0,0,0,5.5,7.6c-.6,2.1-.9,4.5-2,6.3-5.7,8.7-11.6,17.2-17.6,25.7a43.82,43.82,0,0,0-7.2,18.4c-.5,3,.3,6.1.5,9.2l-2.3-3C826.1,670.5,825.1,667.4,824.1,664.4Z"/><path class="cls-17" d="M783.2,719.7h8.4c1.4,3,3.2,5.9,4,9a11.53,11.53,0,0,1-.8,7.1c-1.8,3.7-4.8,3.4-6.9-.3-2.7-4.7-2.7-4.7-6.2-5.7C782.3,726.5,782.8,723.1,783.2,719.7Z"/><path class="cls-14" d="M814.6,684.8l1.3-1.2Z"/><path class="cls-10" d="M665.2,747.1v30c-4.5.1-8.4.3-12.3.1-5.8-.2-11.6-.7-17.4-1.2a10.17,10.17,0,0,1-2.8-1.3c.9-1.6,1.6-3.5,2.9-4.6C645.4,762.5,655.3,754.8,665.2,747.1Z"/><path class="cls-17" d="M653.9,613.3l-9,3.8c-2.4-2.3-4.8-4.6-7-7.1a7.82,7.82,0,0,1-1.8-3.2c-1.7-5.6,1.9-9.5,7.6-8.4s9.1,4.7,10,10.5A33.14,33.14,0,0,1,653.9,613.3Z"/><path class="cls-7" d="M700.3,541.5c-3.4-6.8-4.3-13.8-1.7-21,4-11.1,13-14.9,24.6-13.1a27,27,0,0,1,19.6,13c7.1,11,14.8,21.6,23,31.9a63.55,63.55,0,0,0,21.9,18.3,25.08,25.08,0,0,1,10.6,10.3c1.5,2.5,3,5,4.4,7.5.4,1.6,1,3.2,1.3,4.8.9,5.5,2.4,11,2.5,16.6.1,6.6-1.6,8.1-8.1,10-6,1.7-12.1,3-18.1,4.5-2.9-6.2-5.8-12.4-8.7-18.5-1-2.1-2-4.1-2.9-6.2-6.6-16.6-20-24.8-36.3-29.4l-6.7-.4c.4-7.9.6-15.8,1.1-23.7.2-3.2-.6-5.1-3.5-7.1-4.2-2.9-7.8-6.7-11.6-10.3a53.4,53.4,0,0,1-4.1-5.3C702.7,528.8,702.4,535.5,700.3,541.5Z"/><path class="cls-16" d="M780.3,624.2c6.1-1.5,12.1-2.8,18.1-4.5,6.5-1.8,8.2-3.4,8.1-10-.1-5.5-1.6-11.1-2.5-16.6-.3-1.6-.9-3.2-1.3-4.8,7.5,2.6,15.4,2.8,23.1,3.7,3.3,4.4,6.9,8.7,10,13.3a28.68,28.68,0,0,1,5,15.2c.4,11.1-4.9,19-13.4,25.3-1,.8-2,1.4-3.1,2.2-7.4,4.7-14.6,9.5-22.1,13.9-3.7,2.2-7.9,3.6-11.8,5.4a15.53,15.53,0,0,1-.8-3.6c0-12.4-3.3-24.1-8.3-35.3A36.26,36.26,0,0,1,780.3,624.2Z"/><path class="cls-16" d="M770.4,661c-2-1.8-4.3-3.3-5.9-5.3-3.7-4.5-7-9.3-10.5-14-1.1-3.3-2.2-6.7-3.4-10l1.1-.6c6.1,9,12.2,17.9,18.3,27C770.6,658.8,770.4,660,770.4,661Z"/><path class="cls-16" d="M700.3,541.5c2-6,2.4-12.7,7.3-18.3a41.68,41.68,0,0,0,4.1,5.3c3.7,3.6,7.3,7.5,11.6,10.3,2.9,2,3.7,3.9,3.5,7.1-.5,7.9-.8,15.8-1.1,23.7-.9,2.7-1.6,5.6-5.2,5.9.6-2.4,1.1-4.8,1.8-7.2,1.1-3.9,1-5.2-.7-10.2l-8.8,1.9c-5.1,1.1-8.1-.3-9.7-5.2C701.7,550.5,701.2,546,700.3,541.5Z"/><path class="cls-18" d="M907.2,655.8c.8-2.1,1.5-4.2,2.5-6.2,3.4-6.7,7.7-13.1,6.3-21.1-.7-4-1.8-8-2.8-12-.6-2.4-1.5-4.7-2.3-7,12.6,4.2,19.1,13.6,21,26.3.6,4-.6,8.3-1,12.4-8.7.3-16.4,3.5-23.7,7.6Z"/><path class="cls-18" d="M910.9,609.5h0Z"/><polygon class="cls-18" points="1061.3 534.3 1060.9 533.9 1061.2 534.3 1061.3 534.3"/><path class="cls-18" d="M968.5,645.8l-.4-.3.5.2Z"/><path class="cls-6" d="M631.5,212.3h30.6a65.43,65.43,0,0,1,1.2,15.3l-33.4-1.8C630.5,221.3,631,216.8,631.5,212.3Z"/><path class="cls-17" d="M517.7,322.6l1-1.1Z"/><path class="cls-3" d="M1010.2,200.7c-4.2-2.7-8.5-5.3-12.4-8.3-2.2-1.7-3.8-4.2-5.7-6.3-.5-5.8-.3-11.7-1.5-17.3-2.7-12-6.1-23.8-9.2-35.6-.4-1.6-.8-3.1-1.4-5.4l27-6.8c2.3,5.1,4.7,10.1,6.7,15.3a216.15,216.15,0,0,1,11.2,44.1c.7,4.5,1,9.1,1.4,13.6.3,4.1-.8,5.3-4.7,5.7S1013.9,200.4,1010.2,200.7Z"/><path class="cls-23" d="M476.3,317.4l2,.2Z"/><path class="cls-3" d="M892.2,677.7l-1.3,3.3Z"/><polygon class="cls-18" points="907.1 655.8 906.8 656.1 907.2 655.8 907.1 655.8"/><path class="cls-24" d="M938.8,185.1a8.78,8.78,0,0,0,.7,2.3c12.1,19.3,37.1,32.4,61.9,26.4a39.29,39.29,0,0,0,6.7-1.2c11.8-3.9,21.3-11.1,29.1-20.7,5.1-6.3,10.6-12.8,11.6-21,3-25.3-4-47.1-25.2-62.6-8.6-6.3-18.3-10.6-29.5-10.1-10.1-1.1-19.9,0-28.9,5.1l-3.8,1.7c-8.4,4.3-15.3,10-20.2,18.2l-6.1,11.3c-4.1,7.8-5.1,16.4-4.6,24.9C931.2,168.5,932.7,177.6,938.8,185.1Z"/><rect class="cls-7" x="1313" y="340.6" width="607" height="334.5"/><rect class="cls-7" y="342.2" width="607" height="339.1"/><path class="cls-25" d="M1432,583.5c.8,1.1,2,2.2,2.4,3.4,3,8.7,5.8,17.5,8.7,26.3l-11.6,5.1c-2.8-.7-1.9,1.4-1.9,2.6.4,15.8.9,31.6,1.4,47.4,0,.5.5,1.1.8,1.6l-1.2,2.5-39.9-.3-1.7-2.7c.2-1.6.3-3.3.5-4.9l-.6-26.2c-.1-1.2-.2-2.5-.3-3.7l-1.8-25.9h-.9l-2.7,5.9L1370,613c-1.1-7.2,1.9-13.5,4.2-19.9a20.52,20.52,0,0,1,8.4-9.8c5.9-4,12.4-5.7,19.4-6.3,1.3,4.3,2.3,8.6,5.8,13,1.8-4.5,3.2-8.2,4.7-11.9C1419.4,578.1,1425.6,581,1432,583.5Z"/><path class="cls-5" d="M1401.9,576.9c-6.9.7-13.5,2.4-19.4,6.3a20.52,20.52,0,0,0-8.4,9.8c-2.4,6.4-5.4,12.7-4.2,19.9-1.6,9.9-3.3,19.8-4.9,29.7a10.55,10.55,0,0,1-.4-3.1c.5-4.4-1.3-7.5-4.6-10.3a33.28,33.28,0,0,1-5.1-5.5c-4.7-6.6-5.8-13.2-2.8-21.5,7.7-21,18.8-40.2,29.3-59.8a49.06,49.06,0,0,0,3.3-7.4c3-8.1,8.7-14,15.6-19,5.5-4,11.5-3.8,17.2-1.5,3.7,1.5,5.2,5.7,6,9.6-1.7,2-2.1,3.7,1.1,4.2a14.47,14.47,0,0,0,3.6-.1c1.3,4,1.5,8.6,5.7,11.1a15.77,15.77,0,0,1-2.6,1.3c-2.3,1-2.9,2.4-1.5,4.6.2,8.2.4,16.4.7,24.6.2,4.5.8,9,1.2,13.4-6.4-2.5-12.6-5.3-19.6-5.4V562.9c7.6-4.9,10.3-12,9.9-20.5a8.56,8.56,0,0,0-1.3-4.6c-4.1-4.8-8.5-9.4-13.3-14.6a29.2,29.2,0,0,1-12,13.3,6.09,6.09,0,0,0-2.5,3.9c-.4,6.6.4,13.3,5.1,18.2,3.1,3.2,3.9,6.5,3.7,10.6C1401.8,571.9,1401.9,574.4,1401.9,576.9Z"/><path class="cls-26" d="M1489.5,554.1h-23.7c-.1-10.2-5.9-17.7-11.5-25.2-7.4-9.8-7-20.1-1.7-30.4,3-5.7,8.4-9,14.5-10.8,10.2-3,20.2-3.5,28.9,4,10.2,8.8,12.4,24.2,5.4,35.8-1.2,2-2.5,3.8-3.8,5.7C1493.1,539.4,1489.1,545.6,1489.5,554.1Z"/><path class="cls-8" d="M1431.5,618.3l11.6-5.1,10.9,25.4,3.6-10.3c6.6.4,6.6.4,7.1,7l-.4,4.3-.1,1.2-.7,4.8v-.2a45.8,45.8,0,0,1-1.4,5.3c-1.5,4.1-3.9,7.2-8.9,6.8a1.61,1.61,0,0,0-1.1-.5h0l-1.3-1.2h0l-1.1-1.5.1.1c-.5-.8-1-1.5-1.4-2.3l-.1-.1c-.7-1.3-1.4-2.5-2.1-3.8C1441.4,638.2,1436.4,628.3,1431.5,618.3Z"/><path class="cls-16" d="M1464.8,635.3c-.6-6.6-.6-6.6-7.1-7,3.3-11.2,6.5-22.3,9.8-33.7a50.88,50.88,0,0,0,5.6-.4c1.6-.3,3.9-.5,4.5-1.6,2.7-4.4,6.6-3.2,10.5-3.2-1.4,7.6-3.9,9.3-15.6,10.4-1.8,9-3.5,18.1-5.4,27.2A85.58,85.58,0,0,1,1464.8,635.3Z"/><path class="cls-10" d="M1466.2,560.6c-.1-1.2-.2-2.4-.4-4.2h23v13l-22.6-.1v-7.5h19.1v-1.2Z"/><path class="cls-9" d="M1482.1,475.3c-.5-11.6.1-13.3,5.4-14-.8,4.4-1.4,8.6-2.3,12.7C1485.1,474.5,1483.6,474.7,1482.1,475.3Z"/><path class="cls-9" d="M1514.1,528.6c.7-1.2,1.2-2.7,1.6-2.7a20.64,20.64,0,0,1,13,4.6C1525.4,533.5,1525.4,533.5,1514.1,528.6Z"/><path class="cls-9" d="M1525.4,515.1c-1.4.1-2.9.6-4.3.3-1.1-.2-2.1-1.3-3.1-2,.9-.9,1.7-2.7,2.6-2.7a53.33,53.33,0,0,1,9.8.9c.6.1,1.3,1.4,1.5,2.3.1.4-1,1.4-1.6,1.5a40.08,40.08,0,0,1-4.9.1Z"/><path class="cls-9" d="M1427.4,487.6c6.1,2.1,10,5.5,11.8,9.7-1.4,1.9-3,1-4.2-.1C1432.1,494.6,1427.7,493.2,1427.4,487.6Z"/><path class="cls-9" d="M1509.2,536.2c4.2,2.1,7.9,3.9,11.5,5.8.5.3.6,1.4.5,2.1,0,.4-.8,1-1.3,1.1-2.2.5-10.6-4.1-11.4-6.2C1508.3,538.6,1508.7,537.9,1509.2,536.2Z"/><path class="cls-9" d="M1462.1,461.5c1.5.3,3.1.3,3.3.7,1.5,4.1,4.8,7.6,4.3,12.7-1.1-.1-2.1.1-2.6-.3C1465.5,473.5,1462.7,465.9,1462.1,461.5Z"/><path class="cls-6" d="M1419.6,507.9a25.36,25.36,0,0,1,13.6,2.3c.3.2.1,1.5.2,2.4-4.8,1.1-9-.5-13.3-1.8C1419.8,510.7,1419.8,509.3,1419.6,507.9Z"/><path class="cls-9" d="M1519.5,475.5c1.4,3.9-1.4,4.9-3.3,6-2.5,1.5-4.5,5.2-8.5,2.9C1509.4,480.6,1513.9,477.1,1519.5,475.5Z"/><path class="cls-6" d="M1430,545.5c-1.4-2.2-.7-3.6,1.5-4.6.9-.4,1.7-.9,2.6-1.3,1.9-.7,3.7-1.5,5.5-2.1s2.7.2,3.1,1.9l-3.8,3.5Z"/><path class="cls-9" d="M1528.9,494c-3.6,5.1-8.9,5.4-14.5,7.6.7-2,.9-4.3,1.7-4.5C1520.1,496,1523.4,491.7,1528.9,494Z"/><path class="cls-6" d="M1451.8,480.8c-5.7-2.3-9.6-7.2-9.3-11.4C1447.2,470.8,1451.5,475.9,1451.8,480.8Z"/><path class="cls-6" d="M1428.3,528.5a21.66,21.66,0,0,1-3.6.1c-3.3-.6-2.8-2.3-1.1-4.2l3.4-.4,2.3-.6,7-.3C1435.8,528.9,1430,525.4,1428.3,528.5Z"/><path class="cls-6" d="M1495.6,476.3c1.9-4.6,3.9-9,8.6-12.3,2.2,5.1-2.1,7.4-3.5,10.7C1499.9,476.5,1498.5,477.8,1495.6,476.3Z"/><path class="cls-6" d="M1466.2,569.3l22.6.1c.8,1.2.8,2.2-.9,2.4-1.2.1-2.3.2-3.5.2l-13.2.1c-1.2-.1-2.5.2-3.6-.3C1466.9,571.5,1466.7,570.2,1466.2,569.3Z"/><path class="cls-9" d="M1484.1,574.3c.1,1,.3,2,.5,3.5h-12.4c-.1-.9-.4-2-.6-3.2Z"/><path class="cls-2" d="M1484.1,574.3l-12.4.3c-.2-.8-.3-1.7-.5-2.5l13.2-.1A9.69,9.69,0,0,0,1484.1,574.3Z"/><path class="cls-27" d="M1466.2,560.6h19.1v1.2h-19.1A1.28,1.28,0,0,1,1466.2,560.6Z"/><path class="cls-5" d="M1429.3,523.3l-2.3.6Z"/><path class="cls-16" d="M1463.5,645.3v0Z"/><path class="cls-16" d="M1464.3,640.7l.1-1.2A1.26,1.26,0,0,1,1464.3,640.7Z"/><path class="cls-7" d="M1391.3,853.3c-.6-13.5-1.1-27-1.9-40.5-.7-11.4-1.7-22.8-2.6-34.2-1.6-19.6-3.2-39.3-4.9-58.9l-.4-5,.7-8.9,2.2.2c1.9,1.9,3.7,3.8,5.7,5.6s3.9,3.2,7,1.6a42.74,42.74,0,0,0-1.3-4.8c-2.2-5.1-4.8-10.2-6.9-15.3-2-4.7-4.9-9.3-3.2-14.8l4.8-6.1,39.9.3c6.7,7.5,8.2,16.9,9.1,26.5.7,7.4,1,14.8,1.5,22.2l2.6,58.7c.1,6.9.2,13.7.4,20.6,0,2.3.3,4.6.4,6.8.6,16.6,1,33.3,1.7,49.9.1,3.9.8,7.9,1.1,11.8v12.5l-10-.1c-1.1-6.5-2.2-13-3.4-19.5-.5-2.7-1.2-5.3-1.7-7.9,0-2.1-.1-4.1-.3-6.2-2-12.5-4.1-25-6.3-37.4-1.8-10.4-3.7-20.8-5.6-31.2-.6-6.4-.9-12.9-1.7-19.3-1-8.4-2.4-16.8-3.6-25.3-.4-11.4-.5-11.8-3.7-14.3-1.1,4.9-1,9.6-1.2,14.2-.9,14.7-1.8,29.5-2.8,44.2-.4,7-.9,14.1-1.4,21.1-1,16.3-2,32.7-3,49l-1.6,32.2-8.8-.9C1391.8,871.2,1391.6,862.2,1391.3,853.3Z"/><path class="cls-7" d="M1453.3,907.6l8.6,5.2c0,.3-.1.6-.1.9-4.4,0-8.9.2-13.3-.1-1-.1-2.1-1.8-2.9-2.9-1.5-2.2-2.7-4.5-4.3-7.2-3,3.5-.1,7.9-3.7,11.7-1.6-9.8-.2-18.5-.4-27.1,1.6,1.6,3.5,3,4.7,4.8,2.3,3.4,4.4,7.1,6.4,10.7C1449.5,905.6,1450.5,907.7,1453.3,907.6Z"/><path class="cls-8" d="M1392.1,880.2l8.8.9c.3,3.9.5,7.7.8,11.6.1,2.3.3,4.5.4,6.8l-5.3,4-5.9-5.3Q1391.5,889.05,1392.1,880.2Z"/><path class="cls-8" d="M1453.3,907.6c-2.8.1-3.8-2-5-4-2.1-3.6-4.1-7.3-6.4-10.7-1.2-1.8-3.1-3.2-4.7-4.8v-6.9l10,.1C1449.3,890.1,1451.3,898.8,1453.3,907.6Z"/><path class="cls-7" d="M1390.9,898.1l5.9,5.3,5.3-4v14.2c-3.9,2.1-7.4,1.4-11.2,0V898.1Z"/><path class="cls-7" d="M1382.4,694.6c3.3,3.3,1.7,7.5,2.2,11.3l-2.2-.2C1382.3,702,1382.4,698.3,1382.4,694.6Z"/><path class="cls-16" d="M1401.9,576.9c0-2.5,0-5,.1-7.5.2-4.1-.5-7.4-3.7-10.6-4.7-4.9-5.5-11.6-5.1-18.2a5.41,5.41,0,0,1,2.5-3.9,29.2,29.2,0,0,0,12-13.3c4.8,5.2,9.2,9.8,13.3,14.6,1,1.1,1.3,3.1,1.3,4.6.4,8.5-2.3,15.6-9.9,20.5V578c-1.5,3.7-2.9,7.4-4.7,11.9C1404.2,585.5,1403.1,581.2,1401.9,576.9Z"/><path class="cls-5" d="M1388.5,634.7l-4.4-2.5-5.2,3.5c1.4-7,2.8-14,4.3-21l2.7-5.9h.9Z"/><path class="cls-8" d="M1369.8,612.2l-3.1,19.3s-3.3,18.2-2.8,21.2,1.9,6.6,11.9,27.4,7.3,15.1,7.3,15.1,2.8,5.2,1.5,10.5,10.9,10.4,12.7,7.3-18-47.7-18-47.7-5-9.6-2.1-23.2,5.9-28.3,5.9-28.3Z"/><path class="cls-28" d="M1313.3,370c-5,1.3-6.6,4.6-6.4,9.7.6,22,.9,44.1,1.1,66.1,0,2.2,1.5,5.2-2.2,6.2l-7.7-.1-5.7-.8c-2.2-17.3-4.3-34.4-6.4-51.5l-1.4-.3-21.3,33.5-.2.3-1.3,2c-1.4,1.7-2.9,3.4-4.3,5.1-2,2.5-3.9,5.1-5.9,7.7l-9.7-10.5c.4-2.2.4-4.5,1.4-6.5,4-8.4,8.3-16.6,12.4-24.9,2.2-4.4,4.1-8.9,6.2-13.4.4-.8.8-1.7,1.2-2.5l-.1.1c1.3-2.5,2.5-5.1,3.8-7.6l-.1.1,9.4-17.6,4-7.6c.8-.2,1.9,0,2.3-.5,4.5-5.3,9.2-10.5,9.2-18.1,11.1-1.3,22.3-2.8,33.4-3.9,17.4-1.7,34.8-3.2,52.1-4.8,2-.2,4.3.2,5.1-2.6a18.4,18.4,0,0,0,4.1.4c4.4-.5,8.9-1.3,13.3-1.9v20.4c-9.4,6.3-19.4,11.1-30.9,12.4-15.9,1.8-31.8,4.1-47.7,6.2C1317.8,365.6,1314.4,366,1313.3,370Z"/><path class="cls-15" d="M1339.4,287.5c.4-17.7,1.1-35.4,1.1-53.1,0-6.8,2.8-11.5,7.8-15.4,3.6-2.8,7.4-5.4,11.1-8l2.6.8c1.4,3.9,2.3,8,4.2,11.6,2.1,3.9,6.2,4.2,9.3,1,2.6-2.6,4.1-5.7,3.4-9.5-.6-3-1.3-6-1.9-9l15.6,5.6c4.9,3.8,9.9,7.6,14.8,11.4,3.4,2.6,4.6,5.9,4.4,10.3-.3,6,.1,12,.2,18.1-.1,21.5-.3,42.9-.2,64.3,0,4.2-1.1,6.7-5,8l-7.4,2.5c-4.4.6-8.9,1.4-13.3,1.9a18.4,18.4,0,0,1-4.1-.4l-1.5-5.4c-.4-3.6,2.6-4.3,4.8-5.7,8.3-1.6,10.8-.6,13.2-13.5.1-.8.4-1.6.5-2.5,2.4-15.4,4.8-30.8,7.3-46.3.2-1.6.2-3.2.4-5.3l-16.8,3.3c-1.4,8.7-2.8,17.1-4.1,25.5s-1.8,17.3-4.1,25.3c-11.8,3.4-23,6.6-34.2,9.7a61.19,61.19,0,0,1-8.6,1l-.5-9C1338.9,299,1339.2,293.2,1339.4,287.5Z"/><path class="cls-23" d="M1331.9,169.9a27.73,27.73,0,0,0-4.8-2.6c-5-1.6-7.7-5.1-8.9-10.1l8.9-11c4.8-1.9,9.4-3.3,13.8,1.3.9,1,3.1.9,4.7.9,2.3,0,4.5-.6,6.8-.7,4.2-.2,7.7.8,10,5a11.81,11.81,0,0,0,4.7,4.7,7.58,7.58,0,0,1,4.5,6.9c.1,2.9.3,5.8.4,8.7l-6-.1-2.9-1.9.1.1-1.7-1.4c-.8-.6-1.6-1.3-2.4-2-5.8-6.6-12.7-4.3-17.4-.1a36.22,36.22,0,0,0-3.6,4.2l-3.8.4-1.4-1.4Z"/><path class="cls-8" d="M1338.1,171.8a36.22,36.22,0,0,1,3.6-4.2c4.7-4.2,11.6-6.6,17.4.1a15.91,15.91,0,0,0,2.4,2l1.7,1.4-.1-.1c1.6,5,3.2,9.9,4.8,14.9l-5.9,7a42.91,42.91,0,0,0-4.8-3.6c-1.9-1.1-4-2.1-5.9.3l-6.1,1.5-3.5-4c-.7-2-1.3-3.9-2-5.9C1339.2,178.1,1338.7,175,1338.1,171.8Z"/><path class="cls-17" d="M1377.1,205.9c.6,3,1.3,6,1.9,9,.7,3.8-.8,6.9-3.4,9.5-3.1,3.1-7.3,2.9-9.3-1-1.9-3.6-2.9-7.7-4.2-11.5.4-1.3.4-3.1,1.4-3.8,3-2.3,3.8-5.6,5.1-8.9.9-2.5,2-4.9,2.9-7.4l3.1,4.2C1375.4,199.3,1376.3,202.6,1377.1,205.9Z"/><path class="cls-23" d="M1371.4,191.8c-1,2.5-2,4.9-2.9,7.4-1.2,3.2-2.1,6.5-5.1,8.9-.9.7-.9,2.5-1.4,3.8l-2.6-.9c-4.6-1.3-9.3-2.5-10.1-8.4l.3-5.1c1.9-.5,4.6.3,5.4-3.2l-6.7-.9,2.9-3.7c1.8-2.4,3.9-1.5,5.9-.3a42.91,42.91,0,0,1,4.8,3.6l5.9-7,3.6.1a1.21,1.21,0,0,1,.5-.5C1371.8,187.6,1371.6,189.7,1371.4,191.8Z"/><path class="cls-8" d="M1371.9,185.5a1.21,1.21,0,0,0-.5.5c-1.8-4.4-3.7-8.8-5.5-13.2l6,.1C1374.1,177.1,1372.7,181.3,1371.9,185.5Z"/><path class="cls-5" d="M1338.1,171.8c.5,3.2,1.1,6.3,1.6,9.5-2.7.3-3.6-1.6-4.3-3.6a48.78,48.78,0,0,1-1.2-5.5Z"/><path class="cls-15" d="M1269.1,475.3c.1-1.5.3-3,.4-4.5,9.4-3.8,19.7-5.8,27.2-13.5l1.5,4.8,9.8-1.8c2.6.2,3.5,1.9,3.6,4.2.1,2.9,0,5.8,0,9.3-3.2.3-6.6.6-10,.8-8.7.7-17.4,1.5-26.1,1.9C1273.3,476.7,1271.1,475.7,1269.1,475.3Z"/><path class="cls-8" d="M1307.9,460.3l-9.8,1.8-1.5-4.8c.5-1.8.9-3.6,1.4-5.4l7.7.1C1306.4,454.8,1307.2,457.6,1307.9,460.3Z"/><path class="cls-3" d="M1380.8,322.1l1.5,5.4c-.7,2.7-3.1,2.4-5.1,2.6-17.4,1.6-34.8,3.1-52.1,4.8-11.1,1.1-22.3,2.6-33.4,3.9l-8.6,1.1c-1.1-.6-2.9-1-3.3-2q-10.2-25.2-20.1-50.4a12.61,12.61,0,0,1-.4-2.8l55.8-5.5,9.2,23.7c.9,2.4,1.9,4.9,2.9,7.3,1.2,3.2,1.3,6.9,4.6,9.1,1.4,6.1,2.2,6.9,8.1,6.9,1.6,0,3.3-.1,4.9-.2Zm-84.7-7.3c3.1-4.7,2.5-7.4-2.3-10.4A8.92,8.92,0,0,0,1296.1,314.8Z"/><path class="cls-8" d="M1251.6,447.9l-7.6,7.4-8.4-6.7c.4-2.1.8-4,1.1-6l5.2-5.3Z"/><path class="cls-8" d="M1326.9,310.2c-1-2.4-1.9-4.9-2.9-7.3,4-4.2,8-8.4,12.1-12.6,1-1,2.1-1.9,3.2-2.8-.2,5.8-.5,11.6-.7,17.3Z"/><path class="cls-23" d="M1349.7,197.5l-.3,5.1a27.57,27.57,0,0,1-2.5-4.4c-.7-2.3-1.2-4.6-1.7-7l6-1.5-2.9,3.7A24.68,24.68,0,0,1,1349.7,197.5Z"/><path class="cls-8" d="M1344.6,326c-1.6.1-3.3.2-4.9.2-5.9,0-6.7-.8-8.1-6.9l7.6-5.5a61.19,61.19,0,0,0,8.6-1c11.2-3,22.4-6.3,34.2-9.7,2.4-8,2.8-16.8,4.1-25.3s2.7-16.8,4.1-25.5L1407,249a39.58,39.58,0,0,1-.4,5.3c-2.4,15.4-4.8,30.9-7.3,46.3-.1.8-.4,1.6-.5,2.5-2.4,12.8-4.9,11.9-13.2,13.5-10.6,1.6-21.3,3.2-31.9,4.6A13.05,13.05,0,0,0,1344.6,326Z"/><path class="cls-5" d="M1344.6,326a14,14,0,0,1,9.1-4.9c10.6-1.4,21.3-3.1,31.9-4.6-2.2,1.4-5.3,2.1-4.8,5.7Z"/><path class="cls-5" d="M1365.9,172.8c1.8,4.4,3.7,8.8,5.5,13.2l-3.6-.1c-1.6-5-3.2-9.9-4.8-14.9Z"/><path class="cls-18" d="M1349.7,197.5c-.4-1.4-.9-2.7-1.3-4.1l6.7.9C1354.3,197.7,1351.7,196.9,1349.7,197.5Z"/><path class="cls-7" d="M1236.7,442.7c-.4,1.9-.7,3.9-1.1,6l8.4,6.7c-.3,1.4-.2,3-.9,4-2.3,2.9-4.9,5.5-7.4,8.4-6.7-5.1-13.3-9.8-19.4-15-4.8-4.1-6.9-10.1-10.7-15.6l7.4-4.3c2.9,1.7,5.8,3.6,8.9,5.3s6.2,4.3,10.3,3.6l1.8.4Z"/><path class="cls-6" d="M1296.1,314.8a9.23,9.23,0,0,1-2.3-10.4C1298.6,307.5,1299.2,310.1,1296.1,314.8Z"/><path class="cls-6" d="M453.6,677.4c-.4,1.3-.5,3.1-1.4,4-5,4.6-10.1,9-15.6,13.9-1.7-2.3-3-4.1-4.5-5.8a18.5,18.5,0,0,0-3.9-4c-3-2-6.4-.8-7.3,2.7s-1.2,6.9-1.9,11.1c-6.9,1-13.8.4-21.6.1,0-2.5-.1-4.7,0-6.9.1-1.4,1-3,.6-4.2-.6-2-1.7-4.4-3.3-5.5-1.9-1.4-4.4-.7-6.2,1.1l-7.7,7.4c-3.5-4.1-6.7-7.8-9.9-11.4a26.06,26.06,0,0,0-3.1-2.7c-.3-1.4-.6-2.8-.8-4.2,1.6-1.3,3.1-2.4,4.6-3.5,5.3-4.4,5.3-4.4,2.8-12l-13.2-.8V634.6a67.92,67.92,0,0,1,7.8.4c7.8,1.3,6.5,0,9.3-5.2a19.45,19.45,0,0,0,.8-2.2l-9-9.9,16.8-14.9,9.1,10.3,7.3-1.8c.5-4.5,1-9,1.5-14.1l21.4,1.4v14.5l6.1,2.9,10.7-9.3,14.7,16.7-10.5,9.1,1.6,7,14.7,1.4c-.4,7.3-.8,14.3-1.1,21.6H447.9C443.5,669.6,444.8,673.1,453.6,677.4Zm-41.3-6.2c11.6,0,22.5-10.3,22.3-22.5-.3-15-11.2-22.9-22.9-23.2-12.4-.2-23,10.9-22.7,23.4C389.3,661.1,400.1,671.3,412.3,671.2Z"/><path class="cls-23" d="M485.4,881.6c-.1-.9-.1-1.7-.2-2.6.7-1.9,1.5-3.9,2.1-5.8,3.7-11.9,7.4-23.8,11-35.7,6.2-20.7,15-40.6,16.1-62.6l4.2-42.3a64.44,64.44,0,0,0,7.2,2c19.4,3.7,38.8,4.5,57.9-1.8-.1,3.1-.1,6.2-.2,9.3-.4,11.7-.9,23.5-1.3,35.2-.5,6.2-.9,12.4-1.4,18.7-.9,10.2-1.9,20.3-2.9,30.5l-.5,4.6-.6,3c-1.9,14.5-3.9,29.1-5.8,43.6-.9,3.8-1.8,7.7-2.7,11.5l-10.9.1-1.7-14.2c-.2-12.5-.3-25-.5-37.5,0-11,.3-22-.2-32.9-.4-8.4-1.9-16.8-2.9-25.2l-1-9.8h-1.4c-.5,3.3-1.1,6.7-1.6,10a41,41,0,0,0-2,5.9c-1.8,9.5-5.6,18.3-10,26.8-4.3,8.3-8.2,16.8-12.3,25.3-2.2,4-4.5,7.9-6.5,11.9-4.2,8.5-8.2,17.1-12.4,25.6-1.9,2.7-3.9,5.5-5.8,8.2Z"/><path class="cls-3" d="M493.8,893.7a88.61,88.61,0,0,0,15.4,12c2,1.3,1.9,2.6,1.1,7.8-6.3.3-12.5,1.2-18.6-2.1-5.1-2.8-10.6-4.7-16.4-7.2,2.3-4.3,1.7-9.8,7.2-11.8C485.9,895.5,489.9,894.6,493.8,893.7Z"/><path class="cls-3" d="M568.7,897.5c4.5,3.6,9.7,5.4,15.3,6.5a34.66,34.66,0,0,1,7.7,2.5c.9.4,2.1,1.8,1.9,2.6a6.18,6.18,0,0,1-2.3,3.2c-.5.5-1.6.4-2.4.4H555c-.9-3.9-1.4-7.9.7-11.8C560.6,901.8,565.1,901.6,568.7,897.5Z"/><path class="cls-8" d="M568.7,897.5c-3.5,4.2-8.1,4.3-12.9,3.4.5-3.9,1.1-7.8,1.6-11.7l10.9-.1C568.4,891.9,568.5,894.7,568.7,897.5Z"/><path class="cls-16" d="M493.8,893.7c-3.9.9-7.8,1.8-11.4-1.2.9-2.8,1.8-5.7,2.6-8.5l12.4.3C496.2,887.5,495,890.6,493.8,893.7Z"/><path class="cls-5" d="M497.4,884.3,485,884l-.4-1.5a2.66,2.66,0,0,0,.3-1.2l.5.2,13.7,1.7Z"/><path class="cls-14" d="M484.9,881.4a1.38,1.38,0,0,1-.3,1.2Z"/><path class="cls-4" d="M590.1,697c-2.6,2.1-3.5,4.5-3,8,.7,5.3.4,10.8.7,16.2a18.35,18.35,0,0,0,1.2,4.6l-5.3,6.8c-19.1,6.4-38.5,5.6-57.9,1.8-2.4-.5-4.8-1.3-7.2-2a47,47,0,0,0-6.3-2.2c-3.1-.6-4.7-2-4.7-5.4.3-13.9.4-27.8.5-41.8-.1-2-.4-4-.7-6,.1-13.7.2-27.4.2-41.2,0-9.4.2-18.7-.1-28.1a14.48,14.48,0,0,1,5.2-12c7.3-6.7,15.1-12.4,25-14.6a40.68,40.68,0,0,1,4.9-.5c0,2.3-.4,4.7.3,6.8.9,3.3,2,6.9,4.1,9.5,3.4,4.2,9.1,3.1,10.9-1.9,1.3-3.5,1.8-7.3,2.6-10.9,1.8.4,3.7.5,5.3,1.3a50.16,50.16,0,0,1,7.7,5.3c9.9,8.5,9.9,8.5,10.1,21.6l.4,20.5c-9.5,7-19.3,13.6-29.3,19.9l-12.9-20c-2.3-3.5-3.8-8.5-7-10-3.4-1.7-8.5-.2-12.8.2-2.7.3-5.8-.6-8.6,2,3.4,4.9,6.6,9.7,10.1,14.4,7.3,9.9,14.6,19.8,22,29.6,3.9,5.2,6.9,5.5,12.1,1.6,2.5-1.9,4.8-4,7.1-6.1L582.6,648c2.5.9,2.4,3.1,2.5,5.1.3,3.9.5,7.7.8,11.6-.2,2.7-.4,5.3-.5,8-.1,2.5,1,3.9,3.5,4.2a40.48,40.48,0,0,0-.9,4.8C587.7,687,586.3,692.4,590.1,697Z"/><path class="cls-15" d="M542.4,549.4c-7.1-1-10-5.9-6.9-12.2.4-.9,1.6-2.1,1.3-2.7-1.9-4.9,1.3-7.7,3.9-11,1.2-1.5,1.4-3.8,2.1-5.8,1.4-3.9,3.1-4.8,7.1-3.8a28,28,0,0,1,4.1,1.3c3.9,1.7,6.9,1.7,9.6-2.5.9-1.4,3.9-2,6-2.1s3.9,1,6.2,1.6c.3,2.3.6,4.5,1,7,.6.4,1.3.8,1.9,1.2,5.9,2.9,6.1,3.9,3.4,10.1-1,2.2-1.2,4.8-2,7.1a11,11,0,0,1-2,2.8,32.84,32.84,0,0,1-2-3.1c-4.7-9.8-16.4-10.9-22.7-2-1.2,1.7-2.3,3.4-3.5,5.1l-2.7,1.2C542.1,543.8,542.1,543.8,542.4,549.4Z"/><path class="cls-8" d="M550.1,540.6c1.2-1.7,2.3-3.5,3.5-5.1,6.3-8.8,18-7.8,22.7,2a32.84,32.84,0,0,0,2,3.1l-5.8,17.3c-1.4-.5-2.7-1-4.1-1.4-5.3-1.3-7.3-.3-11.4,6.3a13.88,13.88,0,0,1-8.4-8.5C549,549.7,549.6,545.2,550.1,540.6Z"/><path class="cls-15" d="M548.5,554.3a14.13,14.13,0,0,0,8.4,8.5c4.2-6.6,6.1-7.6,11.4-6.3a28.28,28.28,0,0,1,4.1,1.4c-.2,1.3-.4,2.7-.6,4-5.6-1.8-5.6-1.8-9.3,1.4,3.3,1.4,6.3,3.5,9.4-.2,4.8,3.5,3.6,8.6,2.8,13.2-.6,3.2-4.1,3.8-7,4.3a73,73,0,0,1-8.1.2c-5.7-3-8.5-8.6-12.2-13.4-.2-2.2.9-4.9-2.6-5.5l.1-8.9a5,5,0,0,1,1.2.2Z"/><path class="cls-8" d="M547.5,567.3c3.7,4.8,6.5,10.4,12.2,13.4.3,1.3.6,2.5.8,3.8-.8,3.7-1.3,7.4-2.6,10.9-1.9,5-7.5,6.1-10.9,1.9-2.1-2.6-3.1-6.2-4.1-9.5-.6-2.1-.2-4.5-.3-6.8,2.9-4.5,1.9-9.7,2.4-14.6Z"/><path class="cls-16" d="M607.8,612.3c-3,1.1-5.8,1.9-8.9.5a1.6,1.6,0,0,1-.9.7l-1.5,1.2a10.73,10.73,0,0,0-3.1,8.8,25.92,25.92,0,0,1-.4,4.8l-1.8,1.1-7.3,3.8c-9.5,7-19.3,13.6-29.3,19.9l-12.9-20c-2.3-3.5-3.8-8.5-7-10-3.4-1.7-8.5-.2-12.8.2-2.7.3-5.8-.6-8.6,2,3.4,4.9,6.6,9.7,10.1,14.4,7.3,9.9,14.6,19.8,22,29.6,3.9,5.2,6.9,5.5,12.1,1.6,2.5-1.9,4.8-4,7.1-6.1l17.9-16.4c2.5.9,2.4,3.1,2.5,5.1.3,3.9.5,7.7.8,11.6,3-4.9,6.1-9.7,9.1-14.6,1.3-2.1,2.1-4.6,3.5-6.6.8-1.2,2.3-2,3.5-2.9,1.9-4.6,3.9-9.2,5.8-13.7,3-3.9,5.8-7.8,6.4-12.8C613.2,610.1,610.1,611.4,607.8,612.3Z"/><path class="cls-15" d="M614.3,614.2c-1.1-4.1-4.1-2.8-6.5-1.9-3,1.1-5.8,1.9-8.9.5l3.3-6.9c1-1.3,2.3-2.5,2.9-4,.7-1.7.7-3.6,1.1-6.1L618,595c-.3,1.9-.4,3.1-.6,4.2-4.7,3.4-5.2,5.3-3.1,11.7Z"/><path class="cls-8" d="M546.3,553.1a5,5,0,0,0-1.2-.2l-2.6-3.5c-.3-5.6-.3-5.6,4.9-7.6C547,545.6,546.6,549.3,546.3,553.1Z"/><path class="cls-8" d="M572.1,563c-3,3.7-6,1.7-9.4.2,3.7-3.2,3.7-3.2,9.3-1.4A4.12,4.12,0,0,0,572.1,563Z"/><path class="cls-15" d="M547.5,567.3l-2.5-1c0-1.5-.1-3-.1-4.5C548.4,562.4,547.4,565.1,547.5,567.3Z"/><path class="cls-16" d="M614.3,611c-2.1-6.5-1.6-8.3,3.1-11.7C619.9,604.1,618.1,607.8,614.3,611Z"/><path class="cls-5" d="M546.3,553.1c.4-3.8.7-7.5,1.1-11.3l2.7-1.2c-.5,4.6-1,9.1-1.6,13.7Z"/><path class="cls-15" d="M398.6,341.8a18.71,18.71,0,0,0-1.3-4,46.59,46.59,0,0,1-6.4-25.3c8.9-.4,17.8-.8,26.6-1.3,5.4-.3,10.7-.9,16-1.4-.3,2.5.5,3.9,3.2,4.1,11.3.8,22.6,1.7,33.9,2.5l5.7.9,2,.2,3.3,1c-1.3,7.3-2.7,14.5-3.8,21.8-.3,1.9.3,4,.6,5.9-9.9,2.3-19.9,1-29.9.8-3.3-.1-6.6-.7-9.9-.8-10.2-.5-20.4-.7-30.6-1.5C404.8,344.6,401.7,342.9,398.6,341.8Z"/><path class="cls-16" d="M478.4,346.4c-.2-2-.8-4-.6-5.9,1.1-7.3,2.5-14.6,3.8-21.8l25.8,2.9c.3,1.8.6,3.7.9,5.5.7,3.8.9,7.5-1.1,11-8.5,15.3-16.8,30.7-25.7,45.8-6.9,11.8-14.5,23.2-21.8,34.8l-4.4,3.5c-1-3.5-1.9-6.5-2.8-9.5l-.1-.4,1.4-3.2c5.4-13.2,10.8-26.4,16.1-39.6,2.7-6.5,5.3-13.1,7.8-19.6A9.1,9.1,0,0,0,478.4,346.4Z"/><path class="cls-17" d="M459.8,418.6c7.3-11.6,14.9-23,21.8-34.8,8.9-15.1,17.1-30.5,25.7-45.8,1.9-3.5,1.8-7.2,1.1-11-.3-1.8-.6-3.7-.9-5.5l10.1,1.2c.7,6.4-.9,12.4-3.2,18.3a.47.47,0,0,0-.1.6c-14.9,24.8-29.9,49.5-44.8,74.3-1.6,2.7-3.1,5.4-4.6,8.2Z"/><path class="cls-29" d="M459.8,418.6l5.1,5.5c2.2,7.7,8.6,11.5,14.9,15.3-.6.8-.9,1.5-1.1,1.5-5.3-.2-10.7-.2-16-.7-4.8-.4-7.9-3.4-9.8-7.7-1-2.2-1.8-4.5-2.8-7.4l-7.7,4c3-6.7,5.6-12.2,10.2-16.4.9,3,1.7,5.9,2.8,9.5Z"/><path class="cls-7" d="M454,409.1l-1.4,3.2Z"/><path class="cls-26" d="M378.1,265a25.58,25.58,0,0,0-.5-2.7V260l-.3-2.6c8.6-12.4,16.9-25,25.8-37.2,1.5-2.1,4.7-3.3,7.4-4.2a70.29,70.29,0,0,1,9.1-2l8.4-1.3,11.6,11.8c3.3,2.9,6.9,3.6,11,1.6,2.9,2.1,4.6-1.1,6.9-1.6h-.1c3.1,4.9,4.1,10.2,3.9,16a89.24,89.24,0,0,0,1.2,13.6c1,7.9-2,13.6-8.7,17.8-2.4,1.5-4.4,3.7-6.6,5.5-1.4,4.5-4.1,7.9-8.7,9.6a23.26,23.26,0,0,0-2.6,1.7c-1.8-1-3.7-1.8-5.4-2.9-7.4-4.9-14.8-9.8-22.2-14.8l-3-2.7c1.2-5.2,2.3-10.5,3.5-15.7.7-3.2.3-6-2.9-9l-14.1,16.2Z"/><path class="cls-7" d="M439.7,224.5l-11.6-11.7c-1.8-2.8-3.5-5.5-5.3-8.3-.4-1.2-.8-2.3-1.3-3.5-1.9-4.7-1.5-8.7,2.5-12.4s7.7-8.2,11.8-12c4.3-4,9.6-6.3,15.4-7.8,8.3-2.1,15.2-.1,21.1,5.9a88.94,88.94,0,0,1,8.4,10c3.6,5,1.4,9.4-1.8,13.6a51.7,51.7,0,0,0,.1-6.8c-.3-3.7-2.7-4.9-6.1-3.3-3,1.4-6.1,2.4-9.1,4a15.31,15.31,0,0,0-5.4,3.9c-4.4,6.1-8.3,12.4-12.5,18.7Z"/><path class="cls-16" d="M446.1,214.7c4.1-6.3,8.1-12.6,12.5-18.7,1.2-1.7,3.4-2.9,5.4-3.9,2.9-1.5,6.1-2.6,9.1-4,3.4-1.6,5.8-.4,6.1,3.3.2,2.3-.1,4.5-.1,6.8-.7,9.1-4.7,16.8-10.4,23.7-3,3.7-7.2,2.4-11,2.5h.1c1.9-2.3.3-3.6-1.3-5.3l-3.7,2.6C452.3,217.6,448.7,216.6,446.1,214.7Z"/><path class="cls-20" d="M517.5,322.7l-10.1-1.3-25.8-2.9-3.3-1-2-.2-5.7-.9,1.1-5.1.7-1.3c4.1-3.9,5.3-9.3,6.7-14.5l.1-.4.7-1.3c2.7-6.4,5.6-12.8,8.1-19.3,1.1-2.9,2.8-3.7,5.6-3.4,4.9.5,9.8.9,14.8,1.3,7,.7,14,1.5,21,2.2,2,.2,4.1.3,6.1.5-.2,5.2-10.8,34.1-16.8,46.3l-1,1.1Zm-14.2-21.9c5.1-.5,6.6-4.3,3.6-9.9C503.8,293.7,503,296.9,503.3,300.8Z"/><path class="cls-8" d="M479.9,294l-.7,1.3C479.5,294.8,479.7,294.4,479.9,294Z"/><path class="cls-26" d="M433.5,309.9c-5.3.5-10.7,1.1-16,1.4-8.9.5-17.7.9-26.6,1.3-.1-1.7-.9-3.7-.3-5.2,3.5-8.8,7.4-17.5,11.1-26.3l8,2.7c2,1.4,3.9,2.9,6,4.1,7.6,4.1,15.2,8,22.8,12,2.6,2.3,5.8,4,6.4,7.9l-5.8.9C437.2,309,435.4,309.5,433.5,309.9Z"/><path class="cls-16" d="M377.7,260v0Z"/><path class="cls-23" d="M433.5,309.9c1.9-.4,3.8-.8,5.7-1.1l5.8-.9,7.9.8,18.9,2.7-1.1,5.1c-11.3-.8-22.6-1.7-33.9-2.5C434.1,313.8,433.2,312.3,433.5,309.9Z"/><path class="cls-8" d="M446.1,214.7c2.7,1.9,6.3,2.9,6.6,7l-2,4.4c-4,2-7.7,1.2-11-1.6Z"/><path class="cls-7" d="M450.7,226.1l2-4.4c1.1-.8,2.3-1.6,3.7-2.6,1.6,1.8,3.2,3,1.3,5.3C455.3,225,453.6,228.2,450.7,226.1Z"/><path class="cls-3" d="M503.3,300.8a11.49,11.49,0,0,1,3.6-9.9C509.8,296.5,508.4,300.3,503.3,300.8Z"/><path class="cls-16" d="M465.2,291.7c-3.7-2.1-7.7-3.7-11.5-5.6h0a29.11,29.11,0,0,0-3.3-2.6,5.64,5.64,0,0,1-3-6.1c-1.4,4.5-4.1,7.9-8.7,9.6a23.26,23.26,0,0,0-2.6,1.7h0c-1.8-1-3.7-1.8-5.4-2.9-7.4-4.9-14.8-9.8-22.2-14.8l-3-2.7L392,259.8l-13.9,5.1c0,3.2,2.7,3.9,4.8,5.1,6.3,3.7,12.5,7.4,18.8,11.1l8,2.7c2,1.4,3.9,2.9,6,4.1,7.6,4.1,15.2,8,22.8,12,.8-2.5,1.7-5,2.5-7.5l-3.1-2.3,3.1,2.4,8.7,1.2h0l1.4,1.5c7.7,1.1,13.5,6,19.4,10.5,1.1.8,1.2,2.9,1.8,4.4,4.1-3.9,5.3-9.3,6.7-14.5C474.1,295.8,469.6,294.1,465.2,291.7Z"/><path class="cls-16" d="M441.1,292.5c-.8,2.5-1.7,5-2.5,7.5,2.6,2.3,5.8,4,6.4,7.9l7.9.8c-.6-4.5-1.1-9-1.7-13.5l-1.4-1.5Z"/><path class="cls-30" d="M961,136c.2-10.8,5-19.1,13.1-25.9a32.93,32.93,0,0,1,13.7-6.9,38.63,38.63,0,0,1,13.6-1.1,35.34,35.34,0,0,1,21.7,10.2,37.59,37.59,0,0,1,5.6,7.5c.3.5.7,1.1.1,1.6-.4.3-.8-.1-1.2-.4-6.1-3.9-12.9-4.9-19.9-4.3a28.74,28.74,0,0,0-19.7,9.7c-7.4,8.3-10.6,17.8-7.4,29a34.24,34.24,0,0,0,2.9,7.5c.3.5.8,1.2.5,1.6a2,2,0,0,1-2.2.1,43.61,43.61,0,0,1-7.2-3.5c-6.7-4.3-10.7-10.5-12.9-18C960.9,140.6,961.2,138.3,961,136Z"/><path class="cls-30" d="M1037.3,180.9c1.4-5.7,1.8-11.3.3-16.8a32,32,0,0,0-34.2-23.5,30,30,0,0,0-11.6,3.8,29,29,0,0,0-8.5,6.7c-.3.3-.6.6-1,.5-.6-.2-.4-.9-.4-1.4a29.28,29.28,0,0,1,7.8-20.9,29,29,0,0,1,16.9-9.2,32.7,32.7,0,0,1,13.2.4,39,39,0,0,1,14.7,6.9c9.5,7.6,14.5,17.6,14.2,29.8a31,31,0,0,1-11,23.6Z"/><path class="cls-30" d="M983.5,206.9c5.6-.7,10.8-1.9,15.4-4.9,8.5-5.4,13.9-12.8,14.9-23.1a30,30,0,0,0-3.9-19,31.25,31.25,0,0,0-14.7-13.1c-.4-.2-1-.2-1.1-.7s.7-.7,1.2-.9c10.3-3.4,19.9-1.9,28.6,4.6,6.1,4.6,9.7,10.9,11.2,18.5a35.81,35.81,0,0,1-20.8,39.7,33.16,33.16,0,0,1-27.4.7C985.8,208.3,984.4,208.3,983.5,206.9Z"/><path class="cls-30" d="M941,163.8c7.1,15.3,18.7,22.8,35,20.6,15.1-2,25.7-13.4,27.1-28.9.8-.1,1.1.6,1.5,1.1,3.9,5.7,6.6,12,6.1,19.1-.6,8.7-4.1,16.1-11.1,21.6a36,36,0,0,1-24.6,7.9,34.37,34.37,0,0,1-11.7-2.7,35.37,35.37,0,0,1-13-8.5c-6-6.2-9.7-13.6-9.8-22.4C940.3,169.1,939.9,166.6,941,163.8Z"/><path class="cls-30" d="M997,166.8a21.38,21.38,0,0,1-5.1,6.3,30,30,0,0,1-20.6,7.7c-9.5-.1-17.2-4-23.4-11a34.48,34.48,0,0,1-8.8-23.1,34.59,34.59,0,0,1,8.3-23.9,31.42,31.42,0,0,1,17.7-10.9c.8-.2,1.5-.5,2.3-.7s1.4-.2,2.4-.4c-13,11.3-16.7,25-8.8,40C968.4,165,981.3,169.5,997,166.8Z"/></svg>