<svg id="Capa_1" data-name="Capa 1" xmlns="http://www.w3.org/2000/svg" viewBox="0 0 713.38 976.01"><defs><style>.cls-1{fill:#2d7f99;}.cls-2{fill:#3ca9cc;}.cls-3{fill:#fbfbfa;}.cls-4{fill:#293e49;}.cls-5{fill:#f9f2f1;}.cls-6{fill:#3f3e3c;}.cls-7{fill:#293d48;}.cls-8{fill:#b4b4b3;}.cls-9{fill:#353534;}.cls-10{fill:#35adc8;}.cls-11{fill:#d5684b;}.cls-12{fill:#9e5138;}.cls-13{fill:#f0e9e2;}.cls-14{fill:#2e8198;}.cls-15{fill:#3e3d3d;}.cls-16{fill:#e9e8e5;}.cls-17{fill:#fff;stroke:#000;stroke-miterlimit:10;stroke-width:1.75px;}.cls-18{fill:#979797;}.cls-19{fill:#0f0f0f;}.cls-20{fill:#333;}.cls-21{fill:#575555;}.cls-22{fill:#777778;}</style></defs><title>character-2</title><path class="cls-1" d="M534.5,122.7c.2,22.2,1.5,44.6-1.3,66.4-3.8,30.1-21.2,53.1-46.4,70-22.8,15.3-47.7,26.5-74.4,31.4-21.7,4-47.3,5.1-69.5,6.5-2.4-6.3-1.8-14.4-4.2-20.7,9.4-3,19-5.5,28.2-9,19.6-7.5,38.5-16.1,52-33.2l8.8-8.9,14.4-3.2a56.56,56.56,0,0,1,7.2-2.8c22.9-6.4,39.2-20.9,49.5-41.9,9.9-20.2,12-42,10.8-64.2,3.9-.5,7.9-1.2,11.8-1.5C532.7,110.8,534,111,534.5,122.7Z" transform="translate(0 -0.09)"/><path class="cls-2" d="M367,410.6c-.3-4-.1-8.2-.9-12.1-1.7-8.7-4.1-17.3-6-26-3.4-16.3-6.8-32.7-9.8-49.1-1.7-9.3-2.6-18.7-3.9-28.1-2.4-6.3-2.3-13.4-4.6-19.6l-2.5.8c9.4-3,19-5.5,28.2-9,19.6-7.5,38.5-16.1,52-33.2h0l8.8-8.9,8.5-13.6c15.4-30.7,15.4-63.7,13.9-96.9l-20.7.4c-2.2,10.9-4,22-6.6,32.8-7.8,32.1-26.4,55-58.4,65.1-8.3,2.6-17.5,2.3-26.3,3.3l-14,5.3-73.9-3.4-16.4-3.1-3.3-.4-6.9-1.5c-4.9,4-10,7.8-14.5,12.2-9.7,9.4-11.1,31.8.7,39.2,7.1,4.4,7.4,10,6.9,17.5-.2,3.9.1,6.4-.1,9.6-1.8,24.1-7.2,47.8-10.3,71.8-2.5,19.8-5.4,41.4-7.4,61.2,4.9.5,10.9-.8,15.8-.3-.1-2.2-.4-4.4-.5-6.6.2,2.2.4,4.4.5,6.6l71.5-.5c25.3-.1,50.5-.2,75.8-.2,2.3,0,4.6,1.5,6.9,2.4h.2a2.49,2.49,0,0,0,.1-.8c-1-4.9-1.9-10-2.8-14.9" transform="translate(0 -0.09)"/><path class="cls-3" d="M363.8,71.2l6.3,14.4c-2,.5-3.9,1.2-5.9,1.6-11.2,2.1-13.5,4.9-11.9,14.7,1.7,10.3,4,12,15.5,10.7,3.5-.4,6.9-.5,10.4-.7,5,31-1.3,59.2-21,84-5.7,7.1-12,13.8-18,20.6l-14,5.3-73.9-3.4-16.4-3.1-3.3-.4-6.9-1.5c-27.1-21-42-48.7-45.3-82.8l3-1.4,5.2-1.8,10.7-6.3,14.5-17.8c.5-1.1,1.1-2.2,1.6-3.3l4-7.3a5.37,5.37,0,0,1,1.9-.4c5.1,1.1,10.1,2.4,15.3,3.4C281.6,104.5,325.2,101.1,363.8,71.2Zm-5.2,53.1c2.2,14.2-.8,23.7-13.1,28.8-13.3,5.4-21-2.6-29-11.6-1.5,8.8,3.9,15.8,13.3,19.1,10.8,3.8,27.6-3.6,33.4-14.6C367.5,137.7,366.9,130.8,358.6,124.3Zm-28.4,9.3c6.3.8,10.5-2.4,12.2-8.1s-6.2-16.8-15.4-20c3.3,6,7.1,10.1,7.6,14.5.4,4.2-2.7,8.7-4.4,13.6Z" transform="translate(0 -0.09)"/><path class="cls-4" d="M242,707.3l17.4-95.1c6-33.1,12-66.3,18-99.4.1-.7,1.1-1.3,2.9-3.1,1.4,5.6,2.9,10.2,3.6,14.9Q297.55,617.45,311,710c.2,1.4.6,2.8.9,4.3.3,5.8.5,11.6.8,17.3h13.1l9.5-.4,36.9-1.4c6.3-7.9,3.7-16.8-6.1-18.5-4.9-.8-10.3.8-15.2,2-4,1-7.8,3.1-13.1,5.3,1.9-20.1,3.6-38.4,5.3-56.7-.3.8-.6,1.6-.9,2.5a18.41,18.41,0,0,0,.9-2.5c4.2-36,8.5-72,12.6-108.1q7.35-63.75,14.4-127.6c-2.3-.8-4.6-2.3-6.9-2.3-25.3-.1-50.5.1-75.8.2l-71.5.5-14.7-1.4a52.77,52.77,0,0,0-1.3,6.7c-3.5,48.4-.3,96.6,3.9,144.7.7,1.3,1.7,2.6,2.4,3.9-.7-1.3-1.7-2.6-2.4-3.9.1,6.4,0,12.8.5,19.1,3.5,44.8,6.9,92.7,10.5,137.5,3,1,6.1-.1,9.1,0,16.4.4,33.2,4,49.1.4,5.5-1.3,5.7-10.6,4.4-12.1-3.6-4-9.5-7.9-14.6-8-6.5-.1-13.1,3.5-20.6,5.7" transform="translate(0 -0.09)"/><path class="cls-5" d="M532.8,112.3c-4,.3-18.2.4-22.1.9L498,99.9l41.2-5" transform="translate(0 -0.09)"/><path class="cls-6" d="M318.8,12.4l-7-3.1Z" transform="translate(0 -0.09)"/><path class="cls-7" d="M673.2,23.2l-1.8.2Z" transform="translate(0 -0.09)"/><path class="cls-8" d="M358.6,124.3c8.3,6.5,9,13.4,4.6,21.8-5.7,11-22.6,18.4-33.4,14.6-9.4-3.3-14.7-10.4-13.3-19.1,8,8.9,15.7,17,29,11.6C357.8,148.1,360.8,138.6,358.6,124.3Z" transform="translate(0 -0.09)"/><path class="cls-8" d="M330.2,133.6c1.7-4.8,4.8-9.4,4.4-13.6-.5-4.4-4.3-8.5-7.6-14.5,9.3,3.2,17.2,14.4,15.4,20S336.6,134.4,330.2,133.6Z" transform="translate(0 -0.09)"/><path class="cls-9" d="M358.6,29.3c-8.9-1.4-17.2-6.4-25.8-9.8l-.1-.1-13.8-7h-.1l-7-3.1a1.09,1.09,0,0,0-1.3-.4c-21.2-10.7-43-11.4-65.2-3.5l-3.4.6c-18.7,6.6-32.9,17.8-38.8,37.8a10.8,10.8,0,0,1-5.4,6.1c-24.4,11-33.5,30.9-25.7,56.7v.2l7.4,23.7,3-1.4,5.2-1.8,10.7-6.3,14.5-17.8,1.6-3.3h0c1.4-2.5,2.7-5,4-7.3a5.37,5.37,0,0,1,1.9-.4c5.1,1.1,10.1,2.4,15.3,3.4,45.9,8.9,89.6,5.4,128.1-24.5l1.1-4.3a102.69,102.69,0,0,0,28.7-37.2C380.8,29.7,369.5,31,358.6,29.3Z" transform="translate(0 -0.09)"/><path class="cls-5" d="M451.1,114.9l-20.7.4-9.7-8.5C420,93.5,420,93.6,433,89.6c5.7-1.8,11.4-3.7,17-5.9,4.4-1.8,6.5-.5,7.3,3.9.6,5.1,1.1,10.3,1.7,15.4Z" transform="translate(0 -0.09)"/><path class="cls-7" d="M707,25.2c-4.3-8.4-10.2-10-19.5-5.7l-14.3,3.8-1.8.2-10,2.3c-5.7.9-11.5,1.5-17.2,2.7-31,6.5-61.9,13.1-92.9,19.6Q497,59.65,442.5,71c-24.1,5-48.4,9.7-72.5,14.6-2,.5-3.9,1.2-5.9,1.6-11.2,2.1-13.5,4.9-11.9,14.7,1.7,10.3,4,12,15.5,10.7,3.5-.4,6.9-.5,10.4-.7l42.6-5.1C420,93.5,420,93.6,433,89.6c5.7-1.8,11.4-3.7,17-5.9,4.4-1.8,6.5-.5,7.3,3.9.6,5.1,1.1,10.3,1.7,15.4l39-3.1,41.2-5a50.27,50.27,0,0,1,6.7-1.6Q602.75,87.6,659.7,82c14.4-1.1,28.9-1.7,43.2-3.5,3.4-.4,8.5-4.5,9-7.4C714.3,55.4,714.5,39.8,707,25.2Zm-4.3,49.7a8,8,0,0,1-1.6.8,8,8,0,0,0,1.6-.8,20.28,20.28,0,0,0,1.8-1.3,20.28,20.28,0,0,1-1.8,1.3Z" transform="translate(0 -0.09)"/><path class="cls-10" d="M322.3,403.5l3.5,3.6Z" transform="translate(0 -0.09)"/><rect class="cls-11" y="729.91" width="623.7" height="90.7"/><rect class="cls-12" x="0.6" y="777.21" width="622.5" height="41.5"/><rect class="cls-13" x="82.3" y="761.41" width="459.1" height="27.5"/><rect class="cls-14" x="66" y="819.21" width="463.9" height="89.8"/><rect class="cls-15" x="130.3" y="818.71" width="336.9" height="90.9"/><rect class="cls-16" x="159.2" y="853.61" width="277.4" height="21"/><rect class="cls-12" x="193.4" y="909.61" width="393.8" height="66"/><rect class="cls-11" x="217.4" y="909.21" width="345.9" height="66.8"/><rect class="cls-13" x="437" y="926.31" width="13.7" height="32.5"/><rect class="cls-13" x="464.2" y="926.31" width="13.7" height="32.5"/><rect class="cls-13" x="491.3" y="926.31" width="13.7" height="32.5"/><rect class="cls-13" x="518.4" y="926.31" width="13.7" height="32.5"/><ellipse class="cls-17" cx="694.7" cy="48.41" rx="13.2" ry="25.1"/><path class="cls-18" d="M687.8,40.3a18.26,18.26,0,0,1,2.8-10.4,7,7,0,0,1,2.9-2.8,4,4,0,0,1,2.8-.4c1.8.4,3.3,1.7,4.5,4.1a20.83,20.83,0,0,1,1.2,3c.1.2.2.4,0,.6s-.2-.1-.3-.2a4,4,0,0,0-4.2-1.7c-1.6.2-3,1.6-4.1,3.9A20,20,0,0,0,691.8,48c.2,1,.3,2,.6,3,.1.2.2.5.1.6s-.3.1-.5,0a9.6,9.6,0,0,1-1.5-1.4c-1.4-1.7-2.2-4.2-2.7-7.3Z" transform="translate(0 -0.09)"/><path class="cls-19" d="M703.8,58.3a25.87,25.87,0,0,0,.1-6.8c-.5-3.8-1.7-6.6-3.6-8.3a4.11,4.11,0,0,0-3.5-1.2,4.45,4.45,0,0,0-2.4,1.5,9.09,9.09,0,0,0-1.8,2.7c-.1.1-.1.3-.2.2s-.1-.4-.1-.6a20,20,0,0,1,1.6-8.4c1-2,2.2-3.3,3.5-3.7a3.46,3.46,0,0,1,2.8.2,8.09,8.09,0,0,1,3.1,2.8q3,4.65,3,12c-.2,3.8-.9,7.1-2.5,9.6Z" transform="translate(0 -0.09)"/><path class="cls-20" d="M692.5,68.8a5.31,5.31,0,0,0,3.2-2c1.8-2.2,2.9-5.2,3.1-9.3a24.31,24.31,0,0,0-.8-7.7,10.12,10.12,0,0,0-3.1-5.3c-.1-.1-.2-.1-.2-.3s.1-.3.2-.3c2.2-1.4,4.2-.8,6,1.9a15.78,15.78,0,0,1,2.3,7.4,24.64,24.64,0,0,1-.2,7.2c-.7,4-2.1,7-4.1,8.7s-3.8,1.8-5.7.3C693,69.3,692.7,69.3,692.5,68.8Z" transform="translate(0 -0.09)"/><path class="cls-21" d="M683.6,51.4c1.5,6.2,3.9,9.1,7.3,8.3,3.2-.8,5.4-5.4,5.7-11.6.2,0,.2.2.3.4a20.74,20.74,0,0,1,1.3,7.7,17.19,17.19,0,0,1-2.3,8.7c-1.5,2.3-3.2,3.3-5.2,3.2a5.5,5.5,0,0,1-2.5-1.1,10.67,10.67,0,0,1-2.7-3.4,20.59,20.59,0,0,1-2.1-9C683.5,53.6,683.4,52.6,683.6,51.4Z" transform="translate(0 -0.09)"/><path class="cls-22" d="M695.3,52.7a11.7,11.7,0,0,1-1.1,2.5c-1.2,2.1-2.7,3.1-4.3,3.1-2,0-3.6-1.6-4.9-4.4a23.66,23.66,0,0,1-1.9-9.3,24.18,24.18,0,0,1,1.7-9.6c1-2.2,2.2-3.8,3.7-4.4.2-.1.3-.2.5-.3s.3-.1.5-.2a20.14,20.14,0,0,0-1.8,16.1C689.3,51.9,692,53.7,695.3,52.7Z" transform="translate(0 -0.09)"/></svg>