<?xml version="1.0" encoding="utf-8"?>
<!-- Generator: Adobe Illustrator 23.0.5, SVG Export Plug-In . SVG Version: 6.00 Build 0)  -->
<svg version="1.1" id="Capa_1" xmlns="http://www.w3.org/2000/svg" xmlns:xlink="http://www.w3.org/1999/xlink" x="0px" y="0px"
	 viewBox="0 0 943.3 1055.8" style="enable-background:new 0 0 943.3 1055.8;" xml:space="preserve">
<style type="text/css">
	.st0{fill:#313436;}
	.st1{fill:#F5D99A;}
	.st2{fill:#EEC06E;}
	.st3{fill:#F4D99A;}
	.st4{fill:#295A10;}
	.st5{fill:#FDFDFC;}
	.st6{fill:#DEF3BC;}
	.st7{fill:#00B159;}
	.st8{fill:#EFC36F;}
	.st9{fill:#7BB532;}
	.st10{fill:#4F8F14;}
	.st11{fill:#FDFEFD;}
	.st12{fill:#444749;}
	.st13{fill:#C6E499;}
</style>
<title>character-1</title>
<path class="st0" d="M615.8,11.8c7.4,2.5,14.1,6.8,21.3,9.8c16.4,6.7,32.7,13.4,50.3,16.6c13.8,2.5,25-1.5,34.2-12
	c0.8-0.8,1.7-1.5,2.6-2.2c1.5,11.8,1.3,23.8-0.5,35.6c-2.8,19.3-8.9,37.2-22.6,51.7c-0.9,1-1.2,2.9-1.2,4.4c-0.1,18.5,0,37,0,55.5
	h-18.2v-45.6c-1.3,0.5-2,0.8-2.7,1.1c-28.2,12.4-54.8,8.2-80.5-7.3c-19-11.5-34.8-26.9-50.7-42.1c-5.3-5-11-10.4-17.5-13.1
	c-21.4-8.5-49.6,2-62.3,22.4c-6.1,9.9-14.8,14.9-26.3,15c-1.4,0-2.8,0.3-4.7,0.5v69.2h-18.1c0.1-32.2,0.3-64.4,0.1-96.6
	c-0.1-18.3,15.2-29.5,29.2-27c6.2,1.1,11.8,4.8,17.8,7.4c-0.9-9.4,0.9-16.4,3.4-21.7C483.9,3.6,545-12.4,615.8,11.8z"/>
<path class="st1" d="M927.9,791.8c2,9.1,4.5,18.3,2,27.6c-1.8,7.1-4.1,14.2-6.9,21c-13.7,32.8-27.6,65.5-41.5,98.2
	c-6.5,15.4-13.3,30.7-19.8,46.1c-9.2,21.8-18.3,43.6-27.4,65.4l-2,5.8H755c0.7-1.8,1.4-3.6,2.2-5.4c15.1-36,30.2-72,45.3-108
	c10.3-24.6,20.7-49.2,31-73.8c6.1-14.7,12.1-29.4,18.2-44.1c6.8-3,13.5-6,20.3-8.9C890.6,807.6,909.2,799.7,927.9,791.8z"/>
<path class="st2" d="M851.7,824.5c-6.1,14.7-12,29.4-18.2,44.1c-10.3,24.6-20.6,49.2-31,73.8c-15.1,36-30.2,72-45.3,108
	c-0.8,1.8-1.4,3.6-2.2,5.4h-37.7l0.1-1.9l20.1-47.2l10-24.3c2.8-6.3,5.7-12.6,8.4-19c10.6-25.2,21.2-50.4,31.8-75.6
	c6-14.4,11.8-28.8,17.7-43.3L851.7,824.5z"/>
<path d="M747.6,982.3l-10,24.3c-2.3,0-4.5-0.1-6.8-0.1h-390c-0.8-12.7-1.7-25.3-2.5-38c-1.6-23.2-3.2-46.4-4.9-69.7
	c6.6-7.4,10.7-15.6,7.8-25.9c0-2.6,0-5.1,0.1-7.7c0.6-15.1,2.2-30.2,1.7-45.3c-0.9-26.5-3.5-52.9-4.5-79.4
	c-0.3-12.4-4.9-24.3-13.1-33.7c-17.5-20.7-40.1-32.7-65.8-39.6c-5.8-1.6-11.9-2.1-17.9-3l0.1,0.1l-1-0.2
	c-9.9-5.9-20.2-10.3-32.8-6.8v-22.2c4.3-5.8,8.7-11.4,12.8-17.3c27.3-39.8,54.4-79.7,81.8-119.5c9.7-14.2,19.3-28.6,30-42
	c11.1-13.9,26.1-22.7,43.3-27.6c23.5-6.6,47.1-13.2,70.6-19.8V495l68.9-26.3c0.7,0.6,1.3,1.4,1.8,2.1c9.9,18.2,19.7,36.4,29.5,54.7
	c2.6,4.9,6.4,8,12.1,8.1s9.8-2.5,12.5-7.5c7.6-14,15.1-28,22.8-41.9c2.9-5.3,6-10.5,9.1-15.7l69.7,26.2c0.3-0.7,0.5-1.4,0.6-2.1
	c-0.1-27.8-0.2-55.6-0.3-83.5c4.5,0.9,9.1,1.6,13.6,2.8c29.6,7.8,59.2,15.5,86.8,29c11.4,5.6,22.2,12.2,28,24.1
	c4.4,9,8,18.3,12,27.4c12.7,29.5,25.5,59.1,38.2,88.6c16.5,38.3,32.9,76.5,49.4,114.8c2.3,5.3,4.7,10.6,7,15.9
	c-4.4,2-8.6,4.3-13.1,5.9c-3.3,1.2-4.7,3.3-5.5,6.5c-1.5,5.5-3.3,10.9-5,16.5c-6.5-2.8-12.3-5.5-18.3-7.9c-1.7-0.7-3.6-0.8-5.3-0.3
	c-18.1,7.6-36,15.5-54,23.2c-10.5,4.5-21,8.7-31.5,13c-3.7-9.1-7.4-18.2-11.7-28.5c-0.3,0.9-0.6,1.9-0.8,2.8
	c-1.7,26.3-3.3,52.7-5,79c-2.1,32.3-4.3,64.6-6.4,96.9C750.1,940.2,748.9,961.2,747.6,982.3z"/>
<path class="st3" d="M708.5,178c16.2,11,22.6,34.3,14.5,52.4c-6.8,15.3-18.5,24.4-35.1,26.9c-3.4,0.5-4.6,2-4.6,5.4
	c0.2,8.9-0.1,17.7,0.1,26.6c0.3,16.1-6.1,28.9-18.5,39c-10.3,8.5-20.4,17.2-30.6,25.8c-4.7,3.9-9.2,8.1-14.1,11.7
	c-19.8,14.7-42,21.6-66.8,20.3c-19.4-1-38.1-7.6-53.7-19.2c-5.6-4-10.8-8.5-16.1-12.9c-9.1-7.9-17.9-16.1-27.4-23.5
	c-14.4-11.1-22-25.1-21.1-43.5c0.4-8.2,0-16.4,0.1-24.6c0.1-3.2-1.2-4.6-4.4-5c-22.5-2.9-37.7-20.3-38.8-41.9
	c-0.8-15.2,4.9-28.3,18-37.4c-0.8,7.4,0.5,13.9,7.9,17.7c0.9,0.4,1.3,1.8,1.9,2.7c1.9,5.4,3.8,10.9,5.7,16.3
	c2.3,6.1,4.7,12.2,6.9,18.4c3.5,9.7,8.1,13.1,18.3,13.1c21.3,0,42.5,0,63.8,0c12.7,0,17.8-4.3,20.1-16.7c1.9-10.6,3.8-21.2,5.9-31.8
	c0.4-1.8,1.6-4.1,3.1-4.9c10.3-5.3,20.8-5.3,31,0.2c1.8,1.2,3,3.1,3.5,5.2c2.3,11.4,4.2,22.8,6.5,34.1c1.9,9.3,7.5,13.8,17,13.8
	c22.6,0,45.1,0,67.7,0c8.4,0,13.8-4.2,16.5-12.2c1.8-5.5,3.7-11,5.6-16.4l0.9-1.8v0.1l6.5-17.5c0.7-0.9,1.1-2.2,2-2.6
	C708,191.8,709.2,185.4,708.5,178z"/>
<path class="st4" d="M208,635.3v22.2c12.6-3.5,22.8,0.9,32.8,6.8l1,0.2l-0.1-0.1c7.3,8.5,16.5,14.1,27.7,14.5
	c9.1,0.3,17.5,2.9,25.5,6.5c4.7,2.1,10.2,4.9,12.7,9c6.7,11,11.6,23,10.8,36.7c-15.3-6.4-27.8-3-37.4,11.3
	c-2.1-14.8-10.3-23.8-23.7-27.3c-16.9-4.4-29.8,2.1-38.8,17c-7.7-17.3-19.4-25.4-35.5-24.9c-15,0.4-25.6,7.9-31,22.1l-2-2.8
	c-4.4-6.2-10.4-10.1-18-11c-13.2-1.7-24.7,5.9-28.4,18.7c-3,10.3-5.8,20.7-8.8,31.5c-2.8-1.9-4.9-3.8-7.3-4.9
	c-4.1-1.9-5.6-4.9-6.2-9.3c-1-7.5-4.5-14-9.4-19.8c-3.6-4.1-3.2-13,0.9-16.4c12.9-10.7,25.5-21.4,42-27.4
	c15.5-5.7,30.9-11.5,47-15.6c5.1-1.3,9.8-4.4,14.7-6.8c4.8-2.6,9.5-5.5,14.5-7.7c6.3-2.7,9-7.1,9-13.8c-0.1-28,0-56.1-0.1-84.1
	c0-1.6-0.3-3.2-0.4-4.8v-3.3l-0.1-0.1l0.4-3.5l-0.1-149.5c0.1-0.1,0.2-0.3,0.2-0.4c-0.1-0.3-0.2-0.5-0.3-0.8l-0.2-16.4
	c0.2-1.4,0.4-2.8,0.5-4.3c0-49.1,0-98.3,0-147.4c0-1.3-0.2-2.6-0.3-3.8c0.2-1.5,0.5-2.9,0.7-4.4l6.8-0.6l1.3,4.7v3
	c0,62.9,0,125.7-0.1,188.6c0,0.8,0.1,1.6,0.3,3l12.1-3.1c0,1.4-0.1,2.8-0.1,4.2l1.1,4.2c-4.4,1.5-10.3,1.9-12.6,5
	c-2.2,2.9-0.7,8.6-0.7,13.1C208,507.3,208,571.3,208,635.3z"/>
<path d="M708.5,178c0.7,7.4-0.6,13.8-7.8,17.7c-0.9,0.5-1.3,1.7-2,2.6l-6.5,17.4v-0.1l-0.9,1.8c-1.9,5.5-3.8,10.9-5.6,16.4
	c-2.6,8-8,12.2-16.5,12.2c-22.6,0.1-45.1,0.1-67.7,0c-9.5,0-15.1-4.5-17-13.8c-2.3-11.4-4.2-22.8-6.5-34.1c-0.4-2.1-1.7-4-3.5-5.2
	c-10.2-5.5-20.7-5.5-31-0.2c-1.5,0.8-2.8,3.1-3.1,4.9c-2.1,10.6-4,21.2-5.9,31.8c-2.3,12.4-7.4,16.7-20.1,16.7
	c-21.3,0-42.5,0-63.8,0c-10.2,0-14.8-3.4-18.3-13.1c-2.2-6.2-4.6-12.3-6.9-18.4c-1.9-5.4-3.8-10.9-5.7-16.3c-0.6-0.9-1-2.3-1.9-2.7
	c-7.4-3.8-8.6-10.3-7.9-17.7c0.2-2,0.3-4.1,0.5-6.8h26.5c26.3,0,52.5,0.4,78.8,0c11-0.1,20.1,2.1,24.4,12.1c7-1.2,13.2-3.2,19.5-3.1
	s12.4,2.3,18.8,3.6c5.4-9.8,9.8-12.4,21.7-12.4l81.7-0.1h18.2c0.5,0,1,0.1,1.4,0.1C708.1,171.5,708.1,171.5,708.5,178z M436.5,219.6
	c1.2,4,2.4,8,3.7,12c1.5,4.8,4.6,6.8,9.7,6.7c22.1-0.2,44.1-0.1,66.2-0.1c6.8,0,8.8-1.6,10.1-8.4c2.2-11.1,4.1-22.1,6.2-33.2
	c2.2-11.4-2.6-17.2-14.3-17.2c-27.1,0-54.1,0-81.2,0c-7.8,0.5-12.2,5.1-10.2,11.6C429.7,200.6,433.3,210,436.5,219.6z M681.4,179.4
	c-27.2,0-54.4,0-81.5,0c-1.6,0-3.2,0.1-4.8,0.3c-6.1,1.1-10.8,6.7-9.8,12.8c2.2,13.1,4.7,26.3,7.2,39.3c0.8,4.1,3.5,6.3,7.8,6.3
	c23.2,0,46.3,0,69.5,0c3.9,0,6.5-1.9,7.7-5.3c1.6-4.4,2.8-8.9,4.2-13.3c3.1-8.8,6.3-17.5,9.2-26.3
	C693.9,184.9,690.4,179.9,681.4,179.4L681.4,179.4z"/>
<path class="st5" d="M515.4,468.8l-68.9,26.3v-85.8c7.6-6.3,15.1-12.7,22.8-18.9c4.7-3.9,9.5-7.6,14.3-11.3v0.2
	c0.2,10.1-0.9,20.3,3.8,29.9c6.2,12.6,11.9,25.4,17.8,38C508.4,454.3,511.9,461.5,515.4,468.8z"/>
<path class="st6" d="M220.3,421c0-1.4,0.1-2.8,0.1-4.2c4-8.7,7-18,12.1-25.9c9.3-14.1,23.6-21.4,39.7-25.3
	c21.8-5.3,43.7-4.6,65.5-0.5c12.4,2.3,24.8,5.5,37.1,8.5c1.5,0.4,2.8,1.8,4.1,2.7c-0.1,0.1-0.3,0.2-0.3,0.3c0,0.2,0.1,0.5,0.2,0.7
	l0.1-0.1c-1.7,0-3.4,0.2-5.1,0.5C322.7,392,271.5,406.5,220.3,421z"/>
<path class="st7" d="M220.3,421c51.2-14.5,102.4-29,153.5-43.4c1.7-0.3,3.4-0.5,5.1-0.5c-6.2,6.3-12.1,12.9-18.6,18.8
	c-18.8,17.1-38.8,32.3-62.4,42.4c-11,4.7-22.5,7.9-34.6,7.5c-13.7-0.4-25.3-5.5-35.1-15c-2.1-2.1-4.6-3.8-6.9-5.7L220.3,421z"/>
<path class="st7" d="M200.1,221.2c-0.2,1.5-0.5,2.9-0.7,4.4c-14.6,12.7-30.6,15.1-47.8,6.1c-4.7-2.5-9.1-5.5-13.1-8.9
	c-15.2-12.7-25.8-28.9-36.3-47c9.1-0.5,17.2-1.3,25.3-1.2c15,0,29.9,1.6,44.1,7.2C189.5,188.8,199.8,201.4,200.1,221.2z"/>
<path class="st7" d="M199.4,397.5c0.1,0.2,0.2,0.5,0.3,0.8c0,0.1-0.1,0.3-0.2,0.4c-7.9,4.3-15.8,8.4-25,9.5
	c-16.3,2.1-30.8-2.8-44.5-10.8c-23.8-14.1-41.9-34.2-58.4-56c-4.6-6.1-8.9-12.6-13.2-19c-0.8-1.1-0.9-2.7-1.3-4.1
	c12.1,6.7,24.1,13.4,36.2,20.1L199.4,397.5z"/>
<path class="st6" d="M199.4,397.5L93.3,338.4c-12.1-6.7-24.1-13.4-36.2-20.1c1-0.5,2-0.8,3.1-0.9c33.6,1,66.7,5,97.6,19.4
	c13.9,6.5,26.3,15.1,34.2,28.7c2.9,5,4.9,10.4,7.3,15.7L199.4,397.5z"/>
<path class="st8" d="M483.5,354c5.4,4.3,10.6,8.8,16.1,12.9c15.6,11.5,34.3,18.2,53.7,19.2c24.8,1.3,47-5.6,66.8-20.3
	c4.9-3.6,9.4-7.8,14.1-11.7l0.7,24l-0.9,1.1c-1.3,0.6-2.5,1.4-3.7,2.1c-24.1,17.2-50.7,25.6-80.5,23.1c-19.9-1.5-39.2-8-55.9-19
	c-3.4-2.3-7.1-4.1-10.6-6.2V379C483.5,370.6,483.5,362.3,483.5,354z"/>
<path class="st7" d="M199.2,551.7L199.2,551.7c-3.8-0.5-7.8-0.9-11.6-1.8c-21-5.2-41.9-10.4-62.9-15.7l6.9-3.1l30.7-4
	c2.6,0.2,5.3,0.7,7.9,0.7c13.7-0.1,24.8,8,28,20.4C198.5,549.4,198.9,550.5,199.2,551.7z"/>
<path class="st6" d="M208.2,225.3l-1.3-4.7c4.3-18.5,18.3-24.6,35-27.1c3.6-0.5,7.3-0.8,11-0.8c0.8,0,1.6,0.9,2.4,1.4
	c-1.1,0.7-2.2,1.3-3.3,2L208.2,225.3z"/>
<path class="st7" d="M208.2,225.3l43.8-29.2c1.1-0.7,2.2-1.4,3.3-2c-6.5,13.9-15,26.2-28,34.8c-6.4,4.2-12.8,3.1-19.1-0.5
	L208.2,225.3z"/>
<path class="st9" d="M199.2,551.7c-0.3-1.2-0.6-2.3-0.9-3.5l1.3-0.1C199.5,549.3,199.3,550.5,199.2,551.7z"/>
<path class="st10" d="M378.9,377.2c-0.1-0.2-0.1-0.4-0.2-0.7c0-0.1,0.2-0.2,0.3-0.3c0.1,0.2,0.2,0.5,0.3,0.7
	C379.3,377,379,377.1,378.9,377.2z"/>
<path class="st11" d="M775.3,768.9c10.5-4.3,21.1-8.6,31.5-13c18-7.7,36-15.6,54-23.2c1.8-0.5,3.6-0.4,5.3,0.3
	c6,2.4,11.8,5.1,18.3,7.9c1.7-5.6,3.5-11,5-16.5c0.8-3.2,2.2-5.3,5.5-6.5c4.5-1.7,8.8-3.9,13.1-5.9c2.9-1.2,4.2,0.2,5.3,2.8
	c2.6,6.3,5.5,12.5,8.3,18.7c7.2,16.9,14.3,33.9,21.6,51.2l-15.4,7.2c-18.7,7.9-37.3,15.9-55.9,23.8c-6.8,2.9-13.5,6-20.3,8.9
	l-46.3,19.9c-0.9-1.1-2.1-2-2.6-3.2c-9.6-22-19-44-28.6-65.9C773.1,772.8,773,770.8,775.3,768.9z M902.1,776.8
	c4.5-0.1,8.2-3.6,8.4-8.1c-0.1-4.5-3.6-8.2-8.1-8.5c-4.5,0-8.2,3.7-8.3,8.2c-0.2,4.5,3.3,8.3,7.8,8.4
	C902,776.8,902,776.8,902.1,776.8z"/>
<path class="st5" d="M634.1,379.1l0.9-1.1c12,9.6,24,19.1,35.9,28.7c0.8,0.8,1.6,1.6,2.3,2.4c0.1,27.8,0.2,55.6,0.3,83.5
	c-0.1,0.7-0.3,1.4-0.6,2.1l-69.7-26.2c1-2.5,1.9-5.1,3.1-7.5c6.2-12.5,12.3-25.1,18.7-37.5C632.1,409.6,636.5,395.1,634.1,379.1z"/>
<path class="st1" d="M681.5,171.2l-81.7,0.1c-11.9,0-16.3,2.6-21.7,12.4c-6.4-1.3-12.6-3.5-18.8-3.6s-12.5,1.9-19.5,3.1
	c-4.2-9.9-13.3-12.2-24.4-12.1c-26.3,0.4-52.5,0-78.8,0V102c1.9-0.2,3.3-0.5,4.7-0.5c11.6-0.1,20.2-5.1,26.3-15
	c12.6-20.4,40.8-30.9,62.3-22.4c6.6,2.6,12.3,8.1,17.5,13.1c16,15.2,31.7,30.6,50.7,42.1c25.7,15.5,52.3,19.7,80.5,7.3
	c0.7-0.3,1.4-0.6,2.7-1.1L681.5,171.2z"/>
<path class="st12" d="M340.8,1006.5h390c2.3,0,4.5,0,6.8,0.1l-20.1,47.2c-2.7,0-5.5-0.2-8.2-0.2H345.9c-2.7,0-5.8,0.8-5.6-3.7
	C340.5,1035.5,340.6,1021,340.8,1006.5z"/>
<path class="st1" d="M80.3,816.3c1.8-6.3,3.8-12.6,5.5-18.9c0.3-1.4,0-2.8-0.8-4c-2.8-4-5.9-7.9-8.6-11.3
	c-5.8,4.5-10.7,9.5-16.6,12.6c-16.7,8.8-34.6,5.7-48.2-7.6c-0.8-0.8-1.6-1.5-2.5-2.3c-9.1-12.6-11.8-26.3-6.3-41
	c7-18.3,25.9-28.8,45.4-25.2c3.4,0.6,5.1-0.1,7.1-2.8c3.6-5.1,7.2-10.6,12-14.4c7.9-6.2,16.3-12.2,25.3-16.5
	c12.5-6,25.9-10.4,38.9-15.5l30.9-4.2l13.9,0.2c-4.9,2.3-9.5,5.5-14.7,6.8c-16.1,4.1-31.5,9.9-47,15.6c-16.5,6-29.1,16.7-42.1,27.4
	c-4.1,3.4-4.4,12.3-0.9,16.4c5,5.7,8.4,12.3,9.4,19.8c0.6,4.4,2.1,7.4,6.2,9.3c2.4,1.1,4.5,3,7.3,4.9c3-10.8,5.8-21.2,8.8-31.5
	c3.8-12.8,15.3-20.3,28.4-18.7c7.6,1,13.5,4.8,18,11l2,2.8c5.4-14.2,16.1-21.7,31-22.1c16.1-0.4,27.8,7.7,35.5,24.9
	c9-14.9,21.9-21.4,38.8-17c13.4,3.5,21.7,12.5,23.7,27.3c9.6-14.4,22.2-17.7,37.4-11.3c0.8-13.7-4.1-25.7-10.8-36.7
	c-2.5-4.1-8-6.9-12.7-9c-8-3.6-16.4-6.2-25.5-6.5c-11.2-0.4-20.4-6-27.7-14.5c6,1,12.1,1.5,17.9,3c25.7,6.9,48.3,18.9,65.8,39.6
	c8.2,9.3,12.8,21.3,13.1,33.7c1,26.5,3.6,52.9,4.5,79.4c0.5,15-1.1,30.2-1.7,45.3c-0.1,2.6-0.1,5.1-0.1,7.7
	c-4.6,1.5-9.1,3.1-13.7,4.5c-16.6,4.9-33.3,6.7-50.3,1.3c-1.4-0.3-2.8-0.3-4.2,0c-14.5,2.2-29,4.6-43.6,1.8
	c-8.6-1.6-16.9-4.8-25.3-7.3c-2.2-0.7-4.3-2.1-6.5-2.1c-8.5-0.3-17,0.2-25.4-0.2c-13.5-0.5-26.6-3.2-38.6-9.2
	c-9-4.5-18.3-5.6-28.1-6.3c-11.6-0.9-23-3.2-32.1-11.5C75.7,834.8,78,825.5,80.3,816.3z"/>
<path class="st1" d="M634.1,379.1c2.3,15.9-2.1,30.5-9.2,44.5c-6.3,12.4-12.5,25-18.7,37.5c-1.2,2.4-2.1,5-3.1,7.5
	c-3,5.2-6.2,10.4-9.1,15.7c-7.6,13.9-15.2,27.9-22.8,41.9c-2.7,4.9-6.8,7.6-12.5,7.5s-9.5-3.2-12.1-8.1
	c-9.8-18.3-19.6-36.5-29.5-54.7c-0.5-0.8-1.2-1.5-1.8-2.1c-3.4-7.2-6.9-14.5-10.3-21.7c-5.9-12.7-11.6-25.5-17.8-38
	c-4.7-9.6-3.6-19.8-3.8-29.9c3.6,2,7.2,3.9,10.6,6.2c16.7,11,36,17.5,55.9,19c29.8,2.5,56.4-5.9,80.5-23.1
	C631.7,380.5,632.9,379.8,634.1,379.1z"/>
<path class="st8" d="M73.4,844c9.1,8.3,20.5,10.6,32.1,11.5c9.8,0.8,19.1,1.8,28.1,6.3c12,6,25.2,8.7,38.6,9.2
	c8.5,0.3,17-0.1,25.4,0.2c2.2,0.1,4.3,1.5,6.5,2.1c8.4,2.5,16.7,5.7,25.3,7.3c14.6,2.8,29.1,0.3,43.6-1.8c1.4-0.3,2.8-0.3,4.2,0
	c16.9,5.4,33.6,3.6,50.3-1.3c4.6-1.4,9.2-3,13.7-4.5c2.9,10.3-1.2,18.4-7.8,25.9c-6.6,4.1-13.1,7.8-21.2,8.3
	c-11.6,0.7-21.6-2.2-30.2-9.8c-0.7-0.6-1.5-1.2-1.9-1.5c-3.7,3.4-6.9,7-10.6,9.9c-17.9,14.1-46.2,9.4-60.5-4.1
	c-0.6-0.5-1.3-1-1.9-1.5l-6.8-12.1c-6.8,11.7-18.3,16.7-31.6,17.7c-15.7,1.1-30-3.5-41.8-14.1c-3.4-3-6-7.2-8.2-11.2
	c-1.6-2.9-3.7-3.5-5.8-2c-11.7,8.5-23,5.5-34.3-0.7C68.3,867.8,67.7,856.4,73.4,844z"/>
<path class="st1" d="M241.7,664.4l-1-0.2L241.7,664.4z"/>
<path class="st13" d="M162.6,562.7c-11-4.7-21.2-11.2-30-19.3l-7.8-9.2c21,5.3,41.9,10.5,62.9,15.7c3.8,0.9,7.8,1.3,11.7,1.9v3.3
	c-1.5,0.8-3.1,1.5-4.6,2.4c-3.2,1.8-6.2,3.9-9.5,5.4C177.7,566.2,170.1,564.4,162.6,562.7z"/>
<path class="st12" d="M692.2,215.8l6.5-17.5L692.2,215.8z"/>
<path class="st12" d="M419.7,198.4c1.9,5.4,3.8,10.9,5.7,16.3C423.5,209.3,421.6,203.8,419.7,198.4z"/>
<path class="st12" d="M691.3,217.5l0.9-1.8L691.3,217.5z"/>
<path class="st3" d="M681.8,219.5c-1.4,4.4-2.6,8.9-4.2,13.3c-1.2,3.5-3.8,5.4-7.7,5.3c-23.1-0.1-46.3-0.1-69.5,0
	c-4.4,0-7.1-2.2-7.8-6.3c-2.5-13.1-5.1-26.2-7.2-39.3c-1-6.1,3.6-11.8,9.8-12.8c1.6-0.2,3.2-0.4,4.8-0.3c27.2,0,54.4,0,81.5,0
	C681.6,192.8,681.7,206.1,681.8,219.5z"/>
<path class="st3" d="M437,179.4c27.1,0,54.1,0,81.2,0c11.7,0,16.5,5.8,14.3,17.2c-2.1,11.1-4.1,22.1-6.2,33.2
	c-1.3,6.8-3.3,8.4-10.1,8.4c-22.1,0-44.1-0.1-66.2,0.1c-5.1,0-8.3-1.9-9.7-6.7c-1.2-4-2.4-8-3.7-12L437,179.4z"/>
<path class="st0" d="M437,179.4l-0.4,40.2c-3.3-9.5-6.8-19-9.8-28.6C424.8,184.5,429.1,179.9,437,179.4z"/>
<path class="st0" d="M681.8,219.5c-0.1-13.4-0.2-26.8-0.3-40.2c8.9,0.5,12.4,5.5,9.6,13.9C688.1,202,684.9,210.8,681.8,219.5z"/>
<path class="st7" d="M902.1,776.8c-4.5-0.1-8.1-3.7-8-8.2c0-0.1,0-0.1,0-0.2c0.1-4.5,3.7-8.2,8.3-8.2c4.5,0.3,8,4,8.1,8.5
	C910.2,773.2,906.6,776.7,902.1,776.8z"/>
</svg>
