<svg id="Capa_1" data-name="Capa 1" xmlns="http://www.w3.org/2000/svg" viewBox="0 0 943.32 1055.78"><defs><style>.cls-1{fill:#313436;}.cls-2{fill:#f5d99a;}.cls-3{fill:#eec06e;}.cls-4{fill:#00b159;}.cls-5{fill:#f4d99a;}.cls-6{fill:#295a10;}.cls-7{fill:#fdfdfc;}.cls-8{fill:#def3bc;}.cls-9{fill:#efc36f;}.cls-10{fill:#7bb532;}.cls-11{fill:#4f8f14;}.cls-12{fill:#fdfefd;}.cls-13{fill:#444749;}.cls-14{fill:#c6e499;}</style></defs><title>character-1</title><path class="cls-1" d="M1394.25,36c7.39,2.53,14.07,6.82,21.3,9.78,16.36,6.69,32.72,13.38,50.28,16.57,13.76,2.51,25-1.47,34.16-12a27,27,0,0,1,2.61-2.2,131.53,131.53,0,0,1-.49,35.61c-2.78,19.3-8.93,37.15-22.64,51.72-.93,1-1.23,2.91-1.23,4.4-.07,18.51,0,37,0,55.53H1460V149.8c-1.31.51-2,.76-2.73,1.07-28.18,12.37-54.84,8.23-80.52-7.31-19-11.52-34.77-26.9-50.74-42.12-5.26-5-11-10.44-17.52-13.06-21.43-8.54-49.64,2-62.26,22.39-6.13,9.93-14.75,14.86-26.3,15-1.4,0-2.79.29-4.67.49v69.22h-18.12c.06-32.18.3-64.36.1-96.55-.11-18.28,15.24-29.48,29.18-27,6.16,1.11,11.85,4.82,17.79,7.36-.88-9.43.86-16.43,3.44-21.69C1262.36,27.77,1323.44,11.81,1394.25,36Z" transform="translate(-778.46 -24.22)"/><path class="cls-2" d="M1706.36,816c2,9.11,4.47,18.26,2,27.6a164.53,164.53,0,0,1-6.86,21c-13.69,32.8-27.61,65.51-41.51,98.21-6.54,15.39-13.32,30.68-19.84,46.08-9.2,21.76-18.26,43.59-27.38,65.38l-2,5.78h-77.33c.71-1.79,1.4-3.6,2.15-5.37q22.65-54,45.33-108,15.51-36.89,31-73.76c6.13-14.68,12.12-29.41,18.17-44.12,6.76-3,13.5-6,20.3-8.92Q1678.37,827.85,1706.36,816Z" transform="translate(-778.46 -24.22)"/><path class="cls-3" d="M1630.14,848.72c-6.05,14.71-12,29.44-18.17,44.12q-15.45,36.92-31,73.76-22.68,54-45.33,108c-.75,1.77-1.44,3.58-2.15,5.37h-37.7l.12-1.93,20.13-47.24,10-24.34c2.79-6.32,5.68-12.6,8.36-19q15.94-37.77,31.76-75.59c6-14.39,11.82-28.85,17.72-43.28Z" transform="translate(-778.46 -24.22)"/><path class="cls-4" d="M1526.05,1006.49l-10,24.34c-2.26,0-4.51-.08-6.77-.08h-390c-.85-12.66-1.66-25.31-2.54-38q-2.42-34.83-4.88-69.65c6.55-7.43,10.69-15.59,7.79-25.87,0-2.57,0-5.14.1-7.7.62-15.09,2.19-30.2,1.69-45.25-.89-26.5-3.48-52.94-4.49-79.44a53.09,53.09,0,0,0-13.12-33.69c-17.5-20.71-40.12-32.74-65.81-39.62-5.83-1.56-11.94-2.06-17.93-3l.12.08-1-.15c-9.92-5.87-20.18-10.28-32.77-6.75v-22.2c4.27-5.75,8.74-11.36,12.78-17.26,27.29-39.81,54.43-79.72,81.76-119.49,9.73-14.18,19.25-28.57,30-42,11.11-13.89,26.09-22.74,43.28-27.58q35.3-9.93,70.63-19.75v85.84L1293.82,493a12.35,12.35,0,0,1,1.85,2.13q14.79,27.32,29.48,54.69c2.63,4.91,6.38,8,12.12,8.1s9.83-2.55,12.51-7.48c7.6-13.95,15.12-27.95,22.76-41.89,2.9-5.3,6-10.48,9.09-15.71L1451.29,519a11.06,11.06,0,0,0,.61-2.13q-.11-41.73-.25-83.46c4.54.92,9.14,1.62,13.62,2.8,29.56,7.77,59.17,15.47,86.79,29,11.4,5.6,22.17,12.21,28,24.15,4.36,9,8,18.25,12,27.41q19.1,44.32,38.17,88.64,24.69,57.4,49.39,114.79c2.29,5.32,4.66,10.6,7,15.9-4.36,2-8.62,4.27-13.11,5.94-3.26,1.21-4.66,3.35-5.5,6.51-1.47,5.5-3.28,10.91-5,16.5-6.51-2.85-12.35-5.54-18.31-7.91a7.83,7.83,0,0,0-5.34-.27c-18.06,7.62-36,15.5-54,23.19-10.46,4.46-21,8.7-31.54,13-3.72-9.1-7.45-18.2-11.68-28.53a27.12,27.12,0,0,0-.75,2.81q-2.52,39.52-5,79.05c-2.1,32.29-4.31,64.57-6.39,96.87C1528.53,964.39,1527.32,985.44,1526.05,1006.49Z" transform="translate(-778.46 -24.22)"/><path class="cls-5" d="M1487,202.23c16.16,11,22.58,34.26,14.47,52.43-6.82,15.3-18.49,24.37-35.07,26.87-3.42.52-4.63,2-4.57,5.35.15,8.86-.09,17.72.07,26.57.31,16.12-6.1,28.9-18.5,39-10.33,8.45-20.42,17.18-30.62,25.79-4.68,3.91-9.18,8.06-14.08,11.68-19.83,14.69-42,21.56-66.82,20.27a98.59,98.59,0,0,1-53.72-19.18c-5.57-4-10.77-8.55-16.13-12.85-9.12-7.86-17.92-16.12-27.43-23.47-14.39-11.14-22-25.07-21.09-43.55.41-8.18,0-16.4.11-24.59.05-3.21-1.2-4.61-4.38-5-22.46-2.85-37.72-20.32-38.83-41.94-.78-15.18,4.94-28.3,18-37.39-.75,7.4.51,13.85,7.87,17.69.87.45,1.28,1.78,1.9,2.7q2.87,8.15,5.72,16.3c2.32,6.13,4.72,12.24,6.94,18.41,3.5,9.71,8.1,13.08,18.32,13.09q31.9,0,63.8,0c12.71,0,17.83-4.27,20.08-16.68,1.93-10.61,3.79-21.23,5.93-31.79.36-1.8,1.63-4.08,3.14-4.87,10.28-5.34,20.76-5.3,31,.19a8.32,8.32,0,0,1,3.49,5.19c2.35,11.35,4.22,22.79,6.51,34.14,1.88,9.29,7.51,13.77,17,13.8q33.84.07,67.67,0c8.44,0,13.85-4.21,16.49-12.23,1.8-5.5,3.72-11,5.58-16.45l.88-1.8,0,.09,6.51-17.47c.66-.9,1.11-2.17,2-2.64C1486.43,216.06,1487.67,209.59,1487,202.23Z" transform="translate(-778.46 -24.22)"/><path class="cls-6" d="M986.44,659.49v22.2c12.59-3.53,22.85.88,32.77,6.75l1,.15-.12-.08c7.34,8.48,16.47,14.1,27.71,14.52,9.12.35,17.46,2.92,25.49,6.52,4.72,2.12,10.24,4.91,12.74,9,6.7,11,11.57,23,10.79,36.66-15.25-6.37-27.83-3.05-37.42,11.31-2.07-14.77-10.35-23.8-23.74-27.28-16.86-4.38-29.78,2.12-38.77,17-7.71-17.25-19.39-25.36-35.49-24.92-15,.41-25.64,7.93-31,22.14l-2-2.8c-4.43-6.21-10.38-10.09-18-11C897.2,738,885.73,745.53,882,758.32c-3,10.29-5.82,20.66-8.85,31.49-2.77-1.89-4.86-3.76-7.29-4.88-4.13-1.91-5.62-4.92-6.21-9.35-1-7.47-4.46-14-9.43-19.76-3.56-4.1-3.23-13.05.88-16.44C864,728.66,876.63,718,893.14,712c15.54-5.67,30.92-11.5,47-15.59,5.13-1.3,9.8-4.44,14.67-6.75,4.81-2.58,9.46-5.53,14.45-7.67,6.3-2.7,9-7.07,9-13.85-.13-28,0-56.07-.07-84.1,0-1.59-.27-3.18-.42-4.76l0-3.26-.07-.08.41-3.52L978,422.9c.06-.14.2-.3.17-.41a4.85,4.85,0,0,0-.34-.78l-.18-16.36a36.32,36.32,0,0,0,.49-4.26q0-73.72,0-147.44c0-1.28-.17-2.56-.25-3.84.22-1.46.45-2.91.68-4.37l6.8-.57,1.26,4.68,0,3q0,94.29-.07,188.59c0,.79.14,1.58.28,3l12.08-3.08c0,1.39-.07,2.78-.1,4.17l1.08,4.17c-4.36,1.55-10.26,1.91-12.62,5-2.21,2.88-.72,8.64-.73,13.13Q986.47,563.51,986.44,659.49Z" transform="translate(-778.46 -24.22)"/><path class="cls-4" d="M1487,202.23c.69,7.36-.55,13.83-7.85,17.7-.89.47-1.34,1.74-2,2.64L1470.62,240l0-.09-.88,1.8c-1.86,5.49-3.78,10.95-5.58,16.45-2.64,8-8,12.2-16.49,12.23q-33.84.1-67.67,0c-9.51,0-15.14-4.51-17-13.8-2.29-11.35-4.16-22.79-6.51-34.14a8.32,8.32,0,0,0-3.49-5.19c-10.21-5.49-20.69-5.53-31-.19-1.51.79-2.78,3.07-3.14,4.87-2.14,10.56-4,21.18-5.93,31.79-2.25,12.41-7.37,16.68-20.08,16.68q-31.89,0-63.8,0c-10.22,0-14.82-3.38-18.32-13.09-2.22-6.17-4.62-12.28-6.94-18.41q-2.86-8.16-5.72-16.3c-.62-.92-1-2.25-1.9-2.7-7.36-3.84-8.62-10.29-7.87-17.69.15-2,.3-4.08.49-6.76h26.46c26.26,0,52.52.36,78.77,0,11-.15,20.13,2.12,24.37,12.07,7-1.21,13.24-3.2,19.48-3.11s12.36,2.25,18.76,3.55c5.38-9.77,9.8-12.36,21.7-12.38l81.66-.14h18.19c.47,0,1,.1,1.43.11C1486.57,195.7,1486.57,195.7,1487,202.23ZM1215,243.77c1.22,4,2.45,8,3.66,12,1.46,4.83,4.59,6.77,9.73,6.72,22.07-.18,44.14-.06,66.2-.08,6.82,0,8.77-1.56,10.1-8.39,2.15-11.06,4.13-22.14,6.21-33.21,2.16-11.44-2.61-17.21-14.33-17.21q-40.59,0-81.18,0c-7.82.54-12.17,5.14-10.19,11.58C1208.19,224.79,1211.74,234.24,1215,243.77Zm244.89-40.19q-40.77,0-81.53,0a29.64,29.64,0,0,0-4.8.33c-6.14,1.06-10.78,6.71-9.78,12.83,2.16,13.15,4.71,26.25,7.23,39.34.8,4.15,3.48,6.32,7.85,6.32q34.74,0,69.47,0c3.93,0,6.47-1.85,7.71-5.34,1.57-4.38,2.81-8.87,4.19-13.32,3.08-8.76,6.25-17.49,9.23-26.29C1472.34,209.07,1468.85,204.12,1459.93,203.58Z" transform="translate(-778.46 -24.22)"/><path class="cls-7" d="M1293.82,493l-68.94,26.29V433.44c7.58-6.32,15.14-12.68,22.77-18.94,4.69-3.86,9.5-7.56,14.26-11.33l0,.21c.2,10.09-.9,20.25,3.81,29.86,6.16,12.57,11.86,25.35,17.8,38C1286.89,478.52,1290.37,485.75,1293.82,493Z" transform="translate(-778.46 -24.22)"/><path class="cls-8" d="M998.78,445.22c0-1.39.07-2.78.1-4.17,4-8.69,7-18,12.14-25.92,9.27-14.08,23.63-21.37,39.72-25.31,21.77-5.34,43.68-4.59,65.49-.51,12.45,2.33,24.75,5.49,37.08,8.45,1.5.36,2.76,1.78,4.14,2.7-.11.1-.3.2-.3.29a3.16,3.16,0,0,0,.18.67l.1-.1a26.91,26.91,0,0,0-5.11.47Q1075.54,423.45,998.78,445.22Z" transform="translate(-778.46 -24.22)"/><path class="cls-4" d="M998.78,445.22q76.77-21.74,153.54-43.43a26.91,26.91,0,0,1,5.11-.47c-6.18,6.29-12.08,12.88-18.59,18.81-18.75,17.09-38.84,32.33-62.38,42.37-11,4.7-22.47,7.88-34.63,7.54-13.66-.38-25.29-5.48-35.1-15-2.13-2.06-4.57-3.81-6.87-5.7Z" transform="translate(-778.46 -24.22)"/><path class="cls-4" d="M978.56,245.44c-.23,1.46-.46,2.91-.68,4.37-14.57,12.71-30.56,15.1-47.8,6.1A74,74,0,0,1,917,247c-15.15-12.7-25.83-28.89-36.29-47,9.09-.48,17.2-1.25,25.3-1.24,15,0,29.92,1.64,44.06,7.21C967.92,213,978.27,225.62,978.56,245.44Z" transform="translate(-778.46 -24.22)"/><path class="cls-4" d="M977.82,421.71a4.85,4.85,0,0,1,.34.78c0,.11-.11.27-.17.41-7.91,4.31-15.85,8.35-25,9.52-16.29,2.08-30.84-2.75-44.53-10.84-23.83-14.08-41.94-34.22-58.41-56-4.64-6.15-8.91-12.58-13.22-19-.77-1.14-.88-2.74-1.29-4.13q18.11,10.07,36.23,20.12Z" transform="translate(-778.46 -24.22)"/><path class="cls-8" d="M977.82,421.71,871.74,362.58q-18.11-10.09-36.23-20.12a10.45,10.45,0,0,1,3.1-.92c33.62,1,66.68,5,97.59,19.43,13.88,6.47,26.29,15.08,34.16,28.72,2.87,5,4.88,10.42,7.28,15.66Z" transform="translate(-778.46 -24.22)"/><path class="cls-9" d="M1262,378.2c5.36,4.3,10.56,8.83,16.13,12.85a98.59,98.59,0,0,0,53.72,19.18c24.82,1.29,47-5.58,66.82-20.27,4.9-3.62,9.4-7.77,14.08-11.68l.72,24-.87,1.08a42.07,42.07,0,0,0-3.69,2.13c-24.11,17.22-50.72,25.58-80.52,23.1a117.23,117.23,0,0,1-55.9-19c-3.42-2.25-7.07-4.13-10.62-6.18l0-.21Q1262,390.69,1262,378.2Z" transform="translate(-778.46 -24.22)"/><path class="cls-4" d="M977.67,575.91l.07.08c-3.9-.61-7.86-1-11.67-1.88-21-5.15-41.92-10.44-62.87-15.69l6.93-3.13,30.67-4c2.64.24,5.29.71,7.93.69,13.65-.08,24.81,8,28,20.44C977,573.61,977.35,574.76,977.67,575.91Z" transform="translate(-778.46 -24.22)"/><path class="cls-8" d="M986.62,249.55l-1.26-4.68c4.32-18.5,18.28-24.6,35-27.06a98.75,98.75,0,0,1,11-.83c.77,0,1.57.88,2.36,1.36-1.09.67-2.19,1.32-3.25,2Z" transform="translate(-778.46 -24.22)"/><path class="cls-4" d="M986.62,249.55l43.82-29.19c1.06-.7,2.16-1.35,3.25-2-6.49,13.89-15,26.19-28,34.76-6.39,4.19-12.8,3.08-19.06-.53Z" transform="translate(-778.46 -24.22)"/><path class="cls-10" d="M977.67,575.91c-.32-1.15-.63-2.3-.94-3.45l1.35-.07C977.94,573.56,977.8,574.74,977.67,575.91Z" transform="translate(-778.46 -24.22)"/><path class="cls-11" d="M1157.33,401.42a3.16,3.16,0,0,1-.18-.67c0-.09.19-.19.3-.29a4.41,4.41,0,0,1,.27.74C1157.73,401.25,1157.47,401.35,1157.33,401.42Z" transform="translate(-778.46 -24.22)"/><path class="cls-12" d="M1553.75,793.15c10.52-4.34,21.08-8.58,31.54-13,18-7.69,36-15.57,54-23.19a7.83,7.83,0,0,1,5.34.27c6,2.37,11.8,5.06,18.31,7.91,1.7-5.59,3.51-11,5-16.5.84-3.16,2.24-5.3,5.5-6.51,4.49-1.67,8.75-3.93,13.11-5.94,2.88-1.15,4.17.15,5.27,2.81,2.59,6.29,5.53,12.45,8.32,18.66,7.16,16.94,14.32,33.88,21.63,51.19L1706.36,816q-28,11.89-55.92,23.81c-6.8,2.91-13.54,6-20.3,8.92l-46.25,19.94c-.88-1.07-2.07-2-2.6-3.23-9.56-21.95-19-43.95-28.57-65.89C1551.61,797,1551.5,795,1553.75,793.15Zm126.81,7.91a8.58,8.58,0,0,0,8.41-8.13,8.78,8.78,0,0,0-8.1-8.53,8.34,8.34,0,0,0-8.27,8.22A8.12,8.12,0,0,0,1680.56,801.06Z" transform="translate(-778.46 -24.22)"/><path class="cls-7" d="M1412.61,403.34l.87-1.08q18,14.36,35.91,28.72a22.83,22.83,0,0,1,2.26,2.44q.13,41.73.25,83.46a11.06,11.06,0,0,1-.61,2.13l-69.66-26.18c1-2.51,1.91-5.09,3.1-7.51,6.17-12.53,12.32-25.08,18.67-37.52C1410.54,433.79,1415,419.28,1412.61,403.34Z" transform="translate(-778.46 -24.22)"/><path class="cls-2" d="M1460,195.46l-81.66.14c-11.9,0-16.32,2.61-21.7,12.38-6.4-1.3-12.56-3.47-18.76-3.55s-12.51,1.9-19.48,3.11c-4.24-9.95-13.32-12.22-24.37-12.07-26.25.36-52.51,0-78.77,0V126.25c1.88-.2,3.27-.48,4.67-.49,11.55-.13,20.17-5.06,26.3-15,12.62-20.43,40.83-30.93,62.26-22.39,6.55,2.62,12.26,8.05,17.52,13.06,16,15.22,31.72,30.6,50.74,42.12,25.68,15.54,52.34,19.68,80.52,7.31.7-.31,1.42-.56,2.73-1.07Z" transform="translate(-778.46 -24.22)"/><path class="cls-13" d="M1119.26,1030.74h390c2.26,0,4.51,0,6.77.08l-20.13,47.24c-2.74,0-5.47-.15-8.21-.16H1124.39c-2.66,0-5.85.76-5.57-3.69Q1119,1052.47,1119.26,1030.74Z" transform="translate(-778.46 -24.22)"/><path class="cls-2" d="M858.78,840.5c1.84-6.29,3.78-12.56,5.45-18.9a5.41,5.41,0,0,0-.82-4c-2.83-4-5.92-7.87-8.57-11.33-5.76,4.46-10.7,9.51-16.64,12.64-16.73,8.83-34.64,5.65-48.16-7.64-.8-.78-1.64-1.53-2.45-2.3-9.06-12.62-11.83-26.32-6.25-41,7-18.32,25.87-28.77,45.41-25.18,3.39.62,5.13-.07,7.12-2.85,3.64-5.07,7.21-10.57,12-14.36,7.88-6.21,16.26-12.16,25.26-16.47,12.55-6,25.87-10.38,38.87-15.45l30.9-4.2,13.88.16c-4.87,2.31-9.54,5.45-14.67,6.75-16.07,4.09-31.45,9.92-47,15.59-16.51,6-29.13,16.69-42.09,27.41-4.11,3.39-4.44,12.34-.88,16.44,5,5.73,8.42,12.29,9.43,19.76.59,4.43,2.08,7.44,6.21,9.35,2.43,1.12,4.52,3,7.29,4.88,3-10.83,5.81-21.2,8.85-31.49,3.78-12.79,15.25-20.32,28.44-18.67,7.58,1,13.53,4.83,18,11l2,2.8c5.4-14.21,16.09-21.73,31-22.14,16.1-.44,27.78,7.67,35.49,24.92,9-14.9,21.91-21.4,38.77-17,13.39,3.48,21.67,12.51,23.74,27.28,9.59-14.36,22.17-17.68,37.42-11.31.78-13.71-4.09-25.68-10.79-36.66-2.5-4.1-8-6.89-12.74-9-8-3.6-16.37-6.17-25.49-6.52-11.24-.42-20.37-6-27.71-14.52,6,1,12.1,1.49,17.93,3,25.69,6.88,48.31,18.91,65.81,39.62a53.09,53.09,0,0,1,13.12,33.69c1,26.5,3.6,52.94,4.49,79.44.5,15.05-1.07,30.16-1.69,45.25-.1,2.56-.07,5.13-.1,7.7-4.58,1.5-9.12,3.12-13.74,4.48-16.63,4.9-33.35,6.71-50.27,1.31a9.58,9.58,0,0,0-4.23,0c-14.47,2.19-29,4.62-43.58,1.85-8.57-1.62-16.86-4.77-25.26-7.28-2.19-.66-4.31-2.06-6.49-2.12-8.47-.25-17,.18-25.43-.15-13.45-.52-26.62-3.19-38.62-9.24-9-4.54-18.33-5.58-28.08-6.33-11.6-.89-23-3.22-32.06-11.5Q855.32,854.39,858.78,840.5Z" transform="translate(-778.46 -24.22)"/><path class="cls-2" d="M1412.61,403.34c2.34,15.94-2.07,30.45-9.21,44.46-6.35,12.44-12.5,25-18.67,37.52-1.19,2.42-2.07,5-3.1,7.51-3,5.23-6.19,10.41-9.09,15.71-7.64,13.94-15.16,27.94-22.76,41.89-2.68,4.93-6.77,7.62-12.51,7.48s-9.49-3.19-12.12-8.1q-14.67-27.39-29.48-54.69a12.35,12.35,0,0,0-1.85-2.13c-3.45-7.24-6.93-14.47-10.33-21.73-5.94-12.67-11.64-25.45-17.8-38-4.71-9.61-3.61-19.77-3.81-29.86,3.55,2.05,7.2,3.93,10.62,6.18a117.23,117.23,0,0,0,55.9,19c29.8,2.48,56.41-5.88,80.52-23.1A42.07,42.07,0,0,1,1412.61,403.34Z" transform="translate(-778.46 -24.22)"/><path class="cls-9" d="M851.87,868.26c9.09,8.28,20.46,10.61,32.06,11.5,9.75.75,19.06,1.79,28.08,6.33,12,6,25.17,8.72,38.62,9.24,8.47.33,17-.1,25.43.15,2.18.06,4.3,1.46,6.49,2.12,8.4,2.51,16.69,5.66,25.26,7.28,14.56,2.77,29.11.34,43.58-1.85a9.58,9.58,0,0,1,4.23,0c16.92,5.4,33.64,3.59,50.27-1.31,4.62-1.36,9.16-3,13.74-4.48,2.9,10.28-1.24,18.44-7.79,25.87-6.56,4.1-13.09,7.78-21.24,8.3-11.55.74-21.55-2.22-30.23-9.8-.71-.62-1.46-1.18-1.91-1.54-3.66,3.43-6.91,6.95-10.63,9.89-17.89,14.11-46.15,9.44-60.54-4.09-.58-.54-1.26-1-1.9-1.47l-6.76-12.06C971.84,924.07,960.3,929.06,947,930c-15.73,1.11-30-3.47-41.78-14.13-3.37-3-6-7.16-8.21-11.17-1.61-2.86-3.67-3.54-5.8-2-11.72,8.45-23,5.52-34.34-.71C846.76,892,846.15,880.59,851.87,868.26Z" transform="translate(-778.46 -24.22)"/><path class="cls-2" d="M1020.19,688.59l-1-.15Z" transform="translate(-778.46 -24.22)"/><path class="cls-14" d="M941.07,586.91a106.26,106.26,0,0,1-30-19.32l-7.83-9.17c20.95,5.25,41.89,10.54,62.87,15.69,3.81.93,7.77,1.27,11.67,1.88l0,3.26c-1.55.79-3.12,1.54-4.63,2.39-3.16,1.79-6.17,3.9-9.46,5.4C956.15,590.44,948.58,588.62,941.07,586.91Z" transform="translate(-778.46 -24.22)"/><path class="cls-13" d="M1470.62,240l6.51-17.47Z" transform="translate(-778.46 -24.22)"/><path class="cls-13" d="M1198.12,222.64q2.87,8.15,5.72,16.3Q1201,230.78,1198.12,222.64Z" transform="translate(-778.46 -24.22)"/><path class="cls-13" d="M1469.78,241.75l.88-1.8Z" transform="translate(-778.46 -24.22)"/><path class="cls-5" d="M1460.27,243.75c-1.38,4.45-2.62,8.94-4.19,13.32-1.24,3.49-3.78,5.35-7.71,5.34q-34.72-.09-69.47,0c-4.37,0-7.05-2.17-7.85-6.32-2.52-13.09-5.07-26.19-7.23-39.34-1-6.12,3.64-11.77,9.78-12.83a29.64,29.64,0,0,1,4.8-.33q40.77,0,81.53,0Q1460.09,223.67,1460.27,243.75Z" transform="translate(-778.46 -24.22)"/><path class="cls-5" d="M1215.43,203.57q40.59,0,81.18,0c11.72,0,16.49,5.77,14.33,17.21-2.08,11.07-4.06,22.15-6.21,33.21-1.33,6.83-3.28,8.38-10.1,8.39-22.06,0-44.13-.1-66.2.08-5.14.05-8.27-1.89-9.73-6.72-1.21-4-2.44-8-3.66-12Z" transform="translate(-778.46 -24.22)"/><path class="cls-1" d="M1215.43,203.57l-.39,40.19c-3.3-9.52-6.85-19-9.8-28.61C1203.26,208.71,1207.61,204.11,1215.43,203.57Z" transform="translate(-778.46 -24.22)"/><path class="cls-1" d="M1460.27,243.75q-.18-20.08-.34-40.17c8.92.54,12.41,5.49,9.57,13.88C1466.52,226.26,1463.35,235,1460.27,243.75Z" transform="translate(-778.46 -24.22)"/><path class="cls-4" d="M1680.56,801.06a8.12,8.12,0,0,1-8-8.44,8.34,8.34,0,0,1,8.27-8.22,8.78,8.78,0,0,1,8.1,8.53A8.58,8.58,0,0,1,1680.56,801.06Z" transform="translate(-778.46 -24.22)"/></svg>