<svg xmlns="http://www.w3.org/2000/svg" viewBox="0 0 713.39 976.08"><defs><style>.cls-1{fill:#2d7f99;}.cls-2{fill:#3ca9cc;}.cls-3{fill:#fbfbfa;}.cls-4{fill:#293e49;}.cls-5{fill:#f9f2f1;}.cls-6{fill:#3f3e3c;}.cls-7{fill:#293d48;}.cls-8{fill:#b4b4b3;}.cls-9{fill:#353534;}.cls-10{fill:#35adc8;}.cls-11{fill:#d5684b;}.cls-12{fill:#9e5138;}.cls-13{fill:#f0e9e2;}.cls-14{fill:#2e8198;}.cls-15{fill:#3e3d3d;}.cls-16{fill:#e9e8e5;}.cls-17{fill:#fff;stroke:#000;stroke-miterlimit:10;stroke-width:1.75px;}</style></defs><title>Recurso 1</title><g id="Capa_2" data-name="Capa 2"><g id="Capa_1-2" data-name="Capa 1"><path class="cls-1" d="M534.55,122.68c.19,22.19,1.47,44.61-1.25,66.44-3.75,30.08-21.2,53.13-46.4,70.05-22.76,15.29-47.69,26.51-74.36,31.42-21.74,4-47.28,5.11-69.5,6.5-2.39-6.28-1.83-14.38-4.23-20.67,9.41-2.95,19-5.46,28.18-9,19.59-7.46,38.53-16.14,52-33.24l8.81-8.85,14.43-3.18a72.83,72.83,0,0,1,7.16-2.82c22.94-6.4,39.21-20.92,49.52-41.94,9.9-20.19,12-42,10.79-64.17,3.94-.51,7.86-1.17,11.81-1.5C532.7,110.84,534,111,534.55,122.68Z"/><path class="cls-2" d="M367,410.6c-.27-4.05-.1-8.18-.88-12.12-1.74-8.71-4.14-17.29-6-26-3.39-16.34-6.76-32.7-9.75-49.12-1.69-9.3-2.61-18.74-3.88-28.11-2.39-6.28-2.26-13.35-4.65-19.64l-2.53.79c9.4-3,19-5.47,28.17-9,19.59-7.45,38.53-16.14,52-33.24h0l8.81-8.85,8.5-13.56C452.14,181,452.19,148,450.64,114.84l-20.69.42c-2.18,10.95-4,22-6.6,32.83-7.75,32.1-26.35,55-58.36,65.08-8.28,2.62-17.5,2.26-26.29,3.28l-14,5.31-73.9-3.45-16.35-3.12-3.26-.38-6.89-1.47c-4.87,4-10,7.81-14.54,12.21-9.67,9.44-11.13,31.8.66,39.21,7.07,4.44,7.38,10,6.91,17.55-.24,3.87.09,6.38-.15,9.57-1.8,24.11-7.22,47.82-10.29,71.8-2.53,19.78-5.36,41.39-7.44,61.23,4.9.47,10.9-.77,15.79-.3-.15-2.2-.35-4.4-.53-6.6.18,2.2.38,4.4.53,6.6l71.47-.51c25.27-.09,50.55-.24,75.82-.16,2.32,0,4.63,1.51,6.94,2.37.06,0,.16,0,.16,0a3,3,0,0,0,.07-.83c-.89-4.85-1.83-10-2.72-14.88"/><path class="cls-3" d="M363.78,71.19q3.12,7.2,6.26,14.4c-2,.52-3.89,1.17-5.88,1.55-11.22,2.13-13.48,4.88-11.9,14.71,1.66,10.35,4,12,15.47,10.72,3.45-.36,6.94-.48,10.4-.71,4.95,31-1.33,59.18-20.95,84-5.67,7.15-12,13.78-18,20.65l-14,5.32-73.89-3.45-16.36-3.12-3.26-.38-6.89-1.47c-27.11-21-42-48.74-45.31-82.8l3-1.36,5.2-1.81,10.71-6.31,14.54-17.8c.53-1.1,1.06-2.2,1.58-3.3l4-7.31c.83-.19,1.43-.52,1.93-.41,5.1,1.09,10.15,2.4,15.27,3.39C281.62,104.52,325.22,101.05,363.78,71.19Zm-5.21,53.15c2.2,14.24-.76,23.73-13.11,28.8-13.27,5.44-20.95-2.61-29-11.56-1.45,8.78,3.89,15.82,13.28,19.13,10.77,3.78,27.62-3.58,33.35-14.58C367.52,137.72,366.86,130.8,358.57,124.34Zm-28.33,9.21c6.33.81,10.46-2.36,12.21-8.05s-6.18-16.84-15.44-20c3.31,6,7.13,10.07,7.58,14.5C335,124.17,331.92,128.74,330.24,133.55Z"/><path class="cls-4" d="M242,707.34q8.7-47.54,17.4-95.07c6-33.13,12-66.27,18-99.39.13-.7,1.13-1.25,2.91-3.12,1.38,5.57,2.92,10.19,3.62,14.93Q297.55,617.36,311,710.05c.21,1.43.58,2.84.87,4.26q.39,8.67.76,17.35l13.14,0,9.47-.39,36.93-1.42c6.26-7.9,3.66-16.83-6.14-18.46-4.85-.8-10.25.77-15.22,2-4,1-7.77,3.07-13.15,5.28,1.88-20.06,3.59-38.39,5.31-56.72-.28.82-.6,1.64-.94,2.46.34-.82.66-1.64.94-2.46,4.2-36,8.47-72,12.59-108.06q7.31-63.81,14.4-127.64c-2.31-.81-4.63-2.31-6.94-2.32-25.28-.08-50.55.07-75.82.16l-71.47.51L201,423.21a52.33,52.33,0,0,0-1.33,6.73c-3.52,48.37-.33,96.56,3.89,144.72.7,1.32,1.73,2.62,2.44,3.93-.71-1.31-1.74-2.61-2.44-3.93.14,6.37,0,12.77.47,19.11,3.47,44.82,6.93,92.7,10.49,137.5,3,1.05,6.12-.12,9.14,0,16.37.37,33.16,4,49.13.38,5.52-1.26,5.72-10.62,4.36-12.11-3.6-4-9.51-7.89-14.59-8-6.51-.14-13.1,3.45-20.64,5.73"/><path class="cls-5" d="M532.82,112.35c-4,.33-18.18.4-22.12.91L498,99.91l41.17-5"/><path class="cls-6" d="M318.75,12.37l-7-3.13Z"/><path class="cls-7" d="M673.23,23.22l-1.82.21Z"/><path class="cls-8" d="M358.57,124.34c8.29,6.46,8.95,13.38,4.56,21.79-5.73,11-22.58,18.36-33.35,14.58-9.39-3.31-14.73-10.35-13.28-19.13,8,8.95,15.69,17,29,11.56C357.81,148.07,360.77,138.58,358.57,124.34Z"/><path class="cls-8" d="M330.24,133.55c1.68-4.81,4.78-9.38,4.35-13.59-.45-4.43-4.27-8.52-7.58-14.5,9.26,3.2,17.17,14.37,15.44,20S336.57,134.36,330.24,133.55Z"/><path class="cls-9" d="M358.57,29.3c-8.89-1.41-17.21-6.42-25.79-9.84l-.12-.06-13.8-7-.11,0-7-3.13a1.12,1.12,0,0,0-1.32-.43c-21.21-10.69-43-11.38-65.17-3.54L241.91,6C223.19,12.65,209,23.84,203.16,43.81a11,11,0,0,1-5.39,6.11c-24.35,11-33.51,30.94-25.7,56.69l0,.21,7.35,23.74,3-1.36,5.2-1.81,10.71-6.31,14.54-17.8,1.59-3.3h0c1.36-2.48,2.71-5,4-7.3.83-.19,1.43-.52,1.93-.41,5.1,1.09,10.15,2.4,15.27,3.39,45.94,8.87,89.55,5.4,128.1-24.46l1.08-4.31a102.91,102.91,0,0,0,28.68-37.17C380.82,29.71,369.46,31,358.57,29.3Z"/><path class="cls-5" d="M451.11,114.86l-20.69.42-9.72-8.51C420,93.54,420,93.62,433,89.64c5.72-1.75,11.43-3.65,17-5.94,4.39-1.82,6.49-.53,7.26,3.86q.85,7.71,1.7,15.43Z"/><path class="cls-7" d="M707,25.19c-4.29-8.42-10.18-10-19.45-5.74l-14.35,3.77-1.82.21-10,2.32c-5.73.89-11.52,1.54-17.19,2.72-31,6.48-61.9,13.11-92.86,19.65C515.12,55.78,478.87,63.49,442.57,71c-24.15,5-48.36,9.72-72.53,14.57-2,.52-3.89,1.17-5.88,1.55-11.22,2.13-13.48,4.88-11.9,14.71,1.66,10.35,4,12,15.47,10.72,3.45-.36,6.94-.48,10.41-.71l42.56-5.09C420,93.54,420,93.62,433,89.64c5.72-1.75,11.43-3.65,17-5.94,4.39-1.82,6.49-.53,7.26,3.86q.85,7.71,1.7,15.43L498,99.91l41.16-5a48.72,48.72,0,0,1,6.67-1.62q56.91-5.73,113.83-11.34c14.41-1.06,28.88-1.69,43.19-3.5,3.39-.43,8.55-4.46,9-7.44C714.35,55.43,714.45,39.76,707,25.19Zm-4.3,49.71a7,7,0,0,1-1.56.75,7,7,0,0,0,1.56-.75c.59-.37,1.17-.81,1.76-1.25C703.91,74.09,703.32,74.53,702.73,74.9Z"/><path class="cls-10" d="M322.27,403.53l3.45,3.56Z"/><rect class="cls-11" y="729.96" width="623.73" height="90.67"/><rect class="cls-12" x="0.59" y="777.29" width="622.55" height="41.52"/><rect class="cls-13" x="82.29" y="761.54" width="459.15" height="27.5"/><rect class="cls-14" x="66" y="819.34" width="463.91" height="89.83"/><rect class="cls-15" x="130.29" y="818.81" width="336.87" height="90.89"/><rect class="cls-16" x="159.24" y="853.73" width="277.44" height="21.03"/><rect class="cls-12" x="193.43" y="909.69" width="393.84" height="65.99"/><rect class="cls-11" x="217.43" y="909.3" width="345.85" height="66.78"/><rect class="cls-13" x="437.03" y="926.43" width="13.67" height="32.51"/><rect class="cls-13" x="464.16" y="926.43" width="13.67" height="32.51"/><rect class="cls-13" x="491.29" y="926.43" width="13.67" height="32.51"/><rect class="cls-13" x="518.43" y="926.43" width="13.67" height="32.51"/><ellipse class="cls-17" cx="694.68" cy="48.54" rx="13.22" ry="25.11"/></g></g></svg>