<svg xmlns="http://www.w3.org/2000/svg" viewBox="0 0 801.34 224"><defs><style>.cls-1{fill:#989999;}.cls-2{fill:#101010;}.cls-3{fill:#343434;}.cls-4{fill:#575656;}.cls-5{fill:#777779;}.cls-6{fill:#010101;}</style></defs><title>logo-blk</title><g id="stroke"><path class="cls-1" d="M143.43,459.22c.33-22,10.17-39.17,26.91-53.06a69.06,69.06,0,0,1,28-14.11,78.92,78.92,0,0,1,27.8-2.23c17.31,1.95,32.14,8.58,44.44,20.81A76.25,76.25,0,0,1,282.08,426c.55.94,1.48,2.26.19,3.25-.88.67-1.71-.26-2.49-.77-12.47-8.07-26.34-9.94-40.76-8.85a58.83,58.83,0,0,0-40.36,19.77c-15.22,16.94-21.68,36.5-15.21,59.28a71.78,71.78,0,0,0,6,15.26c.57,1,1.71,2.47,1,3.27-1.13,1.2-3.11.74-4.5.17a90.15,90.15,0,0,1-14.75-7.18c-13.66-8.83-21.9-21.53-26.47-36.93C143.33,468.63,143.86,464,143.43,459.22Z" transform="translate(-98.67 -389.4)"/><path class="cls-2" d="M299.7,551.18c2.95-11.71,3.74-23.19.66-34.49-5.28-19.34-16.95-33.51-35.28-42.15a63.11,63.11,0,0,0-58.56,1.73,58.27,58.27,0,0,0-17.46,13.79c-.56.66-1.25,1.32-2,1.06-1.32-.48-.8-1.84-.82-2.81-.3-16.37,4.95-30.66,16-42.78a59.59,59.59,0,0,1,34.51-18.85,65.51,65.51,0,0,1,27.1.84c11,2.82,21.3,7.08,30.16,14.17,19.47,15.58,29.78,36.05,29.12,60.93-.51,19-7.8,35.59-22.5,48.36A4.53,4.53,0,0,1,299.7,551.18Z" transform="translate(-98.67 -389.4)"/><path class="cls-3" d="M189.58,604.39c11.4-1.51,22-4,31.49-10,17.35-11.13,28.36-26.26,30.55-47.35,1.45-13.93-.87-26.9-7.93-38.95a63.48,63.48,0,0,0-30-26.82c-.85-.37-2.15-.49-2.17-1.49,0-1.32,1.42-1.43,2.39-1.75,21.11-6.91,40.78-3.92,58.47,9.45,12.52,9.47,19.85,22.26,22.95,37.82A69.5,69.5,0,0,1,293,562.1c-7,20.49-20.61,35.56-40.28,44.52-18.3,8.33-37.2,9.18-56.12,1.5C194.3,607.2,191.51,607.27,189.58,604.39Z" transform="translate(-98.67 -389.4)"/><path class="cls-4" d="M102.47,516.2c14.44,31.32,38.37,46.58,71.61,42.11,31-4.16,52.6-27.44,55.44-59.23,1.65-.15,2.33,1.19,3,2.21,8,11.76,13.48,24.56,12.49,39-1.22,17.86-8.45,33-22.73,44.32-14.76,11.68-31.74,16.91-50.42,16.24-8.27-.3-16.23-2.55-24-5.57a72.63,72.63,0,0,1-26.54-17.43C108.93,565.1,101.52,550.05,101.2,532,101.11,527,100.38,521.88,102.47,516.2Z" transform="translate(-98.67 -389.4)"/><path class="cls-5" d="M217.22,522.4a45,45,0,0,1-10.45,13,60.72,60.72,0,0,1-42.18,15.75c-19.44-.13-35.11-8.18-47.8-22.51-11.93-13.47-17.72-29.2-18.1-47.25-.39-18.54,5-34.86,17-48.84,9.63-11.22,21.46-19.22,36.2-22.35,1.56-.34,3.06-1,4.62-1.36,1.4-.33,2.85-.49,4.95-.83-26.52,23.23-34.13,51.16-18,81.83C158.66,518.54,185.05,527.78,217.22,522.4Z" transform="translate(-98.67 -389.4)"/></g><g id="Text_2" data-name="Text 2"><path class="cls-6" d="M494.43,526.16h9.14a13.38,13.38,0,0,1,6.38,1.49,10.8,10.8,0,0,1,4.34,4.1,12.23,12.23,0,0,1,0,11.92,10.82,10.82,0,0,1-4.34,4.11,13.38,13.38,0,0,1-6.38,1.48h-9.14Zm9,21.58a12,12,0,0,0,5.64-1.27,9,9,0,0,0,3.76-3.55,10.94,10.94,0,0,0,0-10.42,9.08,9.08,0,0,0-3.76-3.55,12,12,0,0,0-5.64-1.27h-7.33v20.06Z" transform="translate(-98.67 -389.4)"/><path class="cls-6" d="M521,527.46a1.24,1.24,0,0,1-.39-.94,1.35,1.35,0,0,1,1.35-1.35,1.35,1.35,0,0,1,1,.38,1.26,1.26,0,0,1,.39.94,1.37,1.37,0,0,1-2.31,1Zm.14,4.58h1.65v17.22h-1.65Z" transform="translate(-98.67 -389.4)"/><path class="cls-6" d="M533.83,532.91a7.82,7.82,0,0,1,4.09-1v1.62l-.4,0a5.7,5.7,0,0,0-4.48,1.8,7.18,7.18,0,0,0-1.62,5v9h-1.65V532h1.58v3.76A6,6,0,0,1,533.83,532.91Z" transform="translate(-98.67 -389.4)"/><path class="cls-6" d="M556.86,541H542a7.2,7.2,0,0,0,1,3.58,6.51,6.51,0,0,0,2.59,2.43,7.8,7.8,0,0,0,3.68.86,8,8,0,0,0,3.12-.61,6.18,6.18,0,0,0,2.39-1.8l1,1.09a7.43,7.43,0,0,1-2.83,2.08,9.85,9.85,0,0,1-8.26-.4,8.16,8.16,0,0,1-3.15-3.1,8.9,8.9,0,0,1-1.14-4.52,9.45,9.45,0,0,1,1.07-4.51,7.92,7.92,0,0,1,3-3.12,8.2,8.2,0,0,1,4.23-1.12,8,8,0,0,1,4.2,1.11,7.79,7.79,0,0,1,2.94,3.08,9.23,9.23,0,0,1,1.07,4.49Zm-11.45-6.88a6.21,6.21,0,0,0-2.33,2.28,7.5,7.5,0,0,0-1,3.32h13.2a7,7,0,0,0-1-3.3,6.44,6.44,0,0,0-5.61-3.11A6.61,6.61,0,0,0,545.41,534.16Z" transform="translate(-98.67 -389.4)"/><path class="cls-6" d="M564.35,548.27a8.08,8.08,0,0,1-3.1-3.12,9.68,9.68,0,0,1,0-9,8,8,0,0,1,3.1-3.1,9,9,0,0,1,4.49-1.11,8.66,8.66,0,0,1,3.78.81,6.84,6.84,0,0,1,2.75,2.36l-1.22.89a5.82,5.82,0,0,0-2.29-1.93,7,7,0,0,0-3-.64,7.22,7.22,0,0,0-3.61.9,6.44,6.44,0,0,0-2.51,2.56,8.37,8.37,0,0,0,0,7.59,6.38,6.38,0,0,0,2.51,2.56,7.12,7.12,0,0,0,3.61.91,7,7,0,0,0,3-.65,5.82,5.82,0,0,0,2.29-1.93l1.22.89a6.69,6.69,0,0,1-2.75,2.36,8.66,8.66,0,0,1-3.78.81A8.93,8.93,0,0,1,564.35,548.27Z" transform="translate(-98.67 -389.4)"/><path class="cls-6" d="M589.07,548.17a4.12,4.12,0,0,1-1.57.91,6.14,6.14,0,0,1-2,.31,4.68,4.68,0,0,1-3.47-1.23,4.73,4.73,0,0,1-1.22-3.45V533.45h-3.17V532h3.17v-3.77h1.65V532H588v1.41H582.5v11.09a3.64,3.64,0,0,0,.81,2.56,3.11,3.11,0,0,0,2.39.87,3.84,3.84,0,0,0,2.68-1Z" transform="translate(-98.67 -389.4)"/><path class="cls-6" d="M611.69,539.29a5.66,5.66,0,0,1,1.3,3.87,5.29,5.29,0,0,1-2.14,4.52c-1.43,1.05-3.56,1.58-6.37,1.58h-10.3v-23.1h9.64a9.72,9.72,0,0,1,5.86,1.54,5.1,5.1,0,0,1,2.09,4.37,5.25,5.25,0,0,1-1,3.33,5.76,5.76,0,0,1-2.82,2A6.41,6.41,0,0,1,611.69,539.29Zm-15.82-11.68v9.21h7.88a7.93,7.93,0,0,0,4.67-1.17,4.42,4.42,0,0,0,0-6.87,7.93,7.93,0,0,0-4.67-1.17Zm13.71,19a4.08,4.08,0,0,0,1.73-3.62,4,4,0,0,0-1.73-3.59,9.25,9.25,0,0,0-5.1-1.16h-8.61v9.54h8.61A9.16,9.16,0,0,0,609.58,546.64Z" transform="translate(-98.67 -389.4)"/><path class="cls-6" d="M618.34,527.46a1.25,1.25,0,0,1-.4-.94,1.31,1.31,0,0,1,.4-.95,1.28,1.28,0,0,1,1-.4,1.33,1.33,0,0,1,1,.38,1.23,1.23,0,0,1,.4.94,1.37,1.37,0,0,1-2.31,1Zm.13,4.58h1.65v17.22h-1.65Z" transform="translate(-98.67 -389.4)"/><path class="cls-6" d="M642.4,524.77v24.49h-1.62V545.2a7.37,7.37,0,0,1-2.87,3.1,8.06,8.06,0,0,1-4.19,1.09,8.55,8.55,0,0,1-4.36-1.12,8,8,0,0,1-3.05-3.1,9.8,9.8,0,0,1,0-9.06,7.84,7.84,0,0,1,3.05-3.1,8.65,8.65,0,0,1,4.36-1.11,8,8,0,0,1,4.14,1.09,7.83,7.83,0,0,1,2.89,3V524.77Zm-5,22.21a6.6,6.6,0,0,0,2.48-2.57,8.22,8.22,0,0,0,0-7.52,6.69,6.69,0,0,0-2.48-2.58,7.29,7.29,0,0,0-7.09,0,6.69,6.69,0,0,0-2.48,2.58,8.3,8.3,0,0,0,0,7.52,6.6,6.6,0,0,0,2.48,2.57,7.22,7.22,0,0,0,7.09,0Z" transform="translate(-98.67 -389.4)"/><path class="cls-6" d="M664.67,524.77v24.49h-1.62V545.2a7.37,7.37,0,0,1-2.87,3.1,8.06,8.06,0,0,1-4.19,1.09,8.49,8.49,0,0,1-4.35-1.12,8.07,8.07,0,0,1-3.06-3.1,9.88,9.88,0,0,1,0-9.06,7.93,7.93,0,0,1,3.06-3.1A8.58,8.58,0,0,1,656,531.9a8,8,0,0,1,4.14,1.09,7.76,7.76,0,0,1,2.89,3V524.77Zm-5,22.21a6.57,6.57,0,0,0,2.47-2.57,8.22,8.22,0,0,0,0-7.52,6.67,6.67,0,0,0-2.47-2.58,7.31,7.31,0,0,0-7.1,0,6.67,6.67,0,0,0-2.47,2.58,8.22,8.22,0,0,0,0,7.52,6.57,6.57,0,0,0,2.47,2.57,7.24,7.24,0,0,0,7.1,0Z" transform="translate(-98.67 -389.4)"/><path class="cls-6" d="M686.19,541H671.37a7.1,7.1,0,0,0,1,3.58,6.51,6.51,0,0,0,2.59,2.43,7.83,7.83,0,0,0,3.68.86,8,8,0,0,0,3.12-.61,6.11,6.11,0,0,0,2.39-1.8l1,1.09a7.47,7.47,0,0,1-2.82,2.08,9.36,9.36,0,0,1-3.68.72,9.23,9.23,0,0,1-4.59-1.12,8.16,8.16,0,0,1-3.15-3.1,8.9,8.9,0,0,1-1.14-4.52,9.45,9.45,0,0,1,1.07-4.51,7.94,7.94,0,0,1,3-3.12,8.52,8.52,0,0,1,8.43,0,7.93,7.93,0,0,1,2.94,3.08,9.34,9.34,0,0,1,1.07,4.49Zm-11.46-6.88a6.19,6.19,0,0,0-2.32,2.28,7.51,7.51,0,0,0-1,3.32h13.2a6.76,6.76,0,0,0-1-3.3,6.39,6.39,0,0,0-2.34-2.28,6.52,6.52,0,0,0-3.27-.83A6.61,6.61,0,0,0,674.73,534.16Z" transform="translate(-98.67 -389.4)"/><path class="cls-6" d="M695.39,532.91a7.85,7.85,0,0,1,4.09-1v1.62l-.39,0a5.72,5.72,0,0,0-4.49,1.8,7.18,7.18,0,0,0-1.62,5v9h-1.65V532h1.59v3.76A6,6,0,0,1,695.39,532.91Z" transform="translate(-98.67 -389.4)"/><path class="cls-6" d="M702.83,549a1.38,1.38,0,0,1-.41-1,1.35,1.35,0,0,1,.41-1,1.41,1.41,0,0,1,1.95,0,1.35,1.35,0,0,1,.41,1,1.38,1.38,0,0,1-.41,1,1.36,1.36,0,0,1-1.95,0Z" transform="translate(-98.67 -389.4)"/><path class="cls-6" d="M712.39,548.27a8,8,0,0,1-3.1-3.12,9.6,9.6,0,0,1,0-9,7.9,7.9,0,0,1,3.1-3.1,9,9,0,0,1,4.49-1.11,8.64,8.64,0,0,1,3.77.81,6.87,6.87,0,0,1,2.76,2.36l-1.22.89a5.85,5.85,0,0,0-2.3-1.93,7,7,0,0,0-3-.64,7.25,7.25,0,0,0-3.62.9,6.51,6.51,0,0,0-2.51,2.56,8.45,8.45,0,0,0,0,7.59,6.44,6.44,0,0,0,2.51,2.56,7.16,7.16,0,0,0,3.62.91,7,7,0,0,0,3-.65,5.85,5.85,0,0,0,2.3-1.93l1.22.89a6.71,6.71,0,0,1-2.76,2.36,8.64,8.64,0,0,1-3.77.81A8.91,8.91,0,0,1,712.39,548.27Z" transform="translate(-98.67 -389.4)"/><path class="cls-6" d="M730.39,548.27a8.13,8.13,0,0,1-3.09-3.12,9.62,9.62,0,0,1,0-9,8.13,8.13,0,0,1,3.09-3.12,9.22,9.22,0,0,1,8.81,0,8,8,0,0,1,3.08,3.12,9.55,9.55,0,0,1,0,9,8,8,0,0,1-3.08,3.12,9.22,9.22,0,0,1-8.81,0Zm8-1.29a6.6,6.6,0,0,0,2.48-2.57,8.3,8.3,0,0,0,0-7.52,6.69,6.69,0,0,0-2.48-2.58,7.29,7.29,0,0,0-7.09,0,6.69,6.69,0,0,0-2.48,2.58,8.22,8.22,0,0,0,0,7.52,6.6,6.6,0,0,0,2.48,2.57,7.22,7.22,0,0,0,7.09,0Z" transform="translate(-98.67 -389.4)"/><path class="cls-6" d="M775,533.78a7.47,7.47,0,0,1,1.83,5.42v10.06h-1.64v-9.93a6.26,6.26,0,0,0-1.42-4.42,5.14,5.14,0,0,0-4-1.52,6,6,0,0,0-4.61,1.81,6.88,6.88,0,0,0-1.7,4.89v9.17h-1.65v-9.93a6.21,6.21,0,0,0-1.42-4.42,5.11,5.11,0,0,0-4-1.52,6,6,0,0,0-4.6,1.81,6.88,6.88,0,0,0-1.7,4.89v9.17h-1.65V532h1.59v3.69a6.34,6.34,0,0,1,2.55-2.82,7.83,7.83,0,0,1,4.05-1,7.11,7.11,0,0,1,4,1.06,5.73,5.73,0,0,1,2.33,3.1,6.76,6.76,0,0,1,2.69-3A8.07,8.07,0,0,1,770,531.9,6.7,6.7,0,0,1,775,533.78Z" transform="translate(-98.67 -389.4)"/></g><g id="Text_1" data-name="Text 1"><path class="cls-6" d="M415.7,500.18l-.06-27.3-13.39,22.49H397.5l-13.32-21.9v26.71H374.3v-45.5H383L400,483l16.77-28.28h8.64l.13,45.5Z" transform="translate(-98.67 -389.4)"/><path class="cls-6" d="M470.37,465.21l-15.8,37.12q-2.4,6-5.95,8.51a14.53,14.53,0,0,1-8.54,2.47,17.85,17.85,0,0,1-5.4-.84,11.71,11.71,0,0,1-4.35-2.34l3.7-7.22a8.59,8.59,0,0,0,2.7,1.63,8.38,8.38,0,0,0,3,.58,5.37,5.37,0,0,0,3.38-1,8.56,8.56,0,0,0,2.34-3.35l.13-.33-15.14-35.23h10.46l9.81,23.73,9.89-23.73Z" transform="translate(-98.67 -389.4)"/><path class="cls-6" d="M503.38,490.43H482.26l-4,9.75H467.44l20.28-45.5h10.4l20.34,45.5H507.41Zm-3.31-8L492.85,465l-7.21,17.42Z" transform="translate(-98.67 -389.4)"/><path class="cls-6" d="M557.79,452v48.23H548.1v-4q-3.76,4.56-10.92,4.55a18.05,18.05,0,0,1-8.93-2.21,15.8,15.8,0,0,1-6.28-6.3,21,21,0,0,1,0-19,15.89,15.89,0,0,1,6.28-6.31,18.16,18.16,0,0,1,8.93-2.21q6.71,0,10.47,4.23V452Zm-12.48,37.8a11.09,11.09,0,0,0,0-14.1,8.46,8.46,0,0,0-6.37-2.64,8.55,8.55,0,0,0-6.44,2.64,11.09,11.09,0,0,0,0,14.1,8.54,8.54,0,0,0,6.44,2.63A8.45,8.45,0,0,0,545.31,489.75Z" transform="translate(-98.67 -389.4)"/><path class="cls-6" d="M577.13,497.91a22.66,22.66,0,0,1-8.91-8.42,24.18,24.18,0,0,1,0-24.11,22.66,22.66,0,0,1,8.91-8.42,28.11,28.11,0,0,1,25.51,0,23.21,23.21,0,0,1,0,41,28.2,28.2,0,0,1-25.51,0Zm20-7.77a13.27,13.27,0,0,0,5.1-5.17,16.29,16.29,0,0,0,0-15.08,13.25,13.25,0,0,0-5.1-5.16,15.18,15.18,0,0,0-14.56,0,13.18,13.18,0,0,0-5.1,5.16,16.21,16.21,0,0,0,0,15.08,13.21,13.21,0,0,0,5.1,5.17,15.25,15.25,0,0,0,14.56,0Z" transform="translate(-98.67 -389.4)"/><path class="cls-6" d="M651.55,466.94a16,16,0,0,1,6.27,6.3,20.77,20.77,0,0,1,0,18.92,16,16,0,0,1-6.27,6.3,17.74,17.74,0,0,1-8.87,2.24q-6.7,0-10.53-4.22v16.31H622V465.21h9.68v4q3.78-4.55,11-4.55A17.75,17.75,0,0,1,651.55,466.94Zm-4.22,22.81a11.19,11.19,0,0,0,0-14.1,9.09,9.09,0,0,0-12.81,0,11.19,11.19,0,0,0,0,14.1,9.11,9.11,0,0,0,12.81,0Z" transform="translate(-98.67 -389.4)"/><path class="cls-6" d="M689.41,498.49a10.34,10.34,0,0,1-3.67,1.66,18.48,18.48,0,0,1-4.58.55q-6.24,0-9.66-3.18t-3.41-9.36V473.79H662.7V466h5.39v-8.51h10.14V466h8.71v7.8h-8.71V488a4.76,4.76,0,0,0,1.14,3.41,4.22,4.22,0,0,0,3.22,1.2,6.48,6.48,0,0,0,4.09-1.3Z" transform="translate(-98.67 -389.4)"/><path class="cls-6" d="M695.65,458.71a5.52,5.52,0,0,1,0-8.06A6.45,6.45,0,0,1,700.2,449a6.6,6.6,0,0,1,4.55,1.56,5,5,0,0,1,1.76,3.9,5.51,5.51,0,0,1-1.76,4.19,6.34,6.34,0,0,1-4.55,1.66A6.41,6.41,0,0,1,695.65,458.71Zm-.52,6.5h10.14v35H695.13Z" transform="translate(-98.67 -389.4)"/><path class="cls-6" d="M769.91,468.56q3.87,3.87,3.87,11.6v20H763.64V481.72q0-4.16-1.72-6.2a6.05,6.05,0,0,0-4.91-2,7.21,7.21,0,0,0-5.65,2.31c-1.39,1.53-2.08,3.82-2.08,6.85v17.55H739.14V481.72q0-8.25-6.63-8.25a7.14,7.14,0,0,0-5.59,2.31c-1.39,1.53-2.08,3.82-2.08,6.85v17.55H714.7v-35h9.68v4a12.81,12.81,0,0,1,4.78-3.38,16.05,16.05,0,0,1,6.21-1.17,14.94,14.94,0,0,1,6.69,1.47,11.83,11.83,0,0,1,4.81,4.25,14.36,14.36,0,0,1,5.43-4.22,17.07,17.07,0,0,1,7.18-1.5Q766.05,464.69,769.91,468.56Z" transform="translate(-98.67 -389.4)"/><path class="cls-6" d="M783.4,458.71a5.52,5.52,0,0,1,0-8.06A6.45,6.45,0,0,1,788,449a6.6,6.6,0,0,1,4.55,1.56,5,5,0,0,1,1.76,3.9,5.51,5.51,0,0,1-1.76,4.19,6.34,6.34,0,0,1-4.55,1.66A6.41,6.41,0,0,1,783.4,458.71Zm-.52,6.5H793v35H782.88Z" transform="translate(-98.67 -389.4)"/><path class="cls-6" d="M831.24,492.38v7.8H800v-6.11L817.85,473H800.5v-7.8h30.16v6.11l-17.81,21.06Z" transform="translate(-98.67 -389.4)"/><path class="cls-6" d="M871.35,485.56H844.89a8.24,8.24,0,0,0,3.38,5.13,11.19,11.19,0,0,0,6.63,1.89,13.51,13.51,0,0,0,4.85-.81,12,12,0,0,0,3.93-2.57l5.39,5.85q-4.94,5.65-14.43,5.65a22.91,22.91,0,0,1-10.46-2.3,16.86,16.86,0,0,1-7-6.41,17.58,17.58,0,0,1-2.47-9.29,17.82,17.82,0,0,1,2.44-9.26,17,17,0,0,1,6.69-6.44,20.72,20.72,0,0,1,18.82-.1,16.19,16.19,0,0,1,6.53,6.34,18.92,18.92,0,0,1,2.37,9.59C871.54,483,871.48,483.87,871.35,485.56Zm-23.73-11.25a8.32,8.32,0,0,0-2.86,5.33H862a8.38,8.38,0,0,0-2.86-5.29,8.52,8.52,0,0,0-5.72-2A8.74,8.74,0,0,0,847.62,474.31Z" transform="translate(-98.67 -389.4)"/><path class="cls-6" d="M892.89,466a18.38,18.38,0,0,1,7.12-1.3v9.36c-1.13-.08-1.88-.13-2.27-.13a9.32,9.32,0,0,0-6.83,2.44c-1.65,1.63-2.47,4.06-2.47,7.31v16.51H878.3v-35H888v4.62A11.32,11.32,0,0,1,892.89,466Z" transform="translate(-98.67 -389.4)"/></g></svg>