<svg xmlns="http://www.w3.org/2000/svg" xmlns:xlink="http://www.w3.org/1999/xlink" id="Capa_1" x="0" y="0" version="1.1" viewBox="0 0 357.7 336.9" xml:space="preserve" style="enable-background:new 0 0 357.7 336.9"><style type="text/css">.st0{fill:#ffc425}</style><title>Recurso 47</title><g><g id="patt"><path d="M124.8,290.4c19.4-22.2,39.7-45,66.1-55.5c21.2-8.4,43.9-8,66.6-7.2c11,0.4,22,0.9,32.9,0.5 c38.4-1.4,71.4-34.1,66.9-77.6c-0.2-2.3-0.6-4.7-1-7c-2.6-14-8.8-27.5-17.3-40.3c-5.5-8.2-11.6-15.8-18.4-23 c-34.3-36.4-85.2-63.9-120.8-73.2c-17.8-4.7-36.2-7-54.6-7C107.9,0.1,70.2,10.5,42,36c-8,7.3-15,15.5-20.8,24.6 c-0.9,1.3-1.7,2.7-2.5,4C5.3,87.7,0.5,116.7,6,143.4c6.1,29.8,24,60.4,12.9,88.4c-2.8,7.1-7.2,13.1-12.2,18.6 c-2.1,2.4-4.4,4.6-6.7,6.9c4.4,6.8,10.5,12.3,17.7,16c16.6,8.3,37.9,4.6,53,15.4c3.3,2.4,6.1,5.4,8.3,8.8c7,11,7.3,26.2,2.5,39.4 C97.6,324.9,110,307.4,124.8,290.4z" class="st0"/></g></g></svg>